<svg width="9" height="9" viewBox="0 0 9 9" fill="none" xmlns="http://www.w3.org/2000/svg">
<path d="M4.49994 0C2.01409 0 0 2.01409 0 4.49994C0 6.98579 2.01409 8.99988 4.49994 8.99988C6.98579 8.99988 8.99988 6.98579 8.99988 4.49994C8.99988 2.01409 6.98579 0 4.49994 0ZM5.53601 6.35253L3.93563 5.18944C3.87938 5.14771 3.84672 5.08239 3.84672 5.01344V1.95965C3.84672 1.83989 3.9447 1.74191 4.06446 1.74191H4.93542C5.05517 1.74191 5.15315 1.83989 5.15315 1.95965V4.4582L6.30536 5.2965C6.40334 5.36727 6.4233 5.50335 6.35253 5.60133L5.84085 6.30536C5.77008 6.40152 5.63399 6.4233 5.53601 6.35253Z" fill="#444444"/>
</svg>
