<svg width="10" height="9" viewBox="0 0 10 9" fill="none" xmlns="http://www.w3.org/2000/svg">
<g clip-path="url(#clip0_5_14153)">
<path d="M1.62914 8.82376C1.4806 8.63139 1.44376 8.43833 1.4806 8.20741L1.85146 5.8955L0.22049 4.23814C-0.00265888 4.04542 -0.0395858 3.73811 0.03502 3.42942C0.108874 3.15892 0.368114 2.92801 0.62819 2.88981L2.89009 2.54292L3.89105 0.42338C4.00258 0.153923 4.26265 -0.000250675 4.55882 -0.000250675C4.85582 -0.000250675 5.11515 0.153923 5.22668 0.42338L6.22755 2.54292L8.48954 2.88981C8.78654 2.92801 9.00877 3.12072 9.08346 3.42942C9.15731 3.69887 9.08346 4.00722 8.89807 4.23814L7.26627 5.8955L7.63712 8.20741C7.67397 8.43833 7.60011 8.66959 7.48858 8.82376C7.34012 8.97793 7.11772 9.09322 6.89541 9.09322C6.78379 9.09322 6.6731 9.05467 6.56148 9.01648L4.55882 7.93796L2.55616 9.01648C2.4417 9.06926 2.3229 9.09495 2.20719 9.09495C1.98538 9.09495 1.77526 9.00085 1.62914 8.82376Z" fill="#FF8F1E"/>
</g>
<defs>
<clipPath id="clip0_5_14153">
<rect width="9.10259" height="8.76545" fill="white" transform="scale(1.02677)"/>
</clipPath>
</defs>
</svg>
