<svg width="15" height="19" viewBox="0 0 15 19" fill="none" xmlns="http://www.w3.org/2000/svg">
<path d="M1.26417 0C0.5685 0 0 0.5685 0 1.26417V17.7357C0 18.4314 0.5685 18.9999 1.26417 18.9999H13.5094C14.205 18.9999 14.781 18.4314 14.781 17.7357V1.26417C14.781 0.5685 14.205 0 13.5094 0H1.26417ZM1.26417 0.845271H13.5094C13.7487 0.845271 13.9357 1.0248 13.9357 1.26417V17.7357C13.9357 17.9751 13.7487 18.1546 13.5094 18.1546H1.26417C1.0248 18.1546 0.845271 17.9751 0.845271 17.7357V1.26417C0.845271 1.0248 1.0248 0.845271 1.26417 0.845271ZM4.28581 4.00942C4.05392 4.00942 3.86691 4.19642 3.86691 4.43579C3.86691 4.66768 4.05392 4.85469 4.28581 4.85469H10.4122C10.644 4.85469 10.831 4.66768 10.831 4.43579C10.831 4.19642 10.644 4.00942 10.4122 4.00942H4.28581ZM4.28581 8.57299C4.05392 8.57299 3.86691 8.76 3.86691 8.99189C3.86691 9.22378 4.05392 9.41826 4.28581 9.41826H10.4122C10.644 9.41826 10.831 9.22378 10.831 8.99189C10.831 8.76 10.644 8.57299 10.4122 8.57299H4.28581ZM4.28581 13.7203C4.05392 13.7203 3.86691 13.9148 3.86691 14.1467C3.86691 14.3786 4.05392 14.5656 4.28581 14.5656H10.4122C10.644 14.5656 10.831 14.3786 10.831 14.1467C10.831 13.9148 10.644 13.7203 10.4122 13.7203H4.28581Z" fill="#A4A4A4"/>
</svg>
