<svg width="6" height="11" viewBox="0 0 6 11" fill="none" xmlns="http://www.w3.org/2000/svg">
<path d="M2.84351 0C2.21508 0.595443 1.90078 1.26056 1.90078 1.99504C1.90078 2.72968 2.21492 3.39464 2.84351 3.99009C3.47211 3.39464 3.78641 2.72953 3.78641 1.99504C3.78625 1.26056 3.47195 0.595443 2.84351 0Z" fill="#52AC6E"/>
<path d="M3.56846 3.73104C3.06648 4.23287 2.87082 4.94571 2.98115 5.86973C3.72961 5.8045 4.35467 5.52121 4.8568 5.01922C5.35863 4.51724 5.64193 3.89217 5.70731 3.14358C4.78329 3.03339 4.0703 3.22906 3.56846 3.73104Z" fill="#52AC6E"/>
<path d="M3.56846 6.31752C3.06648 6.81935 2.87082 7.5322 2.98115 8.4562C3.72961 8.39098 4.35467 8.10769 4.8568 7.6057C5.35863 7.10372 5.64193 6.47866 5.70731 5.73005C4.78329 5.61987 4.0703 5.81569 3.56846 6.31752Z" fill="#52AC6E"/>
<path d="M3.56846 8.86125C3.06648 9.36307 2.87082 10.0759 2.98115 10.9999C3.72961 10.9349 4.35467 10.6513 4.8568 10.1494C5.35863 9.6476 5.64193 9.02238 5.70731 8.27362C4.78329 8.16344 4.0703 8.35926 3.56846 8.86125Z" fill="#52AC6E"/>
<path d="M0 3.14357C0.065068 3.89218 0.348675 4.51724 0.850507 5.01922C1.35233 5.52121 1.97755 5.8045 2.726 5.86973C2.83618 4.94572 2.64052 4.23287 2.13853 3.73104C1.63686 3.22906 0.924014 3.03339 0 3.14357Z" fill="#52AC6E"/>
<path d="M0 5.73031C0.065068 6.47891 0.348675 7.10413 0.850507 7.60596C1.35233 8.10794 1.97755 8.39123 2.726 8.45646C2.83618 7.53245 2.64037 6.8196 2.13853 6.31777C1.63686 5.81594 0.924014 5.62013 0 5.73031Z" fill="#52AC6E"/>
<path d="M0 8.27337C0.065068 9.02213 0.348675 9.64735 0.850507 10.1492C1.35233 10.651 1.97755 10.9346 2.726 10.9997C2.83618 10.0757 2.64037 9.36282 2.13853 8.86099C1.63686 8.35901 0.924014 8.16318 0 8.27337Z" fill="#52AC6E"/>
</svg>
