<svg width="18" height="18" viewBox="0 0 18 18" fill="none" xmlns="http://www.w3.org/2000/svg">
<path d="M11.9665 2.05313C10.6425 0.728847 8.88225 0 7.00983 0C5.1374 0 3.37719 0.72907 2.05335 2.05313C0.72907 3.37742 0 5.13762 0 7.01005C0 8.88247 0.729293 10.6427 2.05313 11.967C3.37719 13.2908 5.13718 14.0201 7.00983 14.0201C8.88225 14.0201 10.6425 13.291 11.9667 11.967C14.6999 9.23362 14.6996 4.78647 11.9665 2.05313ZM10.7049 10.7051C9.71773 11.6921 8.4055 12.2353 7.00982 12.2353C5.61415 12.2353 4.30214 11.6919 3.31517 10.7051C2.3282 9.71774 1.78475 8.40572 1.78475 7.01005C1.78475 5.61437 2.32843 4.30191 3.31517 3.31495C4.30191 2.32798 5.61415 1.78475 7.00982 1.78475C8.4055 1.78475 9.71773 2.3282 10.7047 3.31495C12.7418 5.35246 12.7418 8.66763 10.7049 10.7051ZM17.7386 16.4768L13.996 12.7342C13.6473 12.3855 13.0822 12.3855 12.7342 12.7342C12.3855 13.0824 12.3855 13.6475 12.7342 13.996L16.4768 17.7386C16.651 17.9129 16.8795 18.0001 17.1077 18.0001C17.3359 18.0001 17.5646 17.9129 17.7386 17.7386C18.0871 17.3899 18.0871 16.8248 17.7386 16.4768Z" fill="#787878"/>
</svg>
