<svg width="29" height="29" viewBox="0 0 29 29" fill="none" xmlns="http://www.w3.org/2000/svg">
<path d="M15.2551 27.0276C13.1144 27.0276 11.0073 26.5265 9.11382 25.5724L10.3324 24.2034C17.1949 27.5949 26.1403 22.7057 26.9401 15.1006C27.0953 14.0159 28.8402 14.2299 28.6783 15.3325C27.8229 21.9212 21.9269 27.1308 15.2551 27.0276Z" fill="#2E2E2E"/>
<path d="M22.2186 9.20485C21.071 9.21763 21.0496 7.43852 22.2186 7.4481H25.872C20.3101 -0.0580175 9.38058 -0.520203 4.76448 8.15048C4.19977 8.15815 3.31436 8.10896 2.7736 8.2511C7.37182 -2.24342 20.526 -2.50821 27.1694 6.21135V2.5292C27.1362 1.36367 28.9246 1.38412 28.9262 2.49726V8.31019C28.9262 8.80336 28.525 9.20485 28.0318 9.20485H22.2186Z" fill="#2E2E2E"/>
<path d="M19.8834 15.6885C19.87 15.6885 19.794 15.6863 19.6231 15.6435L14.9776 14.3387C14.5946 14.2295 14.3257 13.8778 14.3257 13.4846V7.12836C14.3257 6.63519 14.7268 6.2337 15.2197 6.2337C15.6873 6.2337 16.0824 6.6435 16.0824 7.12836V12.8206L20.1284 13.9404C20.581 14.0861 20.8649 14.5808 20.7375 15.0369C20.6283 15.4193 20.2769 15.6885 19.8834 15.6885Z" fill="#2E2E2E"/>
<path d="M0.707833 29C0.6941 29 0.672696 28.9907 0.660879 28.9744C0.656727 28.969 0.646508 28.9546 0.660879 28.9067L2.90633 21.9174H0.177614C0.118526 21.9174 0.0715712 21.8931 0.0373949 21.8452C0.0188721 21.8187 -0.0207389 21.7474 0.0134374 21.651L3.53013 12.2514L3.53652 12.231C3.54706 12.1952 3.60839 12.1431 3.69112 12.1431H9.02525C9.13034 12.1431 9.18496 12.2185 9.20316 12.2511C9.22776 12.2939 9.24884 12.3591 9.20923 12.4264L5.47406 19.0746H9.12107C9.21913 19.0746 9.26545 19.1478 9.28429 19.1912C9.30569 19.2401 9.31912 19.3113 9.26194 19.372L0.753511 28.9674C0.747122 28.9747 0.723487 29 0.707833 29Z" fill="#FF8F1E"/>
</svg>
