<svg width="26" height="26" viewBox="0 0 26 26" fill="none" xmlns="http://www.w3.org/2000/svg">
<path fill-rule="evenodd" clip-rule="evenodd" d="M10.0777 16.1984C9.71906 16.1984 9.428 16.4372 9.428 16.7315V25.2616C9.428 25.5559 9.71906 25.7947 10.0777 25.7947H15.9249C16.2836 25.7947 16.5746 25.5559 16.5746 25.2616V16.7315C16.5746 16.4372 16.2836 16.1984 15.9249 16.1984H10.0777ZM10.7274 17.2646V24.7285H15.2753V17.2646H10.7274Z" fill="#2E2E2E"/>
<path fill-rule="evenodd" clip-rule="evenodd" d="M2.33824 10.8676V24.1959C2.33824 24.6203 2.50671 25.0271 2.80687 25.3267C3.10649 25.6268 3.51327 25.7953 3.93765 25.7953H22.0643C22.4886 25.7953 22.8954 25.6268 23.195 25.3267C23.4952 25.0271 23.6637 24.6203 23.6637 24.1959V10.8676C23.6637 10.5733 23.4248 10.3345 23.1305 10.3345C22.8362 10.3345 22.5974 10.5733 22.5974 10.8676V24.1959C22.5974 24.3372 22.5414 24.4731 22.4412 24.5728C22.3415 24.6731 22.2055 24.729 22.0643 24.729H3.93765C3.79637 24.729 3.66042 24.6731 3.56072 24.5728C3.46049 24.4731 3.40451 24.3372 3.40451 24.1959V10.8676C3.40451 10.5733 3.16567 10.3345 2.87138 10.3345C2.57709 10.3345 2.33824 10.5733 2.33824 10.8676Z" fill="#2E2E2E" stroke="#2E2E2E" stroke-width="0.394444"/>
<path fill-rule="evenodd" clip-rule="evenodd" d="M9.00156 9.7868C8.14161 11.0807 6.67122 11.9337 5.00304 11.9337C2.35496 11.9337 0.204824 9.7836 0.204824 7.13553C0.204824 6.72076 0.277331 6.30918 0.419145 5.91946C0.79927 4.87346 1.67788 2.45731 2.11398 1.25776C2.3443 0.625466 2.94461 0.204824 3.61742 0.204824H22.3827C23.0555 0.204824 23.6559 0.625466 23.8862 1.25776C24.3223 2.45731 25.2009 4.87346 25.581 5.91946C25.7228 6.30918 25.7953 6.72076 25.7953 7.13553C25.7953 9.7836 23.6452 11.9337 20.9971 11.9337C19.3289 11.9337 17.8585 11.0807 16.9986 9.7868C16.1386 11.0807 14.6683 11.9337 13.0001 11.9337C11.3319 11.9337 9.86151 11.0807 9.00156 9.7868ZM1.2711 7.13553C1.2711 6.84498 1.32174 6.55655 1.42144 6.28359C1.80157 5.23812 2.68017 2.82143 3.11628 1.62189C3.19305 1.4113 3.39297 1.27109 3.61742 1.27109H22.3827C22.6072 1.27109 22.8071 1.4113 22.8839 1.62189C23.32 2.82143 24.1986 5.23812 24.5787 6.28359C24.6784 6.55655 24.7291 6.84498 24.7291 7.13553C24.7291 9.19502 23.0566 10.8675 20.9971 10.8675C19.3945 10.8675 18.0265 9.85504 17.4981 8.43584C17.4203 8.22739 17.2214 8.08877 16.9986 8.08877C16.7757 8.08877 16.5769 8.22739 16.499 8.43584C15.9707 9.85504 14.6027 10.8675 13.0001 10.8675C11.3975 10.8675 10.0294 9.85504 9.50111 8.43584C9.42327 8.22739 9.22441 8.08877 9.00156 8.08877C8.77871 8.08877 8.57985 8.22739 8.50201 8.43584C7.97368 9.85504 6.60565 10.8675 5.00304 10.8675C2.94354 10.8675 1.2711 9.19502 1.2711 7.13553Z" fill="#FF8F1E" stroke="#FF8F1E" stroke-width="0.394444"/>
</svg>
