<svg width="15" height="15" viewBox="0 0 15 15" fill="none" xmlns="http://www.w3.org/2000/svg">
<ellipse cx="5.74405" cy="5.24127" rx="0.750002" ry="0.75" fill="#279E5E"/>
<ellipse cx="8.57626" cy="9.57487" rx="0.750002" ry="0.75" fill="#279E5E"/>
<path d="M14.245 9.22501L13.395 7.49167L14.245 5.75834C14.4283 5.375 14.2783 4.925 13.9116 4.725L12.2116 3.825L11.8783 1.925C11.8116 1.50833 11.4116 1.225 10.9949 1.29167L9.07827 1.55833L7.69493 0.225C7.39493 -0.0749999 6.9116 -0.0749999 6.6116 0.225L5.22826 1.55833L3.32826 1.275C2.91159 1.20833 2.52825 1.49167 2.44492 1.90834L2.11159 3.80833L0.41158 4.725C0.0449122 4.925 -0.105088 5.375 0.0782458 5.75834L0.928248 7.49167L0.0782458 9.22501C-0.105088 9.60834 0.0449122 10.0583 0.41158 10.2583L2.11159 11.1583L2.44492 13.0583C2.51159 13.475 2.91159 13.7583 3.32826 13.6917L5.24493 13.425L6.62826 14.775C6.92826 15.075 7.4116 15.075 7.7116 14.775L9.09494 13.425L10.9949 13.7083C11.4116 13.775 11.7949 13.4917 11.8783 13.075L12.2116 11.175L13.9116 10.275C14.2783 10.0583 14.4283 9.60834 14.245 9.22501ZM4.32826 5.24167C4.32826 4.45833 4.96159 3.825 5.74493 3.825C6.52826 3.825 7.1616 4.45833 7.1616 5.24167C7.1616 6.025 6.52826 6.65834 5.74493 6.65834C4.96159 6.65834 4.32826 6.025 4.32826 5.24167ZM5.34493 10.3583C5.27826 10.4417 5.17826 10.4917 5.07826 10.4917C5.01159 10.4917 4.94493 10.475 4.87826 10.425C4.72826 10.3083 4.71159 10.1083 4.81159 9.95834L9.12827 4.29167C9.24494 4.14167 9.44494 4.125 9.59494 4.225C9.74494 4.34167 9.76161 4.54167 9.66161 4.69167L5.34493 10.3583ZM8.57827 10.9917C7.79493 10.9917 7.1616 10.3583 7.1616 9.575C7.1616 8.79167 7.79493 8.15834 8.57827 8.15834C9.36161 8.15834 9.99494 8.79167 9.99494 9.575C9.99494 10.3583 9.36161 10.9917 8.57827 10.9917Z" fill="#279E5E"/>
</svg>
