<svg width="19" height="20" viewBox="0 0 19 20" fill="none" xmlns="http://www.w3.org/2000/svg">
<circle cx="7.62082" cy="6.95148" r="0.994651" fill="#279E5E"/>
<circle cx="11.379" cy="12.6996" r="0.994651" fill="#279E5E"/>
<path d="M18.8961 12.2356L17.7686 9.93656L18.8961 7.63749C19.1382 7.1358 18.9436 6.53235 18.454 6.26666L16.199 5.07276L15.757 2.55212C15.6631 1.9978 15.1399 1.62281 14.5848 1.71209L12.0451 2.06596L10.2077 0.297156C9.81161 -0.0990517 9.16927 -0.0990521 8.77314 0.297155L6.93527 2.06596L4.41517 1.68977C3.86192 1.60766 3.34336 1.97947 3.24358 2.52981L2.79992 5.05044L0.546016 6.26613C0.0563781 6.53182 -0.138221 7.13527 0.103949 7.63696L1.23143 9.93603L0.103949 12.2356C-0.138221 12.7373 0.0563785 13.3408 0.546016 13.6065L2.79992 14.8004L3.24199 17.321C3.33581 17.8751 3.85869 18.25 4.41357 18.161L6.95599 17.8072L8.79121 19.5977C9.18734 19.994 9.82967 19.994 10.2258 19.5978L12.061 17.8072L14.5817 18.1828C15.1349 18.2649 15.6535 17.8931 15.7532 17.3428L16.1953 14.8221L18.454 13.6272C18.9415 13.3494 19.1339 12.7438 18.8961 12.2356ZM5.74137 6.95154C5.74137 5.91362 6.58277 5.07223 7.62069 5.07223C8.65861 5.07223 9.50001 5.91363 9.50001 6.95154C9.50001 7.98946 8.6586 8.83086 7.62069 8.83086C7.12213 8.83128 6.64387 8.63342 6.29134 8.28089C5.93881 7.92836 5.74095 7.4501 5.74137 6.95154ZM7.08989 13.7388C7.00446 13.8479 6.87455 13.9128 6.73602 13.9157C6.64005 13.9171 6.54641 13.886 6.47036 13.8275C6.28005 13.678 6.24117 13.4052 6.38216 13.2085L12.1088 5.69176C12.2556 5.49632 12.5329 5.45683 12.7284 5.60356C12.9238 5.75028 12.9633 6.02765 12.8166 6.22309L7.08989 13.7388ZM11.3788 14.5788C10.3409 14.5788 9.49947 13.7374 9.49947 12.6995C9.49947 11.6616 10.3409 10.8202 11.3788 10.8202C12.4167 10.8202 13.2581 11.6616 13.2581 12.6995C13.2587 13.198 13.0609 13.6763 12.7085 14.029C12.3561 14.3816 11.8779 14.5796 11.3793 14.5793L11.3788 14.5788Z" fill="#279E5E"/>
</svg>
