<svg width="136" height="128" viewBox="0 0 136 128" fill="none" xmlns="http://www.w3.org/2000/svg">
<g opacity="0.26">
<path d="M74.4947 31.1657C73.4997 31.2296 72.5445 31.4419 71.6278 31.8037C71.5784 31.9678 71.5494 32.1354 71.5422 32.3067C71.3998 32.7095 71.4312 33.2776 71.7315 33.5646C72.53 34.3269 75.69 33.4923 76.7489 33.1087C79.4168 32.1438 76.4848 30.2635 74.865 30.0549L74.4947 31.1657Z" fill="#E93B47"/>
<path d="M35.738 101.252C36.0576 102.996 35.8646 104.89 37.7739 103.856C38.4035 103.516 39.7314 102.935 39.3732 102.065C39.2393 101.741 38.5024 101.139 38.2467 100.882C37.4615 100.098 36.9248 99.8436 36.1071 100.882L35.738 101.252Z" fill="#E93B47"/>
<path d="M32.4048 112.729C31.5002 112.655 30.6089 112.503 29.732 112.276C29.6899 110.428 32.131 110.137 33.5422 110.526C35.7554 111.135 34.027 113.474 32.4048 113.469V112.729Z" fill="#E93B47"/>
<path d="M102.259 47.0833C101.297 46.8023 100.503 46.2933 99.8807 45.5564C100.317 44.8472 99.4223 44.2164 99.6684 43.5374C99.9868 42.6569 100.531 43.0633 101.041 43.3661C102.275 44.0982 102.963 45.1933 102.567 46.6503C102.464 46.6708 102.362 46.6925 102.259 46.713V47.0833Z" fill="#E93B47"/>
<path d="M99.5861 13.0299C98.6224 12.7488 97.83 12.2387 97.2076 11.5017C97.6443 10.7937 96.7493 10.1617 96.9954 9.48271C97.3138 8.60225 97.8577 9.00871 98.3667 9.31144C99.6005 10.0435 100.29 11.1399 99.8924 12.5957L99.5861 12.6596V13.0299Z" fill="#E93B47"/>
<path d="M90.4116 53.3759C89.5107 53.2734 88.617 53.2951 87.7305 53.4386C87.4917 54.8305 91.9554 54.8257 92.6755 54.1442C94.0324 52.8585 91.1751 51.7814 91.151 52.6354L90.4116 53.3759Z" fill="#E93B47"/>
<path d="M34.8871 80.0293C34.9281 80.1511 33.2021 76.5883 33.833 76.0129C34.2901 75.5968 35.1247 76.0817 35.4781 76.3109C36.7698 77.1479 37.3138 79.0801 35.2574 79.2887L34.8871 80.0293Z" fill="#E93B47"/>
<path d="M33.6863 57.4822C34.3256 58.2421 35.1047 58.7547 36.0238 59.0188C37.219 57.7451 35.7669 56.9491 34.4269 57.1119L33.6863 57.4822Z" fill="#E93B47"/>
<path d="M0 64.8594C0.639236 65.6193 1.41836 66.1319 2.33741 66.396C3.53142 65.1224 2.08049 64.3251 0.739287 64.4891L0 64.8594Z" fill="#E93B47"/>
<path d="M101.477 85.1098C100.561 85.8805 99.6543 86.2664 99.5819 87.3326C99.5542 87.7403 99.5807 88.5194 99.9715 88.7751C100.799 89.3179 102.164 88.4869 102.882 88.1516C103.508 87.8609 104.579 87.5606 104.094 86.5619C103.852 86.0602 102.782 85.7225 102.217 85.8503L101.477 85.1098Z" fill="#E93B47"/>
<path d="M81.0812 122.882C80.1658 123.653 79.2588 124.04 79.1864 125.105C79.1587 125.512 79.1852 126.292 79.576 126.547C80.4034 127.091 81.7687 126.26 82.4863 125.925C83.1123 125.633 84.1833 125.334 83.6984 124.334C83.456 123.833 82.3862 123.496 81.8218 123.622L81.0812 122.882Z" fill="#E93B47"/>
<path d="M40.5995 45.7222C38.9652 45.6571 37.2332 45.6209 35.8353 44.6223C34.9055 43.9577 34.9211 43.4716 35.9704 42.9747C37.6059 42.1992 38.4128 43.4222 38.379 44.9817L40.5995 45.7222Z" fill="#E93B47"/>
<path d="M73.8627 98.292C73.1945 99.3317 71.4951 101.393 72.3394 102.741C72.9074 103.651 73.9278 103.829 74.8806 103.852C76.3629 103.888 78.0117 104.05 78.7209 102.594C79.0863 101.842 79.4481 99.7828 78.8777 99.0157C78.6412 98.6972 77.7958 98.4367 77.4822 98.374C76.7923 98.2365 76.0626 98.2908 75.3438 98.292H73.8627Z" fill="#E93B47"/>
<path d="M128.543 60.7796C128.551 60.8098 127.237 57.4146 127.858 56.7645C128.267 56.3351 129.178 56.8212 129.513 57.0648C130.617 57.8681 130.974 58.8957 130.394 60.0391L128.543 60.7796Z" fill="#E93B47"/>
<path d="M92.6325 75.9574C92.4226 76.0322 88.5981 76.9898 89.8657 78.1501C90.5146 78.7447 92.2453 78.6229 93.0112 78.4733C93.5515 78.3684 95.2039 78.167 95.2666 77.4373C95.2944 77.1092 94.362 75.9815 94.1136 75.9574H92.6325Z" fill="#E93B47"/>
<path d="M40.9768 50.6127C40.4702 50.07 38.4717 48.6516 38.7359 47.4527C38.9264 46.5928 40.0578 46.8026 40.8948 46.8931C41.7017 46.9799 42.6509 47.1693 42.8523 48.0124C43.0971 49.0363 42.3638 49.5984 41.7173 50.2424L40.9768 50.6127Z" fill="#E93B47"/>
<path d="M121.138 48.9343C121.777 49.693 122.561 50.1344 123.489 50.2575C123.898 49.3782 125.627 48.9271 124.386 47.9067C123.452 47.1397 122.729 47.5666 121.878 48.1938L121.138 48.9343Z" fill="#E93B47"/>
<path d="M103.974 11.0471C104.614 11.8069 105.397 12.2484 106.325 12.3702C106.735 11.4909 108.463 11.0411 107.222 10.0207C106.289 9.25362 105.565 9.67937 104.715 10.3077L103.974 11.0471Z" fill="#E93B47"/>
<path d="M64.1408 59.6311C64.2349 60.7129 64.6196 61.6477 65.2975 62.4341C65.517 62.2109 65.7256 61.9902 65.9343 61.7574C65.8028 61.1724 65.0032 60.918 64.8813 60.3716L64.1408 59.6311Z" fill="#E93B47"/>
<path d="M78.2474 1.74282C77.9531 1.09876 77.5708 0.517419 77.0992 0C76.9774 0.0084419 76.8592 0.0313681 76.7434 0.0699558C76.4394 0.0772055 76.0704 0.241223 75.9558 0.512605C75.6507 1.23627 77.0027 3.12382 77.5261 3.73169C78.8408 5.25983 79.3486 2.83797 79.0784 1.70906L78.2474 1.74282Z" fill="#E93B47"/>
<path d="M74.6811 24.2078C74.6244 23.4962 74.7631 22.8413 75.096 22.2418C75.6761 22.3528 75.8703 21.5977 76.3829 21.5905C77.0487 21.5797 76.916 22.044 76.8436 22.4589C76.6687 23.4636 76.1151 24.1981 75.0465 24.3018L74.9271 24.1137L74.6811 24.2078Z" fill="#E93B47"/>
<path d="M67.5096 17.9267C67.3492 17.3032 67.1104 16.7146 66.7908 16.1622C65.8054 16.354 66.9367 19.3186 67.5711 19.6249C68.7676 20.2014 68.7615 18.0317 68.1886 18.2319L67.5096 17.9267Z" fill="#E93B47"/>
<path d="M49.2193 33.2882C48.4763 32.8757 47.9903 32.3703 47.2642 32.591C46.9868 32.6755 46.4754 32.8902 46.4042 33.2134C46.2523 33.9009 47.1496 34.598 47.5524 34.9912C47.9046 35.3325 48.3738 35.9682 48.9153 35.394C49.1867 35.107 49.1409 34.3097 48.9141 33.9672L49.2193 33.2882Z" fill="#E93B47"/>
<path d="M18.9758 29.2762C18.2329 28.8625 17.7468 28.3572 17.0207 28.5791C16.7422 28.6635 16.232 28.8782 16.1608 29.2014C16.0088 29.8889 16.905 30.586 17.309 30.978C17.66 31.3193 18.1304 31.9562 18.6719 31.3821C18.9432 31.0938 18.8974 30.2978 18.6707 29.9553L18.9758 29.2762Z" fill="#E93B47"/>
<path d="M33.4916 18.2739C32.6316 18.0918 30.8333 17.4839 30.1507 18.3849C29.6899 18.9916 29.8287 19.7152 30.0542 20.3533C30.4052 21.3471 30.7127 22.4833 31.8597 22.587C32.4519 22.64 33.9113 22.3614 34.2768 21.7873C34.4275 21.5509 34.3877 20.9226 34.3503 20.6994C34.2671 20.2061 34.0464 19.7345 33.8655 19.2581L33.4916 18.2739Z" fill="#E93B47"/>
<path d="M72.2186 45.1262C72.2005 45.1395 74.1255 43.4099 74.714 43.6584C75.1012 43.8212 75.0095 44.5485 74.9312 44.8331C74.6767 45.7691 74.0833 46.266 73.1775 46.1695L72.2186 45.1262Z" fill="#E93B47"/>
<path d="M53.0711 25.1037C52.9685 24.9831 51.3656 22.683 50.9157 23.818C50.6842 24.3993 51.2016 25.5186 51.4947 25.9902C51.7009 26.3231 52.2521 27.37 52.7526 27.2276C52.977 27.1625 53.4908 26.2579 53.4449 26.0867L53.0711 25.1037Z" fill="#E93B47"/>
<path d="M78.2212 37.2171C77.8774 37.8335 77.7834 38.4655 77.9365 39.1132C78.6228 39.1626 79.3585 40.1986 79.724 39.1156C79.9978 38.3027 79.531 37.9288 78.9002 37.5223L78.2212 37.2171Z" fill="#E93B47"/>
<path d="M56.7229 2.05264C56.027 2.38793 55.5035 2.88004 55.1526 3.52772C55.3552 3.61817 55.5554 3.70139 55.7628 3.781C56.1186 3.54581 56.0849 2.94999 56.4178 2.73169L56.7229 2.05264Z" fill="#E93B47"/>
<path d="M66.8997 83.1198C66.6054 82.4745 66.2218 81.8932 65.7502 81.3757C65.6296 81.3842 65.5102 81.4083 65.3957 81.4457C65.0917 81.4529 64.7214 81.617 64.6068 81.8896C64.3029 82.612 65.655 84.5008 66.1772 85.1074C67.4919 86.6368 68.0008 84.2137 67.7307 83.0848L66.8997 83.1198Z" fill="#E93B47"/>
<path d="M63.3325 105.583C63.2758 104.873 63.4145 104.217 63.7462 103.617C64.3275 103.728 64.5217 102.975 65.0343 102.966C65.7001 102.957 65.5674 103.42 65.495 103.835C65.3201 104.839 64.7654 105.574 63.6979 105.678L63.5785 105.491L63.3325 105.583Z" fill="#E93B47"/>
<path d="M19.8519 74.8554C19.6927 74.2319 19.4526 73.6433 19.133 73.0909C18.1489 73.2827 19.279 76.2473 19.9134 76.5537C21.1099 77.1314 21.1051 74.9604 20.5309 75.1606L19.8519 74.8554Z" fill="#E93B47"/>
<path d="M37.8746 114.666C37.1316 114.252 36.6456 113.747 35.9195 113.968C35.6409 114.053 35.1307 114.267 35.0595 114.591C34.9076 115.279 35.8037 115.976 36.2077 116.368C36.5587 116.709 37.0291 117.346 37.5707 116.772C37.842 116.484 37.7962 115.688 37.5694 115.345L37.8746 114.666Z" fill="#E93B47"/>
<path d="M7.62696 110.651C6.884 110.239 6.39918 109.734 5.67305 109.954C5.39448 110.039 4.8843 110.253 4.81194 110.577C4.66116 111.264 5.55727 111.961 5.96134 112.354C6.3123 112.696 6.78269 113.333 7.32424 112.757C7.59557 112.47 7.54976 111.674 7.32304 111.33L7.62696 110.651Z" fill="#E93B47"/>
<path d="M22.1419 99.6493C21.2832 99.4684 19.4837 98.8593 18.801 99.7603C18.3415 100.368 18.4802 101.091 18.7057 101.73C19.0555 102.724 19.3643 103.86 20.5113 103.962C21.1022 104.017 22.5629 103.737 22.9283 103.164C23.0791 102.926 23.0393 102.299 23.0019 102.075C22.9187 101.581 22.6979 101.11 22.5158 100.634L22.1419 99.6493Z" fill="#E93B47"/>
<path d="M60.87 126.503C60.8519 126.515 62.7756 124.786 63.3642 125.034C63.7526 125.198 63.6597 125.925 63.5825 126.209C63.3268 127.145 62.7346 127.642 61.8289 127.545L60.87 126.503Z" fill="#E93B47"/>
<path d="M119.056 46.5336C118.954 46.4142 117.352 44.1141 116.901 45.2491C116.67 45.8304 117.187 46.9497 117.48 47.4212C117.686 47.7529 118.237 48.801 118.738 48.6575C118.964 48.5936 119.476 47.689 119.43 47.5177L119.056 46.5336Z" fill="#E93B47"/>
<path d="M66.8696 118.594C66.5258 119.21 66.4306 119.842 66.5838 120.49C67.2712 120.539 68.0069 121.574 68.3712 120.492C68.645 119.678 68.1794 119.304 67.5474 118.899L66.8696 118.594Z" fill="#E93B47"/>
<path d="M129.683 100.667C130.009 100.391 130.289 100.079 130.525 99.7278C130.126 99.1983 128.69 100.73 128.692 101.196C128.694 102.075 129.985 101.443 129.699 101.159L129.683 100.667Z" fill="#E93B47"/>
<path d="M115.244 94.2387C115.274 93.6767 115.434 93.2413 115.092 92.8734C114.96 92.7335 114.685 92.4911 114.472 92.543C114.02 92.6515 113.864 93.3872 113.748 93.7406C113.647 94.0494 113.405 94.5125 113.903 94.6681C114.152 94.7465 114.613 94.4884 114.752 94.2544L115.244 94.2387Z" fill="#E93B47"/>
<path d="M108.87 75.085C108.9 74.5242 109.06 74.0887 108.718 73.7209C108.588 73.5798 108.311 73.3373 108.099 73.3892C107.646 73.4978 107.491 74.2335 107.374 74.5869C107.273 74.8956 107.031 75.3588 107.53 75.5144C107.78 75.5928 108.239 75.3347 108.378 75.1007L108.87 75.085Z" fill="#E93B47"/>
<path d="M119.617 80.5314C119.477 79.9681 119.318 78.721 118.584 78.5763C118.089 78.4786 117.7 78.7705 117.385 79.0901C116.895 79.5858 116.309 80.0984 116.579 80.8112C116.719 81.1779 117.309 81.9655 117.755 82.0173C117.941 82.0378 118.302 81.8328 118.425 81.7459C118.694 81.553 118.911 81.2852 119.141 81.0392L119.617 80.5314Z" fill="#E93B47"/>
<path d="M114.868 111.351C114.856 111.343 116.442 111.987 116.465 112.41C116.481 112.687 116.021 112.843 115.829 112.879C115.199 112.998 114.731 112.789 114.526 112.223L114.868 111.351Z" fill="#E93B47"/>
<path d="M121.228 94.1571C121.27 94.0606 122.173 92.442 121.367 92.5023C120.955 92.5336 120.439 93.1656 120.243 93.4768C120.106 93.6951 119.643 94.3271 119.872 94.5828C119.976 94.6986 120.663 94.742 120.751 94.6636L121.228 94.1571Z" fill="#E93B47"/>
<path d="M121.313 112.628C120.846 112.602 120.444 112.729 120.102 113.008C120.272 113.431 119.87 114.168 120.619 114.071C121.183 113.999 121.27 113.613 121.329 113.12L121.313 112.628Z" fill="#E93B47"/>
<path d="M136 89.6503C135.599 89.3343 135.156 89.1654 134.667 89.1437C134.673 89.2909 134.682 89.4332 134.694 89.5803C134.937 89.7239 135.281 89.5321 135.508 89.666L136 89.6503Z" fill="#E93B47"/>
<path d="M127.061 83.0307C127.377 83.1368 127.699 83.1936 128.029 83.1984C128.064 83.1537 128.095 83.1055 128.12 83.0536C128.214 82.9475 128.278 82.7678 128.221 82.6411C128.072 82.3034 126.989 82.1599 126.612 82.143C125.665 82.1008 126.331 83.0561 126.805 83.3262L127.061 83.0307Z" fill="#E93B47"/>
<path d="M120.51 74.575C120.772 74.7848 120.953 75.0429 121.051 75.3493C120.826 75.5133 121.022 75.8221 120.859 76.0006C120.649 76.2322 120.532 76.0368 120.414 75.8788C120.126 75.4952 120.052 75.0695 120.361 74.6691L120.463 74.6895L120.51 74.575Z" fill="#E93B47"/>
<path d="M114.135 66.993C114.136 66.9834 114.109 68.2003 113.834 68.3209C113.654 68.4017 113.434 68.1364 113.362 68.0182C113.123 67.6287 113.143 67.2656 113.469 66.9858L114.135 66.993Z" fill="#E93B47"/>
<path d="M114.913 71.5968C114.813 71.2808 114.627 71.0444 114.356 70.8888C114.117 71.1083 113.525 71.0275 113.779 71.5003C113.97 71.8561 114.247 71.8175 114.59 71.7319L114.913 71.5968Z" fill="#E93B47"/>
<path d="M45.3743 83.4293C44.6796 83.7646 44.1561 84.2567 43.8039 84.9056C44.0078 84.9961 44.2068 85.0781 44.4142 85.1577C44.77 84.9225 44.7375 84.3279 45.0704 84.1084L45.3743 83.4293Z" fill="#E93B47"/>
</g>
</svg>
