<svg width="132" height="102" viewBox="0 0 132 102" fill="none" xmlns="http://www.w3.org/2000/svg">
<path d="M3.81288 100.592C6.45723 100.223 9.10138 100.135 11.7456 100.089C13.0678 100.064 14.3899 100.06 15.7121 100.066C17.0342 100.064 18.3564 100.081 19.6784 100.093C22.3227 100.115 24.9669 100.12 27.6112 100.117H35.5439H67.275H99.006H114.872L118.838 100.116L120.821 100.099L122.804 100.069C124.126 100.055 125.449 100.075 126.771 100.14C128.093 100.212 129.415 100.324 130.737 100.592C130.868 100.619 130.953 100.746 130.926 100.878C130.907 100.976 130.83 101.048 130.737 101.067C129.415 101.335 128.093 101.448 126.771 101.519C125.449 101.585 124.126 101.604 122.804 101.59L120.821 101.561L118.838 101.544L114.872 101.542H99.006H67.275H35.5439H27.6112C24.9669 101.539 22.3227 101.544 19.6784 101.566C18.3564 101.578 17.0342 101.595 15.7121 101.593C14.3899 101.6 13.0678 101.595 11.7456 101.57C9.10138 101.524 6.45723 101.436 3.81288 101.067C3.68161 101.049 3.59011 100.928 3.60845 100.796C3.6236 100.688 3.7096 100.606 3.81288 100.592Z" fill="#5E2323"/>
<path d="M123.441 24.2189C123.441 23.952 122.845 23.7214 121.977 23.6093C121.674 23.5702 121.437 23.3334 121.398 23.0305C121.286 22.1627 121.055 21.5667 120.788 21.5667C120.521 21.5667 120.291 22.1627 120.179 23.0305C120.14 23.3334 119.903 23.5702 119.6 23.6093C118.732 23.7214 118.136 23.952 118.136 24.2189C118.136 24.4858 118.732 24.7164 119.6 24.8285C119.903 24.8676 120.14 25.1044 120.179 25.4074C120.291 26.2751 120.521 26.8711 120.788 26.8711C121.055 26.8711 121.286 26.2751 121.398 25.4074C121.437 25.1044 121.674 24.8676 121.977 24.8285C122.845 24.7164 123.441 24.4858 123.441 24.2189Z" fill="white"/>
<path d="M5.30453 49.5268C5.30453 49.2598 4.70842 49.0293 3.84071 48.9172C3.53783 48.8781 3.30097 48.6412 3.26188 48.3383C3.14982 47.4706 2.91914 46.8745 2.65226 46.8745C2.38519 46.8745 2.1548 47.4706 2.04265 48.3383C2.00365 48.6412 1.7667 48.8781 1.46382 48.9172C0.596105 49.0293 0 49.2598 0 49.5268C0 49.7937 0.596105 50.0243 1.46382 50.1364C1.7667 50.1755 2.00365 50.4123 2.04265 50.7153C2.1548 51.5829 2.38519 52.179 2.65226 52.179C2.91914 52.179 3.14982 51.5829 3.26188 50.7153C3.30097 50.4123 3.53783 50.1755 3.84071 50.1364C4.70842 50.0243 5.30453 49.7937 5.30453 49.5268Z" fill="white"/>
<path d="M132 31.9214C132 31.7146 131.538 31.5358 130.866 31.449C130.631 31.4187 130.447 31.2351 130.417 31.0004C130.33 30.3278 130.151 29.8659 129.944 29.8659C129.738 29.8659 129.559 30.3278 129.472 31.0004C129.442 31.2351 129.258 31.4187 129.023 31.449C128.351 31.5358 127.889 31.7146 127.889 31.9214C127.889 32.1283 128.351 32.307 129.023 32.3939C129.258 32.4242 129.442 32.6078 129.472 32.8425C129.559 33.515 129.738 33.977 129.944 33.977C130.151 33.977 130.33 33.515 130.417 32.8425C130.447 32.6078 130.631 32.4242 130.866 32.3939C131.538 32.307 132 32.1283 132 31.9214Z" fill="white"/>
<path d="M71.3425 2.0556C71.3425 1.8487 70.8804 1.67 70.208 1.58313C69.9732 1.55278 69.7896 1.36926 69.7593 1.13449C69.6725 0.461949 69.4937 0 69.2868 0C69.0799 0 68.9012 0.461949 68.8144 1.13449C68.784 1.36926 68.6005 1.55278 68.3658 1.58313C67.6932 1.67 67.2312 1.8487 67.2312 2.0556C67.2312 2.26246 67.6932 2.44121 68.3658 2.52806C68.6005 2.55836 68.784 2.74189 68.8144 2.97671C68.9012 3.64921 69.0799 4.11121 69.2868 4.11121C69.4937 4.11121 69.6725 3.64921 69.7593 2.97671C69.7896 2.74189 69.9732 2.55836 70.208 2.52806C70.8804 2.44121 71.3425 2.26246 71.3425 2.0556Z" fill="white"/>
<circle cx="129.895" cy="23.7171" r="1.11934" transform="rotate(-45 129.895 23.7171)" fill="white"/>
<circle cx="77.0439" cy="7.56997" r="1.11934" transform="rotate(-45 77.0439 7.56997)" fill="white"/>
<circle cx="8.81431" cy="43.6169" r="1.11935" transform="rotate(-45 8.81431 43.6169)" fill="white"/>
<path d="M75.0486 60.4629C75.1861 61.7446 74.2659 62.9542 72.9939 63.1623C71.9584 63.3317 70.9776 62.8375 70.4727 61.9981C70.3718 61.8307 70.1319 61.864 70.0831 62.052C69.8235 63.0031 69.0061 63.7497 67.9595 63.8601C66.6237 64.0022 65.3822 62.9973 65.2402 61.6615C65.1433 60.7339 65.573 59.8685 66.2954 59.3712C66.8287 59.0037 67.0825 58.344 66.9937 57.7031L66.5709 54.6536L71.6534 53.949L72.0632 56.9053C72.1572 57.5829 72.6261 58.1626 73.2828 58.3536C74.2125 58.6247 74.94 59.4304 75.0486 60.4629Z" fill="white"/>
<path d="M67.7105 63.9878C66.4191 63.988 65.2662 62.9805 65.1271 61.6731C65.0288 60.731 65.452 59.8126 66.2317 59.276C66.7117 58.9453 66.9666 58.3339 66.8813 57.7184L66.4426 54.5549L71.753 53.8188L72.1787 56.8889C72.2684 57.5365 72.715 58.0679 73.3163 58.2427C74.329 58.5381 75.0544 59.4046 75.1645 60.4501C75.3081 61.7905 74.3433 63.0579 73.0141 63.2752C71.9592 63.4469 70.9247 62.9695 70.3756 62.0568C70.3526 62.0185 70.3132 61.9993 70.275 62.0052C70.2564 62.0079 70.2114 62.0207 70.196 62.0804C69.9124 63.1184 69.0401 63.8613 67.9731 63.974C67.8851 63.9834 67.7974 63.9878 67.7105 63.9878ZM66.7022 54.7512L67.1092 57.6867C67.2062 58.3877 66.9129 59.0857 66.3621 59.4653C65.6518 59.9542 65.2662 60.7911 65.3559 61.6491C65.4911 62.9203 66.6769 63.8796 67.9488 63.7453C68.921 63.6426 69.7157 62.9659 69.9737 62.0212C70.0075 61.8906 70.1104 61.7966 70.2421 61.7776C70.3738 61.7574 70.5014 61.82 70.5727 61.9383C71.0728 62.7696 72.0159 63.2058 72.9769 63.0482C74.188 62.8503 75.0666 61.6958 74.9358 60.4746C74.8357 59.5222 74.1748 58.7326 73.252 58.4634C72.5638 58.2633 72.053 57.6577 71.9508 56.9206L71.5568 54.0782L66.7022 54.7512Z" fill="#5E2323"/>
<g opacity="0.3">
<path d="M65.2442 61.6604C65.147 60.7321 65.5772 59.8668 66.2996 59.3716C66.8335 59.0035 67.0874 58.3441 66.9973 57.7013L66.5743 54.6527L68.4672 54.3904L68.8847 57.4048C68.9748 58.0476 68.7208 58.707 68.1882 59.0725C67.4645 59.5702 67.0344 60.4355 67.1315 61.3639C67.2439 62.4105 68.0311 63.2559 69.013 63.4986C68.704 63.6908 68.3472 63.8184 67.9627 63.8598C66.6268 63.9997 65.3867 62.9975 65.2442 61.6604Z" fill="#6B184E"/>
<path d="M67.7175 63.988C66.4247 63.988 65.2704 62.9798 65.1311 61.6731C65.0325 60.7302 65.456 59.8119 66.2361 59.2771C66.7165 58.9458 66.9713 58.3336 66.8848 57.7176L66.446 54.5549L68.5666 54.2612L69.0001 57.3893C69.0984 58.0915 68.8058 58.7895 68.2545 59.1677C67.5436 59.6567 67.1576 60.4938 67.2473 61.3524C67.3523 62.3302 68.0734 63.1481 69.0419 63.3874L69.3064 63.4528L69.075 63.5966C68.7451 63.802 68.365 63.9326 67.9764 63.9744C67.8895 63.9835 67.8031 63.988 67.7175 63.988ZM65.3599 61.6486C65.4952 62.9184 66.681 63.879 67.9521 63.7458C68.2175 63.7173 68.4785 63.6434 68.7194 63.5293C67.7939 63.1926 67.124 62.3581 67.0185 61.3765C66.9199 60.4339 67.3439 59.515 68.1243 58.9781C68.6046 58.6487 68.8586 58.0377 68.7722 57.421L68.3704 54.5205L66.7054 54.7512L67.1127 57.6859C67.2109 58.3871 66.918 59.0863 66.3662 59.4668C65.6555 59.9538 65.2702 60.7897 65.3599 61.6486Z" fill="#5E2323"/>
</g>
<path d="M67.7131 64.443C66.1946 64.4432 64.8389 63.2585 64.6755 61.7213C64.5598 60.6126 65.0576 59.5323 65.9745 58.901C66.3137 58.6672 66.4933 58.2274 66.4314 57.7808L66.0085 54.7313C65.9877 54.5815 66.0274 54.4297 66.1186 54.3091C66.2097 54.1885 66.3452 54.1091 66.495 54.0883L71.5775 53.3838C71.8899 53.3408 72.1769 53.5585 72.2204 53.8702L72.6302 56.8265C72.6955 57.2964 73.0149 57.6807 73.4443 57.8056C74.6353 58.153 75.4881 59.1719 75.6178 60.4016C75.7868 61.9781 74.6519 63.4687 73.0884 63.7244C72.0736 63.8909 71.0741 63.5434 70.3904 62.8231C69.9238 63.7125 69.0496 64.318 68.0218 64.4267C67.9182 64.4376 67.8153 64.443 67.7131 64.443ZM67.2161 55.1395L67.5608 57.6243C67.6812 58.4941 67.3125 59.3639 66.6211 59.8401C66.0482 60.2346 65.7371 60.9096 65.8094 61.6018C65.9184 62.6268 66.8741 63.4024 67.9015 63.2928C68.6861 63.2098 69.3273 62.6637 69.5354 61.9013C69.6133 61.6007 69.866 61.3725 70.1775 61.3272C70.4901 61.2811 70.7986 61.4295 70.9634 61.7034C71.367 62.3747 72.1297 62.7257 72.9043 62.599C73.881 62.4394 74.5896 61.5082 74.4841 60.5231C74.4841 60.5227 74.4841 60.5224 74.4838 60.5219C74.4032 59.754 73.87 59.1176 73.1254 58.9003C72.2657 58.6504 71.6278 57.8977 71.5008 56.9831L71.1692 54.5915L67.2161 55.1395Z" fill="#5E2323"/>
<path d="M72.4318 49.2585L72.8357 52.1722C72.9569 53.0462 72.3466 53.853 71.4725 53.9742L66.7317 54.6314C65.8576 54.7526 65.0509 54.1422 64.9297 53.2682L64.5257 50.3545C64.3493 49.0821 63.7135 47.9297 62.7739 47.0538C57.9994 42.6026 55.823 34.1093 60.277 28.9674C62.9098 25.9278 67.342 25.3134 70.7023 27.5221C76.3872 31.2585 76.6032 40.0236 73.2196 45.6057C72.5538 46.7042 72.2554 47.986 72.4318 49.2585Z" fill="#D46051"/>
<path d="M66.5111 54.7614C65.6703 54.7614 64.9346 54.1397 64.8157 53.2836L64.4119 50.37C64.2443 49.1611 63.6347 48.0131 62.6957 47.1375C57.9044 42.6708 55.6971 34.079 60.1901 28.8918C62.8822 25.784 67.3302 25.1675 70.7657 27.4257C76.5002 31.1951 76.7136 40.0633 73.3181 45.6649C72.6525 46.7632 72.378 48.0336 72.5459 49.2423L72.9499 52.156C73.0794 53.0915 72.4237 53.9581 71.4884 54.0877L66.7475 54.7449C66.6682 54.7559 66.5891 54.7614 66.5111 54.7614ZM66.2933 26.3016C64.0903 26.3016 61.9239 27.2415 60.3638 29.0423C55.9563 34.1309 58.1379 42.5741 62.8526 46.9694C63.8302 47.8809 64.4648 49.0774 64.6399 50.3384L65.0436 53.252C65.1558 54.0618 65.9042 54.63 66.7158 54.5173L71.4568 53.86C72.2667 53.7477 72.8342 52.9975 72.722 52.1876L72.318 49.274C72.1432 48.013 72.4285 46.689 73.1214 45.5458C76.4625 40.0338 76.2647 31.3154 70.6392 27.6179C69.2919 26.7323 67.7842 26.3016 66.2933 26.3016Z" fill="#5E2323"/>
<g opacity="0.3">
<path d="M64.9314 53.2687L64.5264 50.3525C64.3489 49.0808 63.7138 47.9291 62.7734 47.0536C57.9987 42.6029 55.8228 34.1096 60.2783 28.9664C62.1134 26.8473 64.8235 25.908 67.4336 26.2828C66.3628 26.6403 65.3533 27.2305 64.4816 28.0523C59.5299 32.7166 60.8344 41.3854 65.1337 46.2991C65.9796 47.265 66.4942 48.4754 66.5417 49.76L66.6474 52.6988C66.6777 53.5819 67.4197 54.2723 68.3016 54.2381L70.008 54.1769L66.7315 54.6319C65.8583 54.7525 65.0521 54.142 64.9314 53.2687Z" fill="#6B184E"/>
<path d="M66.5117 54.7622C65.6711 54.7623 64.9356 54.1406 64.8174 53.2848L64.4125 50.3686C64.2435 49.1591 63.6335 48.0117 62.6949 47.138C57.9036 42.6717 55.697 34.0796 60.1913 28.8914C62.0068 26.7949 64.7212 25.7776 67.4497 26.1693L67.9306 26.2384L67.4698 26.3922C66.3814 26.7556 65.4024 27.3423 64.5604 28.1362C59.661 32.7513 60.9759 41.3727 65.22 46.2237C66.0993 47.2275 66.6094 48.4821 66.6564 49.7561L66.7621 52.6949C66.7757 53.0917 66.9434 53.4589 67.2339 53.7291C67.5244 53.9989 67.9052 54.1393 68.2971 54.1235L70.0038 54.0623L70.0237 54.2911L66.7472 54.746C66.6682 54.7569 66.5895 54.7622 66.5117 54.7622ZM66.2957 26.3166C64.0373 26.3166 61.8798 27.2928 60.365 29.042C55.9563 34.1314 58.1371 42.575 62.8518 46.9698C63.8289 47.8794 64.464 49.0752 64.6404 50.3368L65.0452 53.2534C65.157 54.0625 65.9059 54.6297 66.7156 54.5183L68.0066 54.3391C67.6609 54.292 67.3385 54.1402 67.0775 53.8975C66.7418 53.5853 66.5481 53.1612 66.5325 52.703L66.4268 49.7644C66.3816 48.5432 65.8918 47.3394 65.0472 46.3751C60.7337 41.4452 59.4082 32.6735 64.4028 27.9689C65.149 27.2653 66.0001 26.7197 66.9376 26.343C66.7229 26.3253 66.5089 26.3166 66.2957 26.3166Z" fill="#5E2323"/>
</g>
<g opacity="0.55">
<path d="M70.6937 54.0814C71.3203 53.7964 71.7131 53.1252 71.6145 52.4085L71.2109 49.4961C71.0347 48.2218 71.3314 46.9398 71.9986 45.841C74.2517 42.1249 74.9069 36.995 73.4175 32.8797C72.3262 32.6536 71.1612 31.4248 71.8655 29.9954C71.2146 29.1371 70.4233 28.3784 69.4818 27.7592C67.8661 26.6949 65.9989 26.2849 64.2048 26.4874C66.3502 25.8947 68.7174 26.2149 70.7069 27.5211C76.389 31.2591 76.6046 40.023 73.2224 45.6054C72.5552 46.7043 72.2585 47.9863 72.4359 49.2579L72.8383 52.1729C72.9591 53.0462 72.3485 53.8524 71.4753 53.9731L70.6937 54.0814Z" fill="white"/>
<path d="M69.9266 54.3038L70.6453 53.977C71.2371 53.7079 71.5886 53.0695 71.4999 52.4245L71.0963 49.5122C70.9215 48.2477 71.2065 46.9229 71.8995 45.7817C74.195 41.9959 74.754 36.9779 73.33 32.9785C72.6552 32.8171 72.0336 32.3257 71.7338 31.7116C71.5479 31.3311 71.4007 30.7313 71.7309 30.0098C71.0765 29.1593 70.2987 28.4348 69.418 27.8556C67.8795 26.8421 66.032 26.3969 64.2168 26.6019L64.1735 26.3769C66.4096 25.7592 68.814 26.1413 70.7692 27.4253C76.5004 31.1956 76.7134 40.0641 73.3201 45.6654C72.654 46.7622 72.3802 48.0325 72.5491 49.2423L72.9516 52.1575C73.0807 53.0923 72.4252 53.958 71.4903 54.0873L69.9266 54.3038ZM65.6642 26.3442C67.0371 26.4436 68.3771 26.8946 69.5445 27.6636C70.4659 28.2697 71.2776 29.031 71.9565 29.9262L71.9993 29.9828L71.9679 30.0465C71.6393 30.7133 71.7715 31.2651 71.9402 31.6106C72.2194 32.1824 72.8082 32.6364 73.4403 32.7675L73.5031 32.7805L73.525 32.8409C74.9986 36.9128 74.4376 42.0392 72.0962 45.9009C71.4305 46.9972 71.1563 48.2684 71.3242 49.4806L71.7277 52.393C71.8057 52.9613 71.5882 53.525 71.1773 53.8985L71.4587 53.8596C72.2682 53.7476 72.8355 52.9982 72.7237 52.1889L72.3212 49.2739C72.1451 48.0119 72.4302 46.688 73.1234 45.5461C76.4625 40.0346 76.265 31.3159 70.6429 27.6175C69.155 26.6403 67.3991 26.2009 65.6642 26.3442Z" fill="#5E2323"/>
</g>
<path d="M66.5125 55.2163C65.4483 55.2163 64.5171 54.4295 64.3667 53.346L63.963 50.4323C63.8096 49.3267 63.2499 48.2747 62.3871 47.4702C57.4441 42.862 55.1855 33.9763 59.8479 28.5936C62.6449 25.3642 67.4463 24.6983 71.0175 27.0451C76.9682 30.9565 77.2121 40.1215 73.7092 45.9007C73.0975 46.9097 72.8451 48.0741 72.9985 49.1796L73.4025 52.0933C73.5664 53.2773 72.7366 54.3742 71.5525 54.5384L66.8117 55.1956C66.7112 55.2095 66.6113 55.2163 66.5125 55.2163ZM66.2963 26.7578C64.2207 26.7578 62.1794 27.6434 60.7096 29.3401C56.4716 34.2331 58.602 42.3825 63.1648 46.6362C64.2186 47.6188 64.9031 48.9113 65.0924 50.2757L65.4961 53.1893C65.5742 53.7505 66.0947 54.1446 66.6553 54.0661L71.3962 53.409C71.9574 53.3311 72.3508 52.8112 72.273 52.2498L71.869 49.3362C71.6797 47.9721 71.9869 46.542 72.734 45.3096C75.9674 39.9752 75.8006 31.5534 70.391 27.998C69.1217 27.1635 67.7012 26.7578 66.2963 26.7578Z" fill="#5E2323"/>
<g opacity="0.2">
<path d="M69.928 41.8037C68.9165 41.9423 68.8483 40.4059 68.5918 38.5342C68.3352 36.6624 67.9875 35.1643 68.999 35.0257C70.0104 34.887 71.0383 36.292 71.2949 38.1637C71.5515 40.0353 70.9394 41.6651 69.928 41.8037Z" fill="white"/>
<path d="M69.8078 41.927C69.6287 41.927 69.4701 41.8749 69.3349 41.7714C68.8471 41.3979 68.7202 40.4108 68.5596 39.1609C68.5341 38.9625 68.5079 38.758 68.4793 38.5494C68.4507 38.3411 68.421 38.1375 68.3925 37.94C68.2105 36.6925 68.0671 35.7071 68.4364 35.216C68.5642 35.0463 68.7488 34.9437 68.9849 34.9114C69.5164 34.8384 70.0645 35.1441 70.5244 35.7725C70.9691 36.3804 71.2836 37.2239 71.4103 38.1477C71.675 40.0793 71.0176 41.7703 69.9451 41.9174C69.8981 41.9238 69.8522 41.927 69.8078 41.927ZM69.1396 35.1308C69.0982 35.1308 69.057 35.1336 69.016 35.1392C68.8404 35.1633 68.7108 35.2336 68.6203 35.3542C68.3084 35.7689 68.4527 36.7595 68.6199 37.9068C68.6487 38.105 68.6786 38.3093 68.7072 38.5182C68.7358 38.7275 68.7622 38.9325 68.7878 39.1316C68.9355 40.281 69.0629 41.2737 69.4746 41.5889C69.5947 41.6806 69.7383 41.7137 69.914 41.6895C70.8608 41.5597 71.4301 39.9848 71.1824 38.1789C71.0609 37.2923 70.7614 36.4859 70.3387 35.9083C69.9687 35.4025 69.5475 35.1308 69.1396 35.1308Z" fill="#5E2323"/>
</g>
<path d="M60.8119 22.3188L55.7014 25.5858L56.2807 26.4265C57.7736 28.5999 57.0406 31.5904 54.71 32.825L54.5368 32.9169C52.569 33.9599 50.1353 33.3751 48.8573 31.5522L45.3484 26.553C44.7756 25.7987 44.4403 24.9408 44.3334 24.0681C44.0187 21.5392 45.7324 19.1949 48.1968 18.5496L53.4992 17.1605C54.4171 16.9206 54.9821 16.0004 54.7789 15.0763L52.9994 9.83054C52.6621 8.84063 53.9403 8.11325 54.6204 8.90979L61.5278 16.9935C62.9851 18.6089 62.6456 21.1457 60.8119 22.3188Z" fill="#E36836"/>
<g opacity="0.3">
<path d="M60.8149 22.3188L55.7045 25.5858L56.2837 26.4265C57.7767 28.5999 57.0436 31.5904 54.7131 32.825L54.5399 32.9169C52.5721 33.9598 50.1384 33.3751 48.8604 31.5522L48.642 31.2418C49.8655 31.8238 51.3323 31.8299 52.6041 31.1566L52.7772 31.0647C55.1079 29.8301 55.8408 26.8396 54.3479 24.6662C54.0313 24.2067 54.1586 23.5762 54.6288 23.2756L58.8791 20.5585C60.7129 19.3854 61.0523 16.8486 59.595 15.2332L53.9004 8.5684C54.1556 8.56551 54.4162 8.66626 54.6235 8.90977L61.5309 16.9935C62.9882 18.6089 62.6488 21.1457 60.8149 22.3188Z" fill="#5E2323"/>
</g>
<g opacity="0.55">
<path d="M50.7526 32.1506C51.2176 32.813 51.8317 33.3107 52.5259 33.625C51.1604 33.5983 49.835 32.9374 49.0022 31.7489L45.4933 26.7498C44.9206 25.9954 44.5851 25.1375 44.4782 24.2649C44.1636 21.7359 45.8773 19.3916 48.3417 18.7463L53.6441 17.3572C54.5619 17.1174 55.127 16.1971 54.9237 15.273L53.1443 10.0273C52.807 9.03737 54.0853 8.30999 54.7653 9.10653L55.0879 9.48477C54.8711 9.71576 54.7671 10.0545 54.8946 10.4289L56.6741 15.6747C56.8774 16.5987 56.3124 17.519 55.3946 17.7588L50.0921 19.148C47.6277 19.7933 45.9141 22.1376 46.2287 24.6665C46.3356 25.5392 46.6709 26.397 47.2437 27.1514L50.7526 32.1506Z" fill="white"/>
</g>
<path d="M52.4772 34.142C50.8512 34.1421 49.2614 33.3697 48.2739 31.9613L44.7725 26.973C44.1468 26.1447 43.7503 25.1705 43.626 24.1547C43.2729 21.3147 45.1603 18.6081 48.0164 17.8602L53.3187 16.4711C53.8579 16.3301 54.1908 15.804 54.0898 15.2632L52.3244 10.0594C52.064 9.29511 52.3727 8.48132 53.0753 8.0813C53.7781 7.68101 54.6366 7.83114 55.1626 8.44698L62.0695 16.5305C62.8927 17.4425 63.2765 18.6826 63.1102 19.9185C62.9438 21.1536 62.2461 22.2472 61.1959 22.9191L56.7068 25.7889L56.8676 26.0222C57.695 27.2267 57.9694 28.7306 57.6209 30.1489C57.2728 31.5665 56.3334 32.7715 55.0436 33.4547L54.871 33.5464C54.1113 33.9491 53.2897 34.142 52.4772 34.142ZM53.9075 9.28203C53.8672 9.28203 53.8247 9.29471 53.7805 9.31991C53.668 9.38384 53.6324 9.47829 53.6739 9.60064L55.4538 14.8473C55.4621 14.8722 55.4692 14.8975 55.4749 14.9231C55.7617 16.2263 54.9732 17.512 53.6796 17.8499L48.3775 19.239C46.2096 19.8067 44.7751 21.8449 45.0407 23.9802C45.1351 24.7519 45.4378 25.492 45.9161 26.1221C45.9215 26.1292 45.9266 26.1364 45.9319 26.1436L49.4409 31.1428C50.5101 32.6679 52.5575 33.1599 54.2032 32.2872L54.376 32.1955C55.3074 31.7021 55.9855 30.8323 56.2368 29.8089C56.4885 28.7848 56.2902 27.6991 55.6933 26.83L55.1147 25.99C55.0051 25.8308 54.9647 25.634 55.0029 25.4446C55.0412 25.2552 55.1547 25.0893 55.3176 24.9853L60.4278 21.7184C61.1245 21.2728 61.5873 20.5475 61.6976 19.7284C61.8081 18.9083 61.5534 18.0855 60.9986 17.4709L54.0788 9.37266C54.0272 9.31224 53.9698 9.28203 53.9075 9.28203Z" fill="#5E2323"/>
<path d="M56.0849 26.1866L52.2635 27.7834L55.3174 24.9857C55.612 24.7158 56.0696 24.7359 56.3395 25.0304C56.6094 25.325 56.5893 25.7827 56.2947 26.0526C56.2321 26.1101 56.159 26.1553 56.0849 26.1866Z" fill="#5E2323"/>
<path d="M45.5329 27.3499C45.3708 27.3499 45.2096 27.2811 45.0968 27.1474C45.0279 27.0658 44.9619 26.9849 44.899 26.9046C44.7049 26.6567 44.7485 26.2984 44.9963 26.1042C45.2447 25.91 45.6028 25.9539 45.7967 26.2015C45.8513 26.2711 45.9087 26.3412 45.9684 26.412C46.1715 26.6527 46.1409 27.0124 45.9002 27.2155C45.7932 27.3058 45.6628 27.3499 45.5329 27.3499Z" fill="#5E2323"/>
<g opacity="0.2">
<path d="M52.1161 20.7234C52.6512 21.2893 51.7282 22.0138 50.681 23.004C49.6336 23.9941 48.8586 24.875 48.3236 24.3091C47.7885 23.7431 48.2037 22.4817 49.2509 21.4915C50.2982 20.5014 51.5811 20.1575 52.1161 20.7234Z" fill="white"/>
</g>
<path d="M72.9986 18.6473C74.1739 18.1177 75.6099 18.6156 76.2035 19.7595C76.6869 20.6909 76.5226 21.7769 75.8821 22.5179C75.7545 22.6659 75.8608 22.8836 76.0547 22.8714C77.0394 22.822 78.0032 23.3664 78.4341 24.3266C78.9849 25.5517 78.4164 27.0444 77.1912 27.5952C76.3399 27.9761 75.3837 27.8372 74.6862 27.3055C74.171 26.9131 73.465 26.8772 72.8836 27.1612L70.1173 28.5123L67.8655 23.9017L70.5473 22.5919C71.162 22.2917 71.5669 21.6656 71.5439 20.9821C71.5121 20.0142 72.0513 19.072 72.9986 18.6473Z" fill="white"/>
<g opacity="0.3">
<path d="M77.1909 27.5949C76.339 27.9762 75.3826 27.8368 74.6873 27.3044C74.1713 26.9116 73.4655 26.8756 72.8827 27.1613L70.1173 28.5124L69.2788 26.7952L72.0134 25.46C72.5962 25.1743 73.3019 25.2104 73.815 25.6027C74.5133 26.1355 75.4696 26.2749 76.3215 25.8936C77.2812 25.4609 77.8395 24.4497 77.7645 23.4411C78.0433 23.6748 78.2756 23.9741 78.4346 24.3267C78.9834 25.5526 78.4172 27.0432 77.1909 27.5949Z" fill="#5E2323"/>
</g>
<path d="M70.1175 29.2245C70.0392 29.2245 69.9611 29.2116 69.8859 29.1858C69.7069 29.1243 69.5601 28.9945 69.4772 28.8246L67.2254 24.2141C67.0525 23.8603 67.1994 23.4336 67.5529 23.261L70.2346 21.9512C70.6104 21.7676 70.8451 21.3964 70.8319 21.0056C70.7891 19.7073 71.5252 18.5263 72.7073 17.9966C74.2208 17.3158 76.0722 17.9589 76.8362 19.4309C77.3015 20.327 77.313 21.3581 76.9042 22.2377C77.8606 22.4577 78.6683 23.1072 79.0845 24.0344C79.4287 24.8001 79.4503 25.6641 79.1449 26.4668C78.8397 27.2689 78.2499 27.9003 77.4837 28.2448C76.418 28.7212 75.1811 28.5784 74.2541 27.8717C73.9689 27.6545 73.5541 27.6267 73.1966 27.801L70.4302 29.1522C70.3319 29.2003 70.2249 29.2245 70.1175 29.2245ZM68.8188 24.2289L70.445 27.5587L72.5711 26.5204C73.4083 26.1116 74.408 26.1971 75.118 26.738C75.6301 27.1284 76.3129 27.2071 76.9006 26.9443C77.3185 26.7564 77.6429 26.4067 77.8127 25.96C77.9826 25.5136 77.9724 25.0371 77.7842 24.6184C77.4856 23.9524 76.8207 23.5456 76.0907 23.5827C75.7224 23.6067 75.376 23.406 75.2105 23.0726C75.0444 22.7384 75.0962 22.3377 75.3427 22.0521C75.8166 21.5037 75.9061 20.7327 75.5712 20.0875C75.1497 19.275 74.1264 18.9203 73.2918 19.2966C73.2913 19.2968 73.2909 19.297 73.2904 19.2971C72.6386 19.5892 72.2327 20.2412 72.2563 20.9582C72.2884 21.9094 71.7403 22.8021 70.8602 23.2318L68.8188 24.2289Z" fill="#5E2323"/>
<path d="M63.1698 24.6233L65.813 23.3324C66.6058 22.9451 67.5626 23.2739 67.9498 24.0669L70.0503 28.3675C70.4375 29.1604 70.1087 30.1171 69.3159 30.5044L66.6726 31.7953C65.5184 32.3591 64.6212 33.322 64.0813 34.4876C61.3377 40.4105 53.9441 45.1229 47.6711 42.4911C43.9629 40.9353 41.9992 36.9147 43.052 33.0337C44.833 26.4682 53.0952 23.5342 59.4532 25.0118C60.7045 25.3026 62.0156 25.1871 63.1698 24.6233Z" fill="#E36836"/>
<g opacity="0.3">
<path d="M69.3145 30.5028L66.6692 31.7956C65.516 32.3601 64.6192 33.3221 64.08 34.4884C61.3369 40.4115 53.9431 45.1233 47.6684 42.4904C45.0834 41.4062 43.347 39.1232 42.8906 36.5261C43.5637 37.4323 44.4388 38.2079 45.4912 38.7805C51.4653 42.034 59.2971 38.0956 62.6282 32.4803C63.2828 31.3757 64.2729 30.5099 65.4788 30.0648L68.2387 29.0495C69.0685 28.7458 69.4935 27.8257 69.1865 26.9983L68.5971 25.3957L70.0495 28.3678C70.4361 29.1601 70.1069 30.1162 69.3145 30.5028Z" fill="#5E2323"/>
</g>
<g opacity="0.55">
<path d="M68.4641 25.047C67.9982 24.5403 67.2382 24.3759 66.5878 24.6927L63.9457 25.983C62.7897 26.5471 61.479 26.6642 60.227 26.3723C55.9941 25.388 50.9152 26.3624 47.4681 29.0589C47.5929 30.1663 46.788 31.656 45.2103 31.4317C44.5972 32.3175 44.1226 33.3056 43.8272 34.3931C43.3188 36.2598 43.5106 38.1619 44.2615 39.8038C43.0304 37.9496 42.5977 35.6003 43.2196 33.303C45.003 26.7396 53.2641 23.8064 59.6222 25.2826C60.8742 25.5746 62.1848 25.4574 63.338 24.8929L65.9829 23.603C66.7752 23.2164 67.7314 23.5457 68.118 24.3379L68.4641 25.047Z" fill="white"/>
</g>
<path d="M51.3905 43.9428C50.0436 43.9428 48.696 43.6943 47.3935 43.1478C43.3883 41.4673 41.2252 37.0388 42.3624 32.8466C44.248 25.8957 52.9677 22.7735 59.6129 24.3172C60.7302 24.5772 61.8817 24.458 62.8552 23.9826L65.4984 22.6916C66.6427 22.1319 68.0293 22.6089 68.5883 23.7536L70.6889 28.0543C71.248 29.1991 70.7714 30.5852 69.6268 31.1442L66.9836 32.4351C66.0102 32.9106 65.2084 33.7458 64.7261 34.7867C62.4208 39.7636 56.9125 43.9428 51.3905 43.9428ZM56.0775 25.3482C50.7641 25.3482 45.125 28.107 43.7379 33.2198C42.7716 36.7826 44.541 40.4053 47.9451 41.8336C53.8392 44.3062 60.8383 39.7889 63.4328 34.1876C64.0524 32.8503 65.0912 31.7732 66.3581 31.1545L69.0013 29.8636C69.4399 29.6494 69.6222 29.1183 69.4082 28.6798L67.3077 24.3792C67.0933 23.9405 66.5616 23.7587 66.1239 23.9723L63.4807 25.2632C62.2138 25.8821 60.7256 26.0389 59.29 25.7055C58.2604 25.4662 57.1755 25.3482 56.0775 25.3482Z" fill="#5E2323"/>
<g opacity="0.2">
<path d="M56.8647 29.3238C57.3114 30.2419 55.8725 30.7849 54.1736 31.6115C52.4748 32.4379 51.1594 33.2348 50.7127 32.3168C50.2661 31.3987 51.2812 29.9845 52.9801 29.158C54.6789 28.3315 56.4181 28.4058 56.8647 29.3238Z" fill="white"/>
</g>
<path d="M85.9236 33.8676L80.0236 35.2748L80.2946 36.2591C80.9909 38.8023 79.3162 41.3861 76.7094 41.7867L76.5158 41.8166C74.3145 42.1554 72.2079 40.8037 71.5995 38.6621L69.9274 32.7877C69.6342 31.8871 69.5992 30.9667 69.7849 30.1073C70.3184 27.6154 72.7069 25.964 75.2466 26.164L80.7111 26.5936C81.6568 26.6685 82.4927 25.9849 82.6043 25.0454L82.6466 19.5062C82.6531 18.4604 84.0994 18.1933 84.4801 19.1689L88.349 29.073C89.1948 31.0774 88.0411 33.3619 85.9236 33.8676Z" fill="#E36836"/>
<g opacity="0.3">
<path d="M85.9231 33.8683L80.0231 35.2755L80.2941 36.2598C80.9903 38.803 79.3158 41.3868 76.7089 41.7874L76.5152 41.8173C74.314 42.1561 72.2074 40.8044 71.5991 38.6628L71.4948 38.2979C72.4593 39.2495 73.8427 39.7371 75.2651 39.5188L75.4588 39.4889C78.0656 39.0883 79.7402 36.5046 79.0439 33.9613C78.8958 33.4233 79.2232 32.8696 79.766 32.7402L84.6729 31.5698C86.7904 31.0642 87.9441 28.7796 87.0983 26.7752L83.9088 18.6098C84.1507 18.6908 84.3638 18.8715 84.4796 19.1697L88.3486 29.0736C89.1944 31.0781 88.0406 33.3627 85.9231 33.8683Z" fill="#5E2323"/>
</g>
<g opacity="0.55">
<path d="M73.2735 39.9767C73.4953 40.7551 73.9118 41.4268 74.4642 41.9518C73.1832 41.478 72.1485 40.4184 71.7522 39.0223L70.08 33.148C69.7869 32.2473 69.7519 31.3269 69.9376 30.4675C70.471 27.9756 72.8597 26.3242 75.3993 26.5242L80.8638 26.9538C81.8095 27.0288 82.6455 26.3451 82.757 25.4056L82.7993 19.8664C82.8058 18.8206 84.2521 18.5534 84.6328 19.5291L84.8132 19.9924C84.5327 20.1394 84.3231 20.4251 84.3206 20.8207L84.2783 26.3599C84.1668 27.2994 83.3308 27.9831 82.3851 27.9081L76.9206 27.4785C74.381 27.2786 71.9924 28.9299 71.4589 31.4218C71.2732 32.2812 71.3082 33.2017 71.6014 34.1023L73.2735 39.9767Z" fill="white"/>
</g>
<path d="M75.8435 42.5807C73.5875 42.581 71.5459 41.0838 70.9133 38.8569L69.2448 32.9953C68.9259 32.0074 68.8716 30.957 69.0877 29.9567C69.6867 27.1583 72.3552 25.221 75.3018 25.4536L80.7664 25.8831C81.3241 25.9277 81.8089 25.5394 81.8914 24.9955L81.9333 19.5008C81.9383 18.6933 82.4971 18.0259 83.2921 17.8788C84.088 17.7329 84.8491 18.1555 85.1433 18.91L89.0121 28.8137C89.4901 29.9454 89.4453 31.2428 88.8821 32.3555C88.3193 33.4675 87.301 34.2712 86.0884 34.5608L80.9059 35.7969L80.981 36.0701C81.3668 37.4796 81.132 38.9901 80.3372 40.2153C79.5427 41.4399 78.2595 42.2695 76.817 42.4911L76.6238 42.521C76.3621 42.5613 76.1013 42.5807 75.8435 42.5807ZM74.8242 26.8602C72.7384 26.8602 70.9069 28.2679 70.4812 30.2565C70.3168 31.0165 70.3595 31.815 70.6043 32.5672C70.6071 32.5757 70.6097 32.5841 70.612 32.5926L72.2844 38.4671C72.7934 40.2587 74.5642 41.3946 76.4067 41.1123L76.6 41.0824C77.6417 40.9223 78.5679 40.3236 79.1415 39.4396C79.7155 38.5549 79.885 37.4643 79.6066 36.4472L79.336 35.4638C79.2847 35.2775 79.3114 35.0783 79.4097 34.912C79.5081 34.7457 79.6698 34.6265 79.8579 34.5816L85.7574 33.1745C86.5618 32.9825 87.2371 32.4493 87.6104 31.7119C87.984 30.9737 88.0137 30.1129 87.6918 29.35L83.8157 19.4283C83.7682 19.3063 83.6787 19.2574 83.5514 19.2805C83.4242 19.3039 83.3595 19.3814 83.3586 19.5107L83.3163 25.0507C83.3161 25.0771 83.3144 25.1033 83.3114 25.1294C83.1541 26.4543 81.9876 27.4112 80.6542 27.304L75.1901 26.8745C75.0674 26.8648 74.9455 26.8602 74.8242 26.8602Z" fill="#5E2323"/>
<path d="M80.1899 35.9677L76.056 36.2207L79.8593 34.5812C80.2263 34.4231 80.6519 34.5923 80.81 34.9592C80.9682 35.3261 80.799 35.7517 80.4321 35.91C80.354 35.9436 80.2702 35.9624 80.1899 35.9677Z" fill="#5E2323"/>
<path d="M70.028 33.6333C69.799 33.6333 69.5832 33.4946 69.4959 33.2683C69.4574 33.1684 69.4214 33.0702 69.3883 32.9734C69.2858 32.6757 69.4444 32.3513 69.742 32.2489C70.04 32.1467 70.3643 32.305 70.4665 32.6028C70.4954 32.6863 70.5261 32.7714 70.5595 32.8577C70.673 33.1514 70.5268 33.4815 70.2331 33.5949C70.1655 33.6209 70.0962 33.6333 70.028 33.6333Z" fill="#5E2323"/>
<g opacity="0.2">
<path d="M78.2352 29.5046C78.5547 30.2149 77.445 30.596 76.1305 31.1872C74.8162 31.7785 73.7948 32.356 73.4753 31.6457C73.1558 30.9354 73.9623 29.8802 75.2767 29.289C76.5911 28.6978 77.9157 28.7943 78.2352 29.5046Z" fill="white"/>
</g>
<path d="M23.8728 18.7538C23.0377 17.7717 23.1175 16.254 24.0518 15.3662C24.8124 14.6433 25.9013 14.4998 26.7911 14.9094C26.9686 14.9909 27.1482 14.8283 27.0826 14.6454C26.7619 13.7132 27.0174 12.6362 27.8202 11.9557C28.8445 11.0865 30.4363 11.2183 31.3055 12.2425C31.9077 12.9547 32.0396 13.9119 31.7223 14.7296C31.4884 15.3334 31.6499 16.0216 32.084 16.5014L34.1499 18.784L30.3454 22.227L28.3427 20.0141C27.8837 19.5069 27.1699 19.2916 26.5195 19.5034C25.5985 19.8025 24.5436 19.5461 23.8728 18.7538Z" fill="white"/>
<path d="M30.3375 22.3897L28.2576 20.0916C27.8194 19.6071 27.1519 19.4193 26.5552 19.6131C25.5518 19.9392 24.4648 19.631 23.7855 18.8287C22.9121 17.8016 22.9962 16.2111 23.9728 15.2832C24.7469 14.5475 25.8718 14.3601 26.8394 14.8054C26.88 14.8237 26.9219 14.8189 26.9516 14.7912C26.9655 14.7785 26.9955 14.7427 26.9746 14.6847C26.6245 13.6672 26.9275 12.5622 27.7462 11.8683C28.8151 10.9608 30.4852 11.0988 31.3935 12.1685C32.0051 12.8918 32.1723 13.8891 31.8298 14.7715C31.6193 15.315 31.7525 15.9639 32.1694 16.4246L34.3125 18.7925L30.3375 22.3897ZM27.032 19.3079C27.5486 19.3079 28.0601 19.5306 28.4283 19.9373L30.3535 22.0651L33.9875 18.7763L31.999 16.5788C31.5243 16.0543 31.3736 15.3123 31.6154 14.6884C31.9273 13.8844 31.775 12.976 31.2181 12.3171C30.391 11.3426 28.8693 11.2168 27.8948 12.0436C27.149 12.6758 26.8729 13.6825 27.1916 14.6085C27.2371 14.7353 27.205 14.8708 27.1072 14.9606C27.0081 15.0514 26.8691 15.072 26.7434 15.0143C25.8616 14.6081 24.8363 14.7795 24.1313 15.4498C23.2416 16.2952 23.1651 17.7441 23.9606 18.6797C24.5797 19.4105 25.5711 19.6911 26.4842 19.3944C26.6633 19.3361 26.8481 19.3079 27.032 19.3079Z" fill="#5E2323"/>
<g opacity="0.3">
<path d="M31.3057 12.2436C31.9084 12.9563 32.04 13.9137 31.7215 14.7295C31.4873 15.3342 31.6486 16.0222 32.0849 16.5029L34.1504 18.7847L32.7334 20.0668L30.6917 17.8102C30.2555 17.3296 30.0943 16.6416 30.3288 16.0397C30.6468 15.221 30.5153 14.2636 29.9125 13.551C29.2304 12.7491 28.104 12.4934 27.1558 12.8454C27.303 12.5127 27.5262 12.2064 27.8207 11.9558C28.8462 11.0883 30.4353 11.2186 31.3057 12.2436Z" fill="#5E2323"/>
</g>
<path d="M30.3454 22.9404C30.3335 22.9404 30.3217 22.9401 30.3098 22.9395C30.1211 22.9301 29.9436 22.8461 29.8169 22.7059L27.8143 20.4929C27.5336 20.183 27.1121 20.0606 26.7402 20.1817C25.5037 20.5832 24.1658 20.2033 23.3289 19.215C22.2547 17.9504 22.3586 15.9927 23.5608 14.8502C24.2927 14.1547 25.2798 13.857 26.2385 14.0059C26.1845 13.0262 26.5842 12.0698 27.3594 11.4127C28.6752 10.2961 30.7315 10.4653 31.8488 11.7821C32.6027 12.6734 32.8084 13.9014 32.3866 14.9881C32.2572 15.3224 32.3458 15.7291 32.6124 16.0237L34.6781 18.3065C34.9423 18.5983 34.9198 19.049 34.628 19.3131L30.8236 22.7561C30.6921 22.8749 30.5216 22.9404 30.3454 22.9404ZM27.0313 18.7105C27.7138 18.7105 28.3877 19.0025 28.871 19.5366L30.3956 21.2211L33.1431 18.7345L31.5557 16.9802C30.9306 16.2897 30.7352 15.3054 31.0578 14.4727C31.2906 13.8727 31.1771 13.1949 30.7615 12.7035C30.1441 11.9763 29.0081 11.8826 28.2813 12.4997C27.7245 12.9716 27.5187 13.723 27.7565 14.4143C27.8802 14.7587 27.7851 15.1496 27.5111 15.4012C27.236 15.6537 26.8366 15.7149 26.4941 15.5579C25.8351 15.2547 25.0696 15.3823 24.5428 15.8833C23.8791 16.5139 23.8222 17.5948 24.4156 18.2929C24.4161 18.2932 24.4163 18.2936 24.4167 18.294C24.8781 18.839 25.6169 19.0476 26.2994 18.8263C26.5387 18.7483 26.7857 18.7105 27.0313 18.7105Z" fill="#5E2323"/>
<path d="M32.3418 26.542L30.368 24.361C29.7759 23.7067 29.8263 22.6964 30.4806 22.1043L34.0293 18.8927C34.6835 18.3006 35.694 18.351 36.286 19.0052L38.2598 21.1863C39.1218 22.1387 40.296 22.7334 41.5657 22.9286C48.0173 23.9205 54.5966 29.7158 53.8091 36.4728C53.3437 40.4671 50.0262 43.4695 46.0053 43.5352C39.2035 43.6464 34.0917 36.5231 33.7466 30.0048C33.6787 28.722 33.2038 27.4945 32.3418 26.542Z" fill="#E36836"/>
<g opacity="0.3">
<path d="M36.2871 19.0053L38.2633 21.1878C39.1256 22.139 40.2989 22.7336 41.569 22.9279C48.0206 23.9194 54.5994 29.7149 53.8115 36.4739C53.4874 39.2583 51.776 41.5601 49.4076 42.7193C50.0913 41.8212 50.5937 40.7652 50.8516 39.5952C52.3193 32.9528 46.3618 26.5217 40.0426 24.88C38.7999 24.5578 37.6932 23.8469 36.9309 22.8119L35.1895 20.4422C34.6674 19.7293 33.6655 19.5764 32.9557 20.1009L31.5797 21.1119L34.032 18.8918C34.6858 18.3005 35.6958 18.3514 36.2871 19.0053Z" fill="#5E2323"/>
</g>
<g opacity="0.55">
<path d="M31.3749 21.5755C31.0175 22.1637 31.0705 22.9396 31.5554 23.4764L33.5283 25.6566C34.3911 26.6107 34.8675 27.8373 34.9344 29.1211C35.1635 33.4609 37.5094 38.0699 41.0566 40.6332C42.086 40.2059 43.7405 40.5658 43.9629 42.1437C44.9841 42.4868 46.065 42.6685 47.1918 42.6504C49.1263 42.6207 50.9005 41.9087 52.2695 40.7316C50.8297 42.429 48.6928 43.4967 46.3132 43.5368C39.5126 43.6451 34.4018 36.5226 34.0555 30.0046C33.9885 28.7209 33.5121 27.4942 32.6496 26.5429L30.6764 24.36C30.0852 23.7061 30.1361 22.6961 30.7899 22.1049L31.3749 21.5755Z" fill="white"/>
</g>
<path d="M45.8526 44.2492C38.7351 44.2492 33.3957 36.8031 33.0378 30.0426C32.9772 28.8971 32.5435 27.8238 31.8162 27.0202L29.8425 24.8393C28.9877 23.8946 29.0608 22.4306 30.0053 21.5759L33.5539 18.3644C34.0115 17.9502 34.603 17.7396 35.2194 17.7699C35.8356 17.8006 36.4031 18.0695 36.8173 18.5271L38.7909 20.7082C39.5181 21.5114 40.5431 22.05 41.6769 22.2244C48.4205 23.2611 55.3536 29.4016 54.5201 36.5553C54.0173 40.8697 50.3631 44.1768 46.0198 44.2478C45.9639 44.2487 45.9082 44.2492 45.8526 44.2492ZM35.1033 19.1923C34.8833 19.1923 34.6744 19.2726 34.5102 19.4212L30.9617 22.6328C30.5998 22.9602 30.5718 23.521 30.8994 23.8829L32.8729 26.0639C33.8193 27.1096 34.3833 28.4958 34.4611 29.9673C34.7848 36.0846 39.5321 42.8236 45.8509 42.8239C45.8996 42.8239 45.9477 42.8235 45.9964 42.8227C49.6878 42.7624 52.6768 40.0572 53.1043 36.3903C53.8442 30.0411 47.5615 24.5711 41.4604 23.633C40.0038 23.409 38.6804 22.71 37.7342 21.6646L35.7604 19.4835C35.6016 19.3082 35.3845 19.2052 35.1483 19.1935C35.1333 19.1927 35.1183 19.1923 35.1033 19.1923Z" fill="#5E2323"/>
<g opacity="0.2">
<path d="M38.6077 31.2936C39.3657 30.6097 40.2868 31.8414 41.5523 33.2441C42.8179 34.6468 43.9486 35.6894 43.1905 36.3733C42.4325 37.0571 40.7921 36.4744 39.5266 35.0717C38.2611 33.669 37.8497 31.9776 38.6077 31.2936Z" fill="white"/>
</g>
<path d="M30.9964 35.9991C30.9964 34.5822 32.145 33.4335 33.5619 33.4335H85.6328C87.0497 33.4335 88.1983 34.5822 88.1983 35.9991C88.1983 37.416 87.0497 38.5646 85.6328 38.5646H33.5619C32.145 38.5646 30.9964 37.416 30.9964 35.9991Z" fill="#FFBF00"/>
<g opacity="0.3">
<path d="M88.1995 35.9981C88.1995 36.7079 87.9116 37.3464 87.4469 37.8111C86.9823 38.2757 86.3437 38.5636 85.6339 38.5636H78.2994C79.0063 38.5636 79.6506 38.2757 80.1123 37.8111C80.577 37.3464 80.8649 36.7079 80.8649 35.9981C80.8649 34.5813 79.7161 33.4326 78.2994 33.4326H85.6339C87.0507 33.4326 88.1995 34.5813 88.1995 35.9981Z" fill="#5E2323"/>
</g>
<g opacity="0.55">
<path d="M36.1314 38.5636H33.5659C32.149 38.5636 31.0003 37.4148 31.0003 35.9981C31.0003 35.2883 31.2883 34.6498 31.7529 34.1851C32.2174 33.7205 32.856 33.4326 33.5659 33.4326H36.1314C35.4216 33.4326 34.783 33.7205 34.3184 34.1851C33.8537 34.6498 33.5659 35.2883 33.5659 35.9981C33.5659 37.4148 34.7146 38.5636 36.1314 38.5636Z" fill="white"/>
</g>
<path d="M85.6329 39.2773H33.5621C31.7544 39.2773 30.2838 37.8067 30.2838 35.9992C30.2838 34.1916 31.7544 32.721 33.5621 32.721H85.6329C87.4405 32.721 88.9111 34.1916 88.9111 35.9992C88.9111 37.8067 87.4405 39.2773 85.6329 39.2773ZM33.5621 34.1463C32.5403 34.1463 31.7092 34.9775 31.7092 35.9992C31.7092 37.0208 32.5403 37.852 33.5621 37.852H85.6329C86.6547 37.852 87.4858 37.0208 87.4858 35.9992C87.4858 34.9775 86.6547 34.1463 85.6329 34.1463H33.5621Z" fill="#5E2323"/>
<path d="M85.7306 38.5644L83.9433 56.7084L82.7004 69.3195L81.449 82.0245L80.1349 95.3511C79.8327 98.4326 77.2387 100.781 74.1429 100.781H45.1524C42.0538 100.781 39.4597 98.4326 39.1575 95.3511L36.8457 71.8907L35.6 59.2369L33.5647 38.5644H85.7306Z" fill="#E93B47"/>
<path d="M83.9438 56.7081L82.701 69.3191L81.7147 68.9713L72.4701 72.3921L63.2257 68.9713L53.9812 72.3921L44.7396 68.9713L36.8463 71.8903L35.6006 59.2365L44.7339 55.8586L53.9784 59.2794L63.2228 55.8586L72.4644 59.2794L81.7118 55.8586L83.9438 56.7081Z" fill="#FFBF00"/>
<g opacity="0.3">
<path d="M85.7306 38.5644L85.4056 41.8682L81.449 82.0245L80.1349 95.3511C79.8327 98.4326 77.2387 100.781 74.1429 100.781H51.7544C64.1459 100.117 72.6065 95.314 73.9633 83.0365L76.9336 52.8858C77.5522 46.6087 72.843 41.0672 66.5489 40.6652L33.5647 38.5644H85.7306Z" fill="#5E2323"/>
</g>
<g opacity="0.55">
<path d="M47.2419 100.781H45.1524C42.0538 100.781 39.4597 98.4326 39.1575 95.3511L33.5647 38.5644H35.6542L41.247 95.3511C41.5521 98.4326 44.1433 100.781 47.2419 100.781Z" fill="white"/>
</g>
<path d="M74.1427 101.495H45.1526C41.6723 101.495 38.7904 98.8827 38.4493 95.4191L32.8556 38.6343C32.8359 38.4341 32.9017 38.2348 33.0366 38.0859C33.1718 37.9368 33.3635 37.8518 33.5647 37.8518H85.7306C85.9319 37.8518 86.1236 37.9368 86.2587 38.0859C86.3937 38.2348 86.4595 38.4341 86.4398 38.6343L80.8462 95.4191C80.5051 98.8827 77.6232 101.495 74.1427 101.495ZM34.351 39.2771L39.8676 95.2794C40.1367 98.0101 42.4087 100.069 45.1526 100.069H74.1427C76.8867 100.069 79.1587 98.0101 79.4278 95.2794L84.9443 39.2771H34.351Z" fill="#5E2323"/>
<path d="M28.4739 74.1902L23.9801 73.9715L25.1206 52.3152C25.1552 51.6048 25.7591 51.0569 26.4695 51.0915L28.3906 51.185C29.1011 51.2195 29.649 51.8234 29.6143 52.5339L28.4739 74.1902Z" fill="#FEC828"/>
<g opacity="0.3">
<path d="M29.793 52.5543L28.6526 74.2082L24.1605 73.991L24.1649 73.9004L26.972 74.0358L27.77 59.413L27.9137 56.4731L28.1125 52.3819C28.1385 51.8354 27.8264 51.3538 27.3596 51.1457L28.5691 51.2039C29.2807 51.2396 29.8287 51.8427 29.793 52.5543Z" fill="#5E2323"/>
</g>
<g opacity="0.55">
<path d="M26.3564 52.6051L25.2266 74.0322L23.9804 73.9723L25.1206 52.3164C25.1548 51.6047 25.7578 51.0582 26.4695 51.0925L28.3888 51.1859C28.6627 51.1978 28.9113 51.2978 29.1124 51.4511L27.7053 51.3811C26.9969 51.3472 26.3937 51.8937 26.3564 52.6051Z" fill="white"/>
</g>
<path d="M28.4756 74.8024C28.4657 74.8024 28.4557 74.8022 28.4456 74.8017L23.9519 74.5832C23.7892 74.5753 23.6364 74.5029 23.5275 74.3822C23.4184 74.2614 23.3616 74.1023 23.3705 73.9397L24.5109 52.2834C24.5354 51.779 24.756 51.3121 25.1318 50.9712C25.5077 50.63 25.9945 50.4558 26.5006 50.4805L28.4217 50.574C29.4681 50.6251 30.2779 51.5178 30.227 52.564L29.0863 74.2226C29.0692 74.5491 28.7991 74.8024 28.4756 74.8024ZM24.6249 73.3905L27.8961 73.5496L29.0047 52.5021C29.0226 52.1323 28.7345 51.8147 28.3621 51.7966L26.4412 51.7031C26.2575 51.6939 26.0876 51.7564 25.954 51.8776C25.8204 51.9989 25.742 52.165 25.7332 52.3453L24.6249 73.3905Z" fill="#5E2323"/>
<path d="M22.35 73.7128L17.8835 74.2532L15.3647 52.7137C15.2792 52.0077 15.7824 51.366 16.4885 51.2805L18.3981 51.0495C19.1041 50.964 19.7458 51.4672 19.8312 52.1733L22.35 73.7128Z" fill="#FEC828"/>
<g opacity="0.3">
<path d="M20.0113 52.1628L22.5298 73.7L18.0651 74.2416L18.0542 74.1516L20.8441 73.8128L19.1709 59.2641L18.8179 56.3419L18.3256 52.2756C18.2594 51.7325 17.8708 51.3102 17.3755 51.1837L18.5776 51.0376C19.285 50.9531 19.9268 51.4554 20.0113 52.1628Z" fill="#5E2323"/>
</g>
<g opacity="0.55">
<path d="M16.6316 52.7918L19.1226 74.1037L17.8839 74.2541L15.3649 52.7151C15.2789 52.0078 15.7814 51.3676 16.4887 51.2816L18.3963 51.0509C18.6683 51.0166 18.9302 51.0733 19.1542 51.1907L17.7554 51.3584C17.0513 51.4441 16.5488 52.0843 16.6316 52.7918Z" fill="white"/>
</g>
<path d="M17.881 74.8655C17.7444 74.8655 17.611 74.8198 17.5024 74.7343C17.3746 74.6337 17.2921 74.4863 17.2733 74.3246L14.7544 52.785C14.629 51.7476 15.3726 50.7991 16.4127 50.6734L18.3221 50.4423C19.3618 50.3156 20.3104 51.0601 20.4365 52.1L22.9555 73.6421C22.9948 73.9767 22.7558 74.2802 22.4211 74.3206L17.9545 74.861C17.93 74.864 17.9056 74.8655 17.881 74.8655ZM18.5508 51.6525C18.5238 51.6525 18.4965 51.6541 18.4689 51.6573L16.5595 51.8884C16.1897 51.9332 15.9251 52.2706 15.9699 52.6406L18.4176 73.5722L21.6691 73.1788L19.221 52.2447C19.1799 51.9045 18.8875 51.6525 18.5508 51.6525Z" fill="#5E2323"/>
<path d="M37.8694 63.8417L33.412 63.2309L35.4882 48.0804C35.5848 47.3758 36.2344 46.8828 36.939 46.9794L38.8447 47.2405C39.5493 47.3371 40.0423 47.9866 39.9457 48.6913L37.8694 63.8417Z" fill="#FEC828"/>
<g opacity="0.3">
<path d="M38.0479 63.8764L33.5921 63.2658L33.6028 63.1761L36.3882 63.5574L37.5084 55.3814C36.986 54.301 37.1093 53.3281 37.9078 52.4676L38.4641 48.4073C38.5384 47.8675 38.2687 47.36 37.8217 47.1102L39.0225 47.2755C39.7285 47.3719 40.2202 48.0203 40.1239 48.7263L38.0479 63.8764Z" fill="#6B184E"/>
<path d="M38.1444 64.0062L33.4629 63.3647L33.5004 63.0466L36.288 63.4281L37.3882 55.4001C36.8647 54.2937 37.0023 53.2903 37.797 52.4166L38.3482 48.392C38.4146 47.9099 38.1852 47.4464 37.7638 47.2109L37.2318 46.9135L39.0361 47.1618C39.4081 47.2125 39.7376 47.4047 39.9639 47.703C40.1901 48.0012 40.2868 48.3702 40.2361 48.7421L38.1444 64.0062ZM36.5035 63.5492L37.9477 63.7471L40.0081 48.711C40.0507 48.3999 39.9698 48.0913 39.7808 47.842C39.5917 47.5928 39.3161 47.4321 39.005 47.3897L38.2215 47.2818C38.4999 47.5828 38.6349 47.9971 38.5761 48.4233L38.0149 52.5194L37.9902 52.546C37.2263 53.3694 37.1018 54.2805 37.6103 55.3316L37.6255 55.3628L36.5035 63.5492Z" fill="#5E2323"/>
</g>
<g opacity="0.55">
<path d="M36.6937 48.4773L34.6483 63.4005L33.412 63.2317L35.488 48.0816C35.5843 47.3756 36.2328 46.884 36.9388 46.9803L38.8425 47.2413C39.1143 47.2772 39.3533 47.3985 39.5402 47.5688L38.1446 47.376C37.4418 47.2803 36.7932 47.772 36.6937 48.4773Z" fill="white"/>
</g>
<path d="M37.8677 64.454C37.8401 64.454 37.812 64.4521 37.7837 64.4482L33.3261 63.8374C33.1654 63.8154 33.0201 63.7303 32.9219 63.6011C32.8239 63.4718 32.7809 63.3088 32.803 63.148L34.8792 47.9975C35.0218 46.9597 35.9836 46.2313 37.0192 46.3732L38.9253 46.6345C39.9628 46.7766 40.6916 47.7365 40.5495 48.7744L38.4732 63.925C38.4311 64.2317 38.1686 64.454 37.8677 64.454ZM34.0988 62.7078L37.3438 63.1525L39.3368 48.6084C39.3873 48.2392 39.1282 47.8977 38.759 47.8471L36.8531 47.5859C36.484 47.5345 36.1424 47.7944 36.0919 48.1638L34.0988 62.7078Z" fill="#5E2323"/>
<path d="M24.7147 73.1705L20.2222 73.4119L19.4015 58.1419C19.3634 57.4318 19.9081 56.8251 20.6183 56.7869L22.539 56.6837C23.2492 56.6455 23.856 57.1903 23.894 57.9005L24.7147 73.1705Z" fill="#FEC828"/>
<g opacity="0.3">
<path d="M24.8954 73.1712L20.4045 73.4126L20.398 73.3225L23.2053 73.1712L22.7622 64.9307C22.0452 63.9683 21.9827 62.9896 22.6043 61.994L22.3843 57.9016C22.3553 57.3574 21.9948 56.91 21.5087 56.749L22.7192 56.6847C23.4307 56.646 24.0359 57.1901 24.0745 57.9016L24.8954 73.1712Z" fill="#5E2323"/>
</g>
<g opacity="0.55">
<path d="M20.6604 58.3043L21.4684 73.3453L20.2225 73.4128L19.4016 58.1433C19.363 57.4318 19.907 56.8266 20.6185 56.7879L22.5372 56.685C22.8109 56.6688 23.0684 56.7428 23.2842 56.8748L21.8773 56.9489C21.169 56.9876 20.625 57.5928 20.6604 58.3043Z" fill="white"/>
</g>
<path d="M20.2231 74.0244C19.9002 74.0244 19.63 73.7716 19.6125 73.4452L18.7917 58.1752C18.7644 57.6685 18.9362 57.1814 19.2752 56.8039C19.6144 56.4263 20.0802 56.2034 20.5871 56.1762L22.5074 56.0731C23.0151 56.0445 23.501 56.2172 23.8788 56.5565C24.2563 56.8955 24.4794 57.3614 24.5065 57.8682L25.3272 73.1382C25.336 73.3002 25.2801 73.4591 25.1715 73.5799C25.063 73.7006 24.9111 73.7734 24.7491 73.7821L20.2565 74.0234C20.2452 74.0241 20.2342 74.0244 20.2231 74.0244ZM22.6102 57.2942C22.5979 57.2942 22.5855 57.2945 22.5732 57.2952L20.6526 57.3984C20.4723 57.4082 20.3065 57.4874 20.1859 57.6218C20.0654 57.7561 20.0041 57.9293 20.0139 58.1096L20.8017 72.7685L24.0722 72.5927L23.2843 57.9338C23.2746 57.7534 23.1953 57.5878 23.061 57.4672C22.936 57.3549 22.7772 57.2942 22.6102 57.2942Z" fill="#5E2323"/>
<path d="M32.1065 79.8255L27.6332 79.3443L30.039 57.7918C30.115 57.0847 30.75 56.5731 31.4571 56.6491L33.3695 56.8549C34.0767 56.9309 34.5883 57.5659 34.5122 58.2731L32.1065 79.8255Z" fill="#FEC828"/>
<g opacity="0.3">
<path d="M34.6907 58.3047L32.2851 79.8547L27.8133 79.375L27.823 79.2849L30.6174 79.5842L32.2697 65.0333L32.5852 62.1068L33.023 58.0343C33.081 57.4902 32.7976 56.9912 32.3438 56.7562L33.5478 56.8849C34.2562 56.9621 34.768 57.5964 34.6907 58.3047Z" fill="#5E2323"/>
</g>
<g opacity="0.55">
<path d="M31.2554 58.1536L28.8739 79.4779L27.6332 79.3451L30.0388 57.793C30.1146 57.0846 30.7486 56.5744 31.457 56.6501L33.3676 56.8558C33.6402 56.8836 33.8826 56.998 34.0744 57.1628L32.6738 57.0106C31.9685 56.9353 31.3345 57.4456 31.2554 58.1536Z" fill="white"/>
</g>
<path d="M32.1085 80.4379C32.0865 80.4379 32.0647 80.4367 32.0424 80.4343L27.5691 79.9531C27.4073 79.9356 27.259 79.8545 27.1572 79.7276C27.0552 79.6008 27.0083 79.4385 27.0262 79.2767L29.4319 57.7243C29.4859 57.2221 29.7334 56.769 30.1286 56.4506C30.5237 56.1322 31.0208 55.9868 31.5238 56.041L33.4361 56.2468C34.4778 56.3589 35.234 57.2973 35.1221 58.3388L32.716 79.8937C32.6812 80.2064 32.4162 80.4379 32.1085 80.4379ZM28.3107 78.8019L31.5672 79.1522L33.9053 58.2055C33.9449 57.8375 33.6759 57.5036 33.3053 57.4637L31.393 57.2581C31.2132 57.2385 31.0371 57.2904 30.8964 57.4037C30.7559 57.5169 30.6679 57.6781 30.6487 57.8577L28.3107 78.8019Z" fill="#5E2323"/>
<path d="M44.9913 75.1625L40.518 74.6812L42.9238 53.1289C42.9999 52.4217 43.6348 51.9101 44.342 51.9862L46.2544 52.1919C46.9616 52.268 47.4732 52.9029 47.3971 53.6101L44.9913 75.1625Z" fill="#FEC828"/>
<g opacity="0.3">
<path d="M47.5715 53.6407L45.166 75.1908L40.6942 74.7111L40.7038 74.621L43.4983 74.9203L45.1506 60.3693L45.4661 57.4428L45.9039 53.3703C45.9618 52.8262 45.6785 52.3272 45.2246 52.0922L46.4286 52.221C47.1369 52.2983 47.6488 52.9325 47.5715 53.6407Z" fill="#5E2323"/>
</g>
<g opacity="0.55">
<path d="M44.1402 53.4906L41.7587 74.815L40.518 74.6821L42.9235 53.1302C42.9993 52.4216 43.6333 51.9113 44.3418 51.9871L46.2522 52.1928C46.525 52.2207 46.7673 52.335 46.9591 52.4999L45.5585 52.3476C44.8533 52.2724 44.2192 52.7827 44.1402 53.4906Z" fill="white"/>
</g>
<path d="M44.9894 75.774C44.9675 75.774 44.9455 75.7728 44.9232 75.7704L40.4499 75.2892C40.2882 75.2718 40.1399 75.1907 40.0382 75.0638C39.9361 74.9368 39.8891 74.7745 39.9071 74.6128L42.313 53.0605C42.3671 52.5583 42.6146 52.1051 43.0097 51.7867C43.4048 51.4684 43.9015 51.3225 44.4049 51.3772L46.3172 51.5829C47.3587 51.695 48.115 52.6335 48.0029 53.675L45.5969 75.2299C45.562 75.5426 45.2972 75.774 44.9894 75.774ZM41.1917 74.1381L44.4481 74.4883L46.7863 53.5417C46.8258 53.1736 46.5568 52.8397 46.1864 52.7998L44.2741 52.5941C44.0947 52.5743 43.9182 52.6265 43.7776 52.7399C43.6371 52.853 43.5491 53.0143 43.5298 53.1938L41.1917 74.1381Z" fill="#5E2323"/>
<path d="M43.0583 72.2048L38.5615 72.3455L38.0834 57.0609C38.0612 56.35 38.6195 55.7556 39.3303 55.7335L41.2528 55.6733C41.9637 55.6511 42.558 56.2094 42.5802 56.9203L43.0583 72.2048Z" fill="#FEC828"/>
<g opacity="0.3">
<path d="M43.2403 72.2094L38.7449 72.3501L38.7405 72.2598L41.5505 72.1714L41.2924 63.9232C40.5972 62.9449 40.5566 61.965 41.2004 60.9836L41.0723 56.8874C41.0555 56.3427 40.705 55.8872 40.2226 55.7154L41.4343 55.6782C42.1465 55.6555 42.7394 56.2131 42.7619 56.9252L43.2403 72.2094Z" fill="#5E2323"/>
</g>
<g opacity="0.55">
<path d="M39.3383 57.2513L39.8089 72.3067L38.5617 72.3463L38.0835 57.0622C38.0608 56.35 38.6183 55.7572 39.3304 55.7345L41.251 55.6745C41.5249 55.6646 41.7808 55.7444 41.9935 55.8812L40.5854 55.9236C39.8764 55.9464 39.3188 56.5393 39.3383 57.2513Z" fill="white"/>
</g>
<path d="M38.5625 72.9573C38.407 72.9573 38.2571 72.8982 38.1436 72.7914C38.0253 72.6803 37.956 72.5266 37.9508 72.3645L37.473 57.08C37.4572 56.5727 37.6397 56.0898 37.987 55.7198C38.3345 55.3499 38.8051 55.1375 39.3125 55.1216L41.2349 55.0615C41.7361 55.0496 42.2251 55.2283 42.595 55.5757C42.9648 55.9231 43.1773 56.3939 43.1931 56.9011L43.6711 72.1855C43.6819 72.5233 43.4164 72.8058 43.0786 72.8164L38.5816 72.9571C38.5753 72.9572 38.5688 72.9573 38.5625 72.9573ZM41.2947 56.2845C41.2876 56.2845 41.2804 56.2848 41.2731 56.2849L39.3505 56.345C39.1701 56.3507 39.0027 56.4262 38.8793 56.5578C38.7555 56.6894 38.6908 56.8612 38.6964 57.0416L39.1552 71.7146L42.4287 71.6121L41.9696 56.9394C41.964 56.7588 41.8887 56.5913 41.757 56.4679C41.6307 56.3492 41.4674 56.2845 41.2947 56.2845Z" fill="#5E2323"/>
<path d="M36.0714 76.9884L31.6815 76.003L35.031 61.0822C35.1868 60.3883 35.8756 59.952 36.5696 60.1078L38.4464 60.5291C39.1403 60.6848 39.5766 61.3737 39.4207 62.0676L36.0714 76.9884Z" fill="#FEC828"/>
<g opacity="0.3">
<path d="M36.2461 77.0375L31.8577 76.0525L31.8758 75.9639L34.6191 76.5793L36.4266 68.5272C35.9972 67.4065 36.2023 66.4475 37.0707 65.6576L37.9683 61.6589C38.0878 61.1274 37.8621 60.5989 37.4378 60.3121L38.6204 60.5783C39.3157 60.734 39.7508 61.4219 39.5951 62.117L36.2461 77.0375Z" fill="#6B184E"/>
<path d="M36.3314 77.1752L31.7207 76.1402L31.7853 75.8266L34.5304 76.4422L36.3051 68.536C35.877 67.3894 36.0989 66.4012 36.9647 65.5976L37.8544 61.634C37.9612 61.1593 37.7716 60.678 37.3717 60.4077L36.8663 60.0664L38.6439 60.4664C39.01 60.5484 39.3219 60.7678 39.5224 61.0841C39.7225 61.4003 39.7876 61.7762 39.7055 62.1426L36.3314 77.1752ZM34.7349 76.5813L36.1572 76.9005L39.4812 62.0923C39.5499 61.7859 39.4955 61.4716 39.328 61.2072C39.1606 60.9428 38.8997 60.7595 38.5936 60.6909L37.8219 60.5172C38.0738 60.8406 38.1732 61.2649 38.0787 61.6845L37.1731 65.7186L37.1463 65.743C36.3156 66.4989 36.1148 67.3962 36.5324 68.4865L36.5447 68.519L34.7349 76.5813Z" fill="#5E2323"/>
</g>
<g opacity="0.55">
<path d="M36.1986 61.5796L32.8991 76.2766L31.6815 76.0038L35.0306 61.0835C35.1863 60.3882 35.8741 59.9531 36.5695 60.1088L38.4443 60.5298C38.712 60.5884 38.9399 60.7296 39.1117 60.915L37.7374 60.6049C37.0453 60.4502 36.3574 60.8852 36.1986 61.5796Z" fill="white"/>
</g>
<path d="M36.0727 77.6003C36.0279 77.6003 35.983 77.5953 35.9386 77.5854L31.5487 76.5998C31.3903 76.5644 31.2526 76.4673 31.1657 76.3302C31.0789 76.1931 31.0501 76.0272 31.0856 75.8687L34.435 60.9481C34.5462 60.453 34.8436 60.0307 35.2723 59.7592C35.7007 59.4877 36.2088 59.3989 36.705 59.5105L38.5818 59.9319C39.077 60.0429 39.4991 60.3403 39.7705 60.769C40.0421 61.1977 40.1306 61.7065 40.0194 62.2016L36.6699 77.1224C36.6341 77.2807 36.5373 77.4185 36.4002 77.5054C36.3014 77.5678 36.1877 77.6003 36.0727 77.6003ZM32.4138 75.5397L35.6095 76.257L38.825 61.9335C38.8647 61.7573 38.8333 61.5763 38.7366 61.4239C38.6401 61.2713 38.4899 61.1656 38.3136 61.126L36.4368 60.7047C36.2603 60.6648 36.0797 60.6968 35.9271 60.7932C35.7746 60.8898 35.6689 61.04 35.6294 61.2161L32.4138 75.5397Z" fill="#5E2323"/>
<path d="M50.6397 65.9989L48.3121 80.4732L47.4236 85.988L45.2923 99.2391C45.1474 100.157 44.3555 100.829 43.425 100.829H40.4632C40.0801 100.829 39.7067 100.714 39.404 100.482C34.5235 96.744 28.3615 96.9405 23.5099 100.469C23.1944 100.697 22.8209 100.829 22.4314 100.829H19.447C18.5165 100.829 17.7246 100.157 17.5765 99.2391L15.5451 86.6094L14.5246 80.2575L12.2323 65.9989C12.0456 64.8494 12.9342 63.8064 14.0996 63.8064H16.5593C17.1484 63.8064 17.7022 64.0801 18.0594 64.5501C21.4849 69.0412 25.7215 71.6328 31.436 71.4042C37.1698 71.3334 41.3871 69.0412 44.8126 64.5501C45.1667 64.0801 45.7238 63.8064 46.3128 63.8064H48.7725C49.9379 63.8064 50.8265 64.8494 50.6397 65.9989Z" fill="#E93B47"/>
<path d="M48.3129 80.4732L47.4243 85.988L45.8919 85.299L40.3577 88.0066L34.8235 85.299L29.2894 88.0066L23.7553 85.299L18.2179 88.0066L15.5459 86.6094L14.5253 80.2575L18.2179 81.9123L23.7521 79.2047L29.283 81.9123L34.8171 79.2047L40.3545 81.9123L45.8887 79.2047L48.3129 80.4732Z" fill="#FFBB34"/>
<g opacity="0.55">
<path d="M19.4148 99.7669C19.4662 100.082 19.5919 100.369 19.7753 100.607H19.2474C18.317 100.607 17.525 99.9343 17.377 99.0167L12.0327 65.7766C11.846 64.6273 12.7346 63.5842 13.8999 63.5842H16.3596C16.9487 63.5842 17.5024 63.8578 17.8597 64.3279L17.8662 64.3343H15.9378C14.7725 64.3343 13.8838 65.3774 14.0706 66.5267L19.4148 99.7669Z" fill="white"/>
</g>
<g opacity="0.55">
<path d="M49.8515 64.3343H47.923C47.3339 64.3343 46.777 64.608 46.4228 65.078C42.9973 69.569 38.7832 71.8613 33.0462 71.932C30.5125 72.0351 28.2719 71.5812 26.2629 70.654C27.7246 71.0661 29.2988 71.2496 31.0083 71.1819C36.7421 71.1111 40.9594 68.8189 44.3849 64.3279C44.7391 63.8578 45.296 63.5842 45.8852 63.5842H48.3447C48.9661 63.5842 49.5102 63.8803 49.8515 64.3343Z" fill="white"/>
</g>
<path d="M43.425 101.542H40.4632C39.9094 101.542 39.3931 101.371 38.9707 101.048C34.4508 97.5862 28.6871 97.5849 23.9289 101.045C23.48 101.371 22.9625 101.542 22.4313 101.542H19.447C18.1602 101.542 17.0778 100.621 16.8729 99.3528L11.5286 66.1119C11.4063 65.3592 11.6202 64.5929 12.1153 64.0109C12.611 63.4281 13.3342 63.0938 14.0995 63.0938H16.5592C17.3777 63.0938 18.1313 63.4674 18.6267 64.1188C22.1555 68.7455 26.3379 70.8967 31.4073 70.6921C36.8038 70.6237 40.877 68.5349 44.2459 64.118C44.7281 63.4779 45.5019 63.0938 46.3129 63.0938H48.7724C49.5376 63.0938 50.261 63.4281 50.7565 64.0109C51.2515 64.5927 51.4654 65.3587 51.3432 66.1124L45.9958 99.3523C45.7956 100.62 44.7143 101.542 43.425 101.542ZM31.5362 97.0579C34.4577 97.0579 37.3493 98.0108 39.8372 99.9159C40.009 100.047 40.2253 100.117 40.4632 100.117H43.425C44.0086 100.117 44.4979 99.701 44.5882 99.1279L49.936 65.8857L49.9363 65.8846C49.9915 65.5439 49.8949 65.1975 49.6711 64.9343C49.4465 64.6704 49.1189 64.5192 48.7724 64.5192H46.3129C45.9469 64.5192 45.5988 64.6911 45.3819 64.979C41.723 69.776 37.2952 72.043 31.445 72.1167C31.2032 72.1265 30.9629 72.1314 30.725 72.1314C25.4974 72.1317 21.158 69.7876 17.4929 64.9824C17.2689 64.6877 16.9288 64.5192 16.5592 64.5192H14.0995C13.7529 64.5192 13.4253 64.6704 13.2008 64.9343C12.977 65.1975 12.8804 65.5439 12.9356 65.8846L18.28 99.1261C18.3727 99.7 18.8635 100.117 19.447 100.117H22.4313C22.6601 100.117 22.8886 100.039 23.0915 99.8919C25.6895 98.0024 28.6277 97.0579 31.5362 97.0579Z" fill="#5E2323"/>
<g opacity="0.3">
<path d="M50.6557 65.503C50.6492 65.4419 50.6395 65.3775 50.6267 65.3195C50.617 65.2584 50.6009 65.2004 50.5816 65.1457C50.5816 65.1392 50.5816 65.136 50.5783 65.1296C50.5623 65.0749 50.5397 65.0201 50.5171 64.9654C50.4978 64.9171 50.4753 64.8688 50.4496 64.8205C50.134 64.2218 49.5095 63.8064 48.7723 63.8064H46.3126C46.0712 63.8064 45.8329 63.8515 45.6139 63.9448C46.406 64.2603 46.9244 65.0974 46.7762 65.9989L43.6583 85.3746C42.4639 91.1068 40.1543 94.3663 36.8293 95.3742C35.7344 95.706 34.5729 95.7106 33.442 95.5368C30.0397 95.0139 26.5221 95.9182 23.5098 98.1091C23.1942 98.3376 22.8208 98.4696 22.4313 98.4696H19.4468C18.5164 98.4696 17.7244 97.7967 17.5764 96.8793L12.4222 64.8205C12.2386 65.1683 12.1646 65.5771 12.2321 65.9989L17.5764 99.2391C17.7244 100.157 18.5164 100.829 19.4468 100.829H22.4313C22.8208 100.829 23.1942 100.697 23.5098 100.469C28.3613 96.9405 34.5232 96.744 39.4038 100.482C39.5873 100.623 39.7966 100.72 40.0156 100.775C40.0703 100.788 40.1249 100.8 40.183 100.807C40.228 100.817 40.2731 100.82 40.3213 100.823C40.3665 100.826 40.4147 100.829 40.4631 100.829H43.4249C44.3553 100.829 45.1473 100.157 45.2921 99.2391L50.6395 65.9989C50.6557 65.8957 50.6653 65.7928 50.6653 65.6897C50.6653 65.6254 50.662 65.5642 50.6557 65.503Z" fill="#5E2323"/>
</g>
<path d="M89.1209 57.7501C89.1209 56.8055 89.8866 56.0397 90.8312 56.0397H122.093C123.037 56.0397 123.803 56.8055 123.803 57.7501C123.803 58.6947 123.037 59.4604 122.093 59.4604H90.8312C89.8866 59.4604 89.1209 58.6947 89.1209 57.7501Z" fill="#FFBF00"/>
<g opacity="0.3">
<path d="M123.804 57.7139V57.7852C123.804 58.7117 123.054 59.4613 122.127 59.4613H115.192C116.116 59.4613 116.865 58.7117 116.865 57.7852V57.7139C116.865 56.7903 116.116 56.0407 115.192 56.0407H122.127C123.054 56.0407 123.804 56.7903 123.804 57.7139Z" fill="#5E2323"/>
</g>
<path d="M107.921 53.2371L104.253 52.7143L106.267 40.196C106.371 39.4621 106.904 38.861 107.62 38.6683L118.656 35.6969C119.554 35.455 120.478 35.9871 120.72 36.8854L120.808 37.211C121.05 38.1092 120.517 39.0333 119.619 39.2751L109.763 41.9287L107.921 53.2371Z" fill="white"/>
<path d="M108.016 53.3671L104.12 52.8118L106.153 40.1779C106.263 39.3995 106.827 38.7626 107.589 38.5575L118.625 35.5861C119.582 35.3281 120.572 35.8977 120.83 36.8558L120.918 37.1814C121.176 38.1393 120.606 39.1284 119.648 39.3864L109.864 42.0208L108.016 53.3671ZM104.384 52.6173L107.825 53.1077L109.661 41.8373L119.588 39.1644C120.424 38.9394 120.921 38.0766 120.696 37.2411L120.608 36.9156C120.383 36.0802 119.521 35.5834 118.685 35.8081L107.649 38.7796C106.976 38.9606 106.478 39.5231 106.38 40.2125L104.384 52.6173Z" fill="#5E2323"/>
<g opacity="0.3">
<path d="M120.808 37.2116L120.72 36.886C120.544 36.2334 120.008 35.7758 119.383 35.6662L119.428 35.832C119.67 36.73 119.138 37.6542 118.24 37.896L109.276 40.3094C108.733 40.4557 108.325 40.9067 108.235 41.4622L106.542 51.8581L104.439 51.5584L104.253 52.7148L107.921 53.2377L109.763 41.9293L119.619 39.2757C120.518 39.0339 121.05 38.1097 120.808 37.2116Z" fill="#5E2323"/>
</g>
<path d="M107.922 53.95C107.889 53.95 107.855 53.9477 107.821 53.9428L104.153 53.42C103.963 53.393 103.793 53.2911 103.679 53.1371C103.566 52.9832 103.519 52.7901 103.549 52.6013L105.564 40.083C105.706 39.0781 106.441 38.2477 107.434 37.9804L118.471 35.0089C119.747 34.6653 121.065 35.424 121.408 36.7003L121.496 37.0262C121.839 38.3021 121.081 39.6198 119.805 39.9634L110.393 42.4975L108.625 53.3518C108.568 53.7009 108.266 53.95 107.922 53.95ZM105.072 52.1114L107.33 52.4332L109.06 41.8144C109.105 41.538 109.308 41.3136 109.578 41.2407L119.434 38.5871C119.951 38.4479 120.259 37.9137 120.12 37.3963L120.032 37.0706C119.893 36.5534 119.358 36.2451 118.841 36.3852L107.805 39.3567C107.364 39.4754 107.037 39.8443 106.973 40.2966L105.072 52.1114Z" fill="#5E2323"/>
<path d="M118.364 51.9542H94.5625C93.6627 51.9542 92.8861 52.5851 92.7018 53.4658L92.163 56.0401H120.764L120.225 53.4658C120.041 52.5851 119.264 51.9542 118.364 51.9542Z" fill="#FFBF00"/>
<g opacity="0.3">
<path d="M120.762 56.041H116.249L115.71 53.4669C115.525 52.5861 114.75 51.9532 113.849 51.9532H118.362C119.262 51.9532 120.038 52.5861 120.223 53.4669L120.762 56.041Z" fill="#5E2323"/>
</g>
<g opacity="0.55">
<path d="M92.9806 59.4613H90.797C89.8706 59.4613 89.1209 58.7117 89.1209 57.7852V57.7139C89.1209 56.7903 89.8706 56.0407 90.797 56.0407H92.9806C92.057 56.0407 91.3073 56.7903 91.3073 57.7139V57.7852C91.3073 58.7117 92.057 59.4613 92.9806 59.4613Z" fill="white"/>
</g>
<g opacity="0.55">
<path d="M96.7467 51.9532C95.8459 51.9532 95.0706 52.5861 94.8853 53.4669L94.3465 56.041H92.163L92.7017 53.4669C92.8842 52.5861 93.6624 51.9532 94.5603 51.9532H96.7467Z" fill="white"/>
</g>
<path d="M122.128 60.1732H90.7963C89.4795 60.1732 88.4083 59.1019 88.4083 57.7853V57.7149C88.4083 56.3983 89.4795 55.3271 90.7963 55.3271H122.128C123.445 55.3271 124.516 56.3983 124.516 57.7149V57.7853C124.516 59.1019 123.445 60.1732 122.128 60.1732ZM90.7963 56.7524C90.2656 56.7524 89.8336 57.1843 89.8336 57.7149V57.7853C89.8336 58.316 90.2656 58.7478 90.7963 58.7478H122.128C122.659 58.7478 123.09 58.316 123.09 57.7853V57.7149C123.09 57.1843 122.659 56.7524 122.128 56.7524H90.7963Z" fill="#5E2323"/>
<path d="M120.764 56.7529H92.163C91.9484 56.7529 91.7452 56.6562 91.61 56.4896C91.4746 56.3231 91.4216 56.1044 91.4655 55.8943L92.0043 53.32C92.2562 52.1157 93.3321 51.2417 94.5625 51.2417H118.364C119.595 51.2417 120.671 52.1157 120.923 53.32L121.461 55.8943C121.505 56.1044 121.452 56.3231 121.317 56.4896C121.182 56.6562 120.979 56.7529 120.764 56.7529ZM93.0403 55.3276H119.887L119.528 53.612C119.413 53.0644 118.924 52.667 118.364 52.667H94.5625C94.0032 52.667 93.5138 53.0644 93.3993 53.612L93.0403 55.3276Z" fill="#5E2323"/>
<path d="M120.763 59.4616L119.822 73.1159L119.258 81.2686L118.212 96.4451C118.044 98.8853 116.014 100.781 113.568 100.781H99.3579C96.9121 100.781 94.8824 98.8853 94.7142 96.4451L93.8248 83.569L93.2176 74.7578L92.163 59.4616H120.763Z" fill="#E93B47"/>
<path d="M119.821 73.1165L119.256 81.2693L118.934 81.0924L114.065 84.0742L109.197 81.0924L104.325 84.0742L99.4561 81.0924L94.5844 84.0742L93.8233 83.5697L93.2161 74.7584L94.5816 75.5053L99.4504 72.5265L104.319 75.5053L109.191 72.5265L114.06 75.5053L118.931 72.5265L119.821 73.1165Z" fill="#FFBF00"/>
<g opacity="0.3">
<path d="M120.763 59.4616L118.212 96.4451C118.044 98.8853 116.014 100.781 113.568 100.781H108.172C110.621 100.781 112.65 98.8853 112.819 96.4451L115.37 59.4616H120.763Z" fill="#5E2323"/>
</g>
<g opacity="0.55">
<path d="M101.068 100.781H99.3579C96.9121 100.781 94.8824 98.8853 94.7142 96.4451L92.163 59.4616H93.8733L96.4246 96.4451C96.5928 98.8853 98.6224 100.781 101.068 100.781Z" fill="white"/>
</g>
<path d="M113.568 101.493H99.359C96.5495 101.493 94.1971 99.2973 94.0036 96.4944L91.4521 59.5097C91.4384 59.3126 91.5073 59.1188 91.6421 58.9744C91.7768 58.8301 91.9655 58.748 92.163 58.748H120.764C120.961 58.748 121.15 58.8301 121.285 58.9744C121.42 59.1188 121.488 59.3126 121.475 59.5097L118.923 96.4944C118.73 99.2973 116.378 101.493 113.568 101.493ZM92.9266 60.1733L95.4255 96.3963C95.5676 98.455 97.2955 100.068 99.359 100.068H113.568C115.632 100.068 117.36 98.455 117.501 96.3963L120 60.1733H92.9266Z" fill="#5E2323"/>
<path d="M99.2989 95.0317C99.2989 96.6195 98.6547 98.0562 97.6142 99.0966C96.5738 100.137 95.1342 100.781 93.5464 100.781H66.9504C63.772 100.781 61.1979 98.2074 61.1979 95.0317C61.1979 94.3476 61.4744 93.729 61.9219 93.2815C61.959 93.2444 61.9989 93.2074 62.0388 93.1732C62.475 92.7883 63.0479 92.5574 63.6722 92.5574H96.8246C97.4717 92.5574 98.0646 92.8082 98.5065 93.2158C98.9939 93.6663 99.2989 94.3134 99.2989 95.0317Z" fill="#F6B041"/>
<g opacity="0.3">
<path d="M99.2999 95.0317C99.2999 96.6195 98.6556 98.0562 97.6152 99.0966C96.5747 100.137 95.1351 100.781 93.5474 100.781H86.5064C88.0942 100.781 89.5309 100.137 90.5713 99.0966C91.2088 98.4593 91.6977 97.672 91.9807 96.7924C92.1525 96.2581 91.8813 95.6982 91.3755 95.455L91.3666 95.4507C91.0873 95.2284 90.8079 95.0289 90.5314 94.855C90.0981 94.5842 89.6192 94.4131 89.1261 94.339C88.3906 94.2278 87.621 94.3362 86.9311 94.6612C86.8826 94.6839 86.837 94.7068 86.7914 94.7295C86.7031 94.7752 86.6147 94.818 86.5263 94.8521C85.4887 95.294 84.3285 95.2142 83.0999 94.8465C79.8616 93.8002 77.1364 93.9485 75.084 95.6646C73.8953 96.5597 72.6952 96.611 71.4838 95.8442C70.8195 95.3994 70.1268 95.0147 69.4 94.7097C68.6303 94.3903 67.7779 94.3448 66.9741 94.5699C64.782 95.1828 62.8094 94.7438 62.0397 93.1732C62.4759 92.7883 63.0488 92.5574 63.6731 92.5574H96.8255C96.9054 92.5574 96.9851 92.5603 97.0649 92.5688C97.102 92.5717 97.142 92.5774 97.1791 92.583C97.2588 92.5945 97.3358 92.6087 97.4128 92.6287C97.447 92.6372 97.4783 92.6458 97.5097 92.6543C97.5895 92.6771 97.6664 92.7028 97.7434 92.7341C97.8147 92.7626 97.8831 92.7941 97.9515 92.8282C98.0057 92.8567 98.0569 92.8853 98.1083 92.9166C98.1282 92.928 98.1482 92.9422 98.171 92.9565C98.2252 92.9907 98.2793 93.0278 98.3334 93.0677C98.3934 93.1162 98.4504 93.1646 98.5074 93.2158C98.9948 93.6663 99.2999 94.3134 99.2999 95.0317Z" fill="#5E2323"/>
</g>
<g opacity="0.55">
<path d="M68.6778 100.781H66.9504C63.772 100.781 61.1979 98.2074 61.1979 95.0317C61.1979 94.3476 61.4744 93.729 61.9219 93.2815C62.3695 92.834 62.9909 92.5574 63.6722 92.5574H65.3996C64.7184 92.5574 64.097 92.834 63.6494 93.2815C63.2019 93.729 62.9253 94.3476 62.9253 95.0317C62.9253 98.2074 65.4995 100.781 68.6778 100.781Z" fill="white"/>
</g>
<path d="M93.5479 101.495H66.9494C63.3852 101.495 60.4854 98.5953 60.4854 95.0311C60.4854 93.2737 61.9152 91.8439 63.6727 91.8439H96.8246C98.5821 91.8439 100.012 93.2737 100.012 95.0311C100.012 98.5953 97.1121 101.495 93.5479 101.495ZM63.6727 93.2693C62.7012 93.2693 61.9107 94.0596 61.9107 95.0311C61.9107 97.8095 64.1711 100.07 66.9494 100.07H93.5479C96.3262 100.07 98.5864 97.8095 98.5864 95.0311C98.5864 94.0596 97.7962 93.2693 96.8246 93.2693H63.6727Z" fill="#5E2323"/>
<path d="M95.035 92.7107C94.5133 92.6309 93.9746 92.7991 93.6239 93.1953C92.9455 93.9592 92.193 94.1417 91.3634 93.7398C91.0841 93.5175 90.8047 93.3179 90.5282 93.144C90.0949 92.8733 89.616 92.7022 89.1229 92.6281C88.3874 92.5169 87.6178 92.6253 86.9279 92.9502C86.8795 92.973 86.8339 92.9958 86.7883 93.0186C86.6998 93.0642 86.6115 93.1069 86.5231 93.1412C85.4855 93.583 84.3253 93.5031 83.0967 93.1355C79.8585 92.0893 77.1333 92.2375 75.0809 93.9536C73.8921 94.8487 72.692 94.9 71.4805 94.1332C70.8163 93.6885 70.1236 93.3036 69.3968 92.9986C68.6271 92.6794 67.7747 92.6337 66.9709 92.8589C63.878 93.7227 61.2184 92.4969 61.7571 88.9422L91.5117 88.928L98.8007 88.9251C99.1542 92.5454 97.1929 93.0328 95.035 92.7107Z" fill="#8CC34B"/>
<g opacity="0.55">
<path d="M86.774 93.0278C85.6737 93.595 84.4251 93.5323 83.0967 93.136C79.8585 92.0899 77.1333 92.2381 75.0809 93.9541C73.8921 94.8492 72.692 94.9006 71.4805 94.1338C70.8163 93.689 70.1236 93.3042 69.3968 92.9992C68.6271 92.68 67.7747 92.6344 66.9709 92.8596C63.878 93.7233 61.2184 92.4976 61.7571 88.9427H62.638C62.6751 91.7621 65.1209 92.6885 67.9202 91.9075C68.7211 91.6851 69.5763 91.7279 70.3432 92.0499C71.07 92.355 71.7628 92.7398 72.4269 93.1816C73.6384 93.9513 74.8385 93.9 76.0273 93.005C78.0825 91.286 80.8077 91.1378 84.0431 92.184C84.8926 92.4405 85.8818 92.8881 86.774 93.0278Z" fill="white"/>
</g>
<path d="M73.1657 95.382C72.4759 95.382 71.782 95.1661 71.1003 94.7338C70.4178 94.2802 69.7748 93.9309 69.1222 93.6575C68.5122 93.4024 67.8173 93.3622 67.165 93.5444C65.1523 94.1067 63.3444 93.8509 62.2045 92.8423C61.4973 92.2167 60.7235 91.0139 61.053 88.8361C61.1119 88.4467 61.4741 88.1798 61.8643 88.238C62.2535 88.2969 62.5212 88.6601 62.4623 89.0492C62.3334 89.9015 62.3477 91.066 63.149 91.7747C63.9085 92.4468 65.2664 92.5947 66.7816 92.1716C67.7417 91.9033 68.7684 91.9643 69.6726 92.3429C70.4098 92.6515 71.1309 93.0427 71.8767 93.5387C72.8207 94.1375 73.703 94.0946 74.6385 93.3948C76.7908 91.6064 79.7106 91.2904 83.3175 92.4562C84.5972 92.8407 85.6298 92.8196 86.4601 92.3872C87.8751 91.6501 89.5788 91.7092 90.9068 92.541C91.1739 92.7082 91.454 92.9057 91.7404 93.1287C92.1175 93.2964 92.5444 93.3396 93.0908 92.7222C93.5922 92.1558 94.3591 91.8878 95.1421 92.0048C96.3118 92.1799 97.1014 92.0551 97.5556 91.6233C98.0383 91.1648 98.2193 90.2803 98.0937 88.9947C98.0554 88.6029 98.342 88.2544 98.7336 88.216C99.1276 88.1774 99.4738 88.4643 99.5121 88.8561C99.6828 90.6013 99.3548 91.88 98.5373 92.6567C97.7437 93.4108 96.5642 93.6585 94.9311 93.4144C94.6278 93.3695 94.3383 93.4631 94.1582 93.6666C93.2725 94.6677 92.1708 94.9216 91.0546 94.3816C91.008 94.3589 90.9638 94.3314 90.9231 94.2992C90.6542 94.0869 90.3943 93.9017 90.1504 93.7489C89.2482 93.1837 88.0867 93.1467 87.1187 93.6511C85.9429 94.2637 84.5608 94.3181 82.8931 93.8167C79.7171 92.7905 77.3155 93.0156 75.5377 94.5007C75.5286 94.5084 75.5193 94.5158 75.51 94.5229C74.7509 95.0951 73.961 95.382 73.1657 95.382Z" fill="#5E2323"/>
<path d="M100.274 74.6384V76.514C100.274 78.2243 98.8857 79.6126 97.1753 79.6126H63.3217C61.6113 79.6126 60.2231 78.2243 60.2231 76.514V74.6384C60.2231 74.5044 60.2316 74.376 60.2487 74.2478C60.4397 72.717 61.7453 71.5369 63.3217 71.5369H97.1753C98.8002 71.5369 100.137 72.7911 100.263 74.3874C100.271 74.4701 100.274 74.5528 100.274 74.6384Z" fill="#C3512C"/>
<g opacity="0.3">
<path d="M100.272 74.6384V76.514C100.272 78.2243 98.8835 79.6126 97.1732 79.6126H89.1544C90.8648 79.6126 92.253 78.2243 92.253 76.514V76.3116C91.985 76.3116 91.7114 76.2431 91.4264 76.1063C91.147 75.884 90.8677 75.6845 90.5911 75.5106C89.4623 74.8036 88.0313 74.7694 86.8511 75.3851C85.7479 75.9581 84.4937 75.9011 83.1596 75.4992C79.9242 74.453 77.1961 74.6013 75.1437 76.3202C73.9551 77.2152 72.7549 77.2666 71.5434 76.4969C70.8793 76.055 70.1866 75.6702 69.4596 75.3652C68.69 75.0431 67.8377 75.0032 67.0338 75.2227C63.6416 76.1491 60.7368 75.7187 60.2465 74.2478C60.4375 72.717 61.7431 71.5369 63.3195 71.5369H97.1732C98.7979 71.5369 100.135 72.7911 100.26 74.3874C100.269 74.4701 100.272 74.5528 100.272 74.6384Z" fill="#5E2323"/>
</g>
<g opacity="0.55">
<path d="M65.0491 79.6126H63.3217C61.6113 79.6126 60.2231 78.2243 60.2231 76.514V74.6384C60.2231 72.9251 61.6113 71.5369 63.3217 71.5369H65.0491C63.3388 71.5369 61.9506 72.9251 61.9506 74.6384V76.514C61.9506 78.2243 63.3388 79.6126 65.0491 79.6126Z" fill="white"/>
</g>
<path d="M60.2231 85.7897C60.2231 84.0579 61.6269 82.654 63.3587 82.654H97.1383C98.8701 82.654 100.274 84.0579 100.274 85.7897C100.274 87.5214 98.87 88.9253 97.1383 88.9253H63.3587C61.6269 88.9253 60.2231 87.5214 60.2231 85.7897Z" fill="#C3512C"/>
<g opacity="0.3">
<path d="M100.273 85.0773V86.5025C100.273 87.8395 99.1874 88.9256 97.8504 88.9256H91.9355C92.3203 88.9256 92.6823 88.8373 93.0044 88.6777L89.7234 88.6063L89.273 88.9256H83.5946L77.5456 85.6076C76.756 85.1742 75.8724 84.949 74.9716 84.949H74.4356C73.6175 84.949 72.8108 84.7296 72.1038 84.3162L69.8348 82.9878H93.1641C92.8049 82.7769 92.383 82.6543 91.9355 82.6543H97.8504C99.1874 82.6543 100.273 83.7404 100.273 85.0773Z" fill="#5E2323"/>
</g>
<g opacity="0.55">
<path d="M64.3735 88.9254H62.646C61.3091 88.9254 60.2231 87.8393 60.2231 86.5023V85.0771C60.2231 83.7401 61.3091 82.654 62.646 82.654H64.3735C63.0366 82.654 61.9506 83.7401 61.9506 85.0771V86.5023C61.9506 87.8393 63.0366 88.9254 64.3735 88.9254Z" fill="white"/>
</g>
<path d="M97.1739 80.3263H63.3231C61.2209 80.3263 59.5105 78.616 59.5105 76.5137V74.6372C59.5105 72.5347 61.2209 70.8243 63.3231 70.8243H97.1739C99.2762 70.8243 100.987 72.5347 100.987 74.6372V76.5137C100.987 78.616 99.2762 80.3263 97.1739 80.3263ZM63.3231 72.2496C62.0067 72.2496 60.9358 73.3205 60.9358 74.6372V76.5137C60.9358 77.8301 62.0067 78.9011 63.3231 78.9011H97.1739C98.4903 78.9011 99.5613 77.8301 99.5613 76.5137V74.6372C99.5613 73.3205 98.4903 72.2496 97.1739 72.2496H63.3231Z" fill="#5E2323"/>
<path d="M95.0363 73.0791C94.5318 72.9194 93.9759 73.1674 93.6252 73.5637C92.9468 74.3306 92.1943 74.5101 91.3648 74.111C91.0854 73.8887 90.806 73.6891 90.5295 73.5152C89.4007 72.8083 87.9697 72.7741 86.7896 73.3898C85.8859 73.8574 84.8825 73.9058 83.8192 73.6862H83.8135C83.5769 73.6378 83.3375 73.5751 83.098 73.5039C79.8598 72.4577 77.1346 72.6059 75.0822 74.3248C73.8934 75.2199 72.6933 75.2713 71.4818 74.5016C70.8176 74.0598 70.1249 73.6749 69.3981 73.3699C68.6284 73.0477 67.7761 73.0078 66.9722 73.2274C61.6872 74.6726 57.5852 72.8197 61.958 68.8717L88.4685 69.1767L98.802 69.2963C102.197 72.6287 99.298 74.436 95.0363 73.0791Z" fill="#8CC34B"/>
<g opacity="0.55">
<path d="M86.9578 73.3073C86.9008 73.3329 86.8438 73.3615 86.7897 73.39C85.6865 73.963 84.4322 73.906 83.0981 73.504C79.8599 72.4579 77.1347 72.6061 75.0823 74.325C73.8936 75.2201 72.6935 75.2714 71.4819 74.5017C70.8177 74.0599 70.1251 73.675 69.3982 73.3701C68.6285 73.0479 67.7761 73.0081 66.9723 73.2275C61.8812 74.6186 57.8903 72.951 61.5077 69.2994C59.6063 72.1956 63.2894 73.4071 67.8531 72.1585C68.6571 71.9391 69.5094 71.979 70.279 72.3011C71.0059 72.6061 71.6986 72.9909 72.3628 73.4328C73.5743 74.2024 74.7744 74.1511 75.9631 73.256C78.0155 71.5371 80.7407 71.389 83.979 72.4351C84.9453 72.7258 86.02 73.256 86.9578 73.3073Z" fill="white"/>
</g>
<path d="M97.8509 89.638H62.646C60.9172 89.638 59.5105 88.2314 59.5105 86.5024V85.077C59.5105 83.3481 60.9172 81.9414 62.646 81.9414H97.8509C99.5799 81.9414 100.987 83.3481 100.987 85.077V86.5024C100.987 88.2314 99.5799 89.638 97.8509 89.638ZM62.646 83.3668C61.703 83.3668 60.9358 84.1341 60.9358 85.077V86.5024C60.9358 87.4455 61.703 88.2127 62.646 88.2127H97.8509C98.794 88.2127 99.5613 87.4455 99.5613 86.5024V85.077C99.5613 84.1341 98.794 83.3668 97.8509 83.3668H62.646Z" fill="#5E2323"/>
<path d="M73.166 75.7515C72.4761 75.7515 71.7823 75.5357 71.1006 75.1033C70.4183 74.6497 69.7753 74.3005 69.1222 74.0269C68.5181 73.774 67.8219 73.7343 67.1616 73.915C63.5697 74.8968 60.5557 74.4578 59.6611 72.8222C59.1871 71.9561 59.1185 70.4758 61.4813 68.3426C61.7735 68.0787 62.2239 68.1018 62.4879 68.3941C62.7517 68.6862 62.7286 69.1368 62.4366 69.4005C61.1694 70.5443 60.5995 71.5677 60.9114 72.1382C61.371 72.9781 63.7475 73.3708 66.7856 72.5401C67.751 72.276 68.7765 72.337 69.6726 72.7123C70.4102 73.0211 71.1311 73.4123 71.8769 73.9082C72.8209 74.5069 73.703 74.4639 74.6385 73.7644C76.7909 71.9759 79.7108 71.6598 83.3178 72.8257C84.5975 73.2101 85.6303 73.189 86.4604 72.7567C87.8749 72.0194 89.5791 72.0785 90.9071 72.9106C91.1748 73.0782 91.4549 73.2756 91.7406 73.4983C92.1182 73.6657 92.5447 73.7094 93.091 73.0917C93.6698 72.4378 94.5174 72.1664 95.2531 72.4C97.4227 73.0903 99.1125 72.8487 99.4933 72.2173C99.7842 71.7348 99.3282 70.8097 98.3037 69.8032C98.0229 69.5274 98.019 69.0762 98.2948 68.7955C98.5707 68.515 99.022 68.5108 99.3027 68.7865C101.446 70.8923 101.107 72.3006 100.714 72.9528C99.891 74.3193 97.5775 74.6354 94.8209 73.7582C94.6324 73.6985 94.3539 73.8153 94.1585 74.0361C93.2727 75.0372 92.171 75.2914 91.0548 74.7511C91.008 74.7285 90.9641 74.7008 90.9233 74.6687C90.6552 74.4567 90.3952 74.2716 90.1506 74.1184C89.2489 73.5535 88.0874 73.5163 87.1189 74.0206C85.9435 74.6333 84.5611 74.6875 82.8934 74.1864C79.7169 73.1599 77.3157 73.3852 75.538 74.8702C75.5289 74.8779 75.5196 74.8853 75.5102 74.8924C74.7512 75.4646 73.9612 75.7515 73.166 75.7515Z" fill="#5E2323"/>
<path d="M96.8253 69.6388C96.7797 69.6417 96.7341 69.6417 96.6884 69.6417H63.8097C62.0851 69.6417 60.8251 67.994 61.2983 66.3349C63.5474 58.453 71.1785 52.6521 80.2491 52.6521C83.1282 52.6521 85.8619 53.2364 88.322 54.2854C93.6212 56.5431 97.6633 60.953 99.1998 66.3349C99.6616 67.9484 98.4786 69.5532 96.8253 69.6388Z" fill="#F6B041"/>
<g opacity="0.55">
<path d="M88.8351 54.5135C86.6572 53.7239 84.2912 53.2935 81.8169 53.2935C72.7463 53.2935 65.1153 59.0944 62.8661 66.9763C62.5754 67.994 62.9374 69.0059 63.6586 69.6388C62.011 69.5447 60.8393 67.9455 61.2983 66.3349C63.5474 58.453 71.1785 52.6521 80.2491 52.6521C83.3277 52.6521 86.2439 53.322 88.8351 54.5135Z" fill="white"/>
</g>
<path d="M96.6896 70.3544H63.8088C62.7567 70.3544 61.7895 69.8723 61.1553 69.0318C60.5249 68.1966 60.3276 67.1423 60.6137 66.1393C62.9993 57.7786 71.0737 51.9395 80.2491 51.9395C89.4247 51.9395 97.4992 57.7786 99.8847 66.1393C100.171 67.1423 99.9735 68.1966 99.3431 69.0318C98.7089 69.8723 97.7417 70.3544 96.6896 70.3544ZM80.2491 53.3649C71.7068 53.3649 64.1961 58.7787 61.9845 66.5302C61.822 67.0995 61.9344 67.6982 62.2929 68.1732C62.6553 68.6535 63.2079 68.9291 63.8088 68.9291H96.6896C97.2905 68.9291 97.8431 68.6535 98.2054 68.1732C98.564 67.6982 98.6764 67.0995 98.514 66.5302C96.3023 58.7787 88.7914 53.3649 80.2491 53.3649Z" fill="#5E2323"/>
<path d="M61.1979 81.1337C61.1979 80.2938 61.8788 79.6129 62.7187 79.6129H97.7782C98.6181 79.6129 99.299 80.2938 99.299 81.1337C99.299 81.9736 98.6181 82.6545 97.7782 82.6545H62.7187C61.8788 82.6545 61.1979 81.9736 61.1979 81.1337Z" fill="#E93B47"/>
<g opacity="0.55">
<rect x="67.1098" y="79.9222" width="1.87664" height="2.73182" fill="white"/>
</g>
<g opacity="0.55">
<rect x="70.0658" y="79.9222" width="0.938321" height="2.73182" fill="white"/>
</g>
<g opacity="0.55">
<rect x="88.8351" y="79.9222" width="1.87664" height="2.73182" fill="white"/>
</g>
<g opacity="0.55">
<rect x="91.7871" y="79.9222" width="0.938321" height="2.73182" fill="white"/>
</g>
<g opacity="0.3">
<path d="M95.0368 73.0795C94.5323 72.9199 93.9764 73.1678 93.6258 73.564C92.9474 74.3309 92.1948 74.5104 91.3653 74.1114C91.0859 73.889 90.8066 73.6895 90.53 73.5156C89.4012 72.8087 87.9702 72.7745 86.7901 73.3902C85.8865 73.8578 84.8831 73.9062 83.8197 73.6866C86.3083 73.9375 87.6339 72.6975 87.5512 69.6388L88.4691 69.177L98.8025 69.2968C102.198 72.6291 99.2985 74.4363 95.0368 73.0795Z" fill="#5E2323"/>
</g>
<g opacity="0.3">
<path d="M81.3806 81.0382V81.2292C81.3806 82.016 82.0191 82.6545 82.8059 82.6545H86.3207C85.5339 82.6545 84.8953 82.016 84.8953 81.2292V81.0382C84.8953 80.2514 85.5339 79.6129 86.3207 79.6129H82.8059C82.0191 79.6129 81.3806 80.2514 81.3806 81.0382Z" fill="#5E2323"/>
</g>
<g opacity="0.55">
<path d="M64.191 82.6545H62.6232C61.8364 82.6545 61.1979 82.016 61.1979 81.2292V81.0382C61.1979 80.2514 61.8364 79.6129 62.6232 79.6129H64.191C63.4043 79.6129 62.7657 80.2514 62.7657 81.0382V81.2292C62.7657 82.016 63.4043 82.6545 64.191 82.6545Z" fill="white"/>
</g>
<path d="M97.8724 83.2241H62.6218C61.5216 83.2241 60.6263 82.329 60.6263 81.2287V81.0377C60.6263 79.9374 61.5216 79.0423 62.6218 79.0423H97.8724C98.9726 79.0423 99.8676 79.9374 99.8676 81.0377V81.2287C99.8676 82.329 98.9726 83.2241 97.8724 83.2241ZM62.6218 80.1825C62.1502 80.1825 61.7666 80.5662 61.7666 81.0377V81.2287C61.7666 81.7003 62.1502 82.0838 62.6218 82.0838H97.8724C98.3438 82.0838 98.7273 81.7003 98.7273 81.2287V81.0377C98.7273 80.5662 98.3438 80.1825 97.8724 80.1825H62.6218Z" fill="#5E2323"/>
<path d="M80.3895 83.2241H62.6218C61.5216 83.2241 60.6263 82.329 60.6263 81.2287V81.0377C60.6263 79.9374 61.5216 79.0423 62.6218 79.0423H80.3895C81.4897 79.0423 82.385 79.9374 82.385 81.0377V81.2287C82.385 82.329 81.4897 83.2241 80.3895 83.2241ZM62.6218 80.1825C62.1502 80.1825 61.7666 80.5662 61.7666 81.0377V81.2287C61.7666 81.7003 62.1502 82.0838 62.6218 82.0838H80.3895C80.8611 82.0838 81.2447 81.7003 81.2447 81.2287V81.0377C81.2447 80.5662 80.8611 80.1825 80.3895 80.1825H62.6218Z" fill="#5E2323"/>
<g opacity="0.3">
<path d="M81.8143 81.0382V81.2292C81.8143 82.016 81.1758 82.6545 80.389 82.6545H76.8742C77.661 82.6545 78.2996 82.016 78.2996 81.2292V81.0382C78.2996 80.2514 77.661 79.6129 76.8742 79.6129H80.389C81.1758 79.6129 81.8143 80.2514 81.8143 81.0382Z" fill="#5E2323"/>
</g>
<g opacity="0.3">
<path d="M99.2994 81.0382V81.2292C99.2994 82.016 98.6609 82.6545 97.8742 82.6545H94.3594C95.1461 82.6545 95.7847 82.016 95.7847 81.2292V81.0382C95.7847 80.2514 95.1461 79.6129 94.3594 79.6129H97.8742C98.6609 79.6129 99.2994 80.2514 99.2994 81.0382Z" fill="#5E2323"/>
</g>
<path d="M95.9608 82.654V83.4636C95.9608 83.7829 95.8325 84.0679 95.6244 84.2789C95.4163 84.487 95.1284 84.6152 94.812 84.6152C93.6518 84.6152 92.5201 84.9744 91.5737 85.6471L86.9586 88.9254L86.8731 88.9852C85.6987 89.8204 84.1508 89.9116 82.888 89.2161L82.3578 88.9254L75.7016 85.2737C74.912 84.8405 74.0284 84.6152 73.1275 84.6152H72.5916C71.7735 84.6152 70.9668 84.3958 70.2598 83.9824L67.9907 82.654H95.9608Z" fill="#FEC828"/>
<g opacity="0.55">
<path d="M87.2038 88.7515L86.9586 88.9254L86.8731 88.9852C85.6987 89.8204 84.1508 89.9116 82.888 89.2161L82.3578 88.9254L75.7016 85.2737C74.912 84.8405 74.0284 84.6152 73.1275 84.6152H72.5916C71.7735 84.6152 70.9668 84.3958 70.2598 83.9824L67.9907 82.654H70.6589L71.6367 83.227C72.3437 83.6403 73.1503 83.8598 73.9684 83.8598H74.5044C75.4052 83.8598 76.2888 84.0851 77.0785 84.5183L83.7346 88.1699L84.2648 88.4607C85.1799 88.9652 86.2431 89.0564 87.2038 88.7515Z" fill="white"/>
</g>
<path d="M84.6916 90.2476C83.9753 90.2476 83.2574 90.0718 82.6113 89.716L75.4259 85.7739C74.7245 85.3893 73.9291 85.1858 73.1259 85.1858H72.59C71.6715 85.1858 70.7658 84.94 69.9704 84.475L67.7011 83.1465C67.4791 83.0165 67.3717 82.7537 67.4391 82.5053C67.5064 82.2569 67.7319 82.0844 67.9893 82.0844H95.9591C96.2741 82.0844 96.5293 82.3396 96.5293 82.6545V83.464C96.5293 83.9204 96.3516 84.3523 96.0289 84.6796C95.7014 85.0072 95.2696 85.1858 94.8104 85.1858C93.7607 85.1858 92.7552 85.5063 91.9026 86.1122L87.1983 89.4527C86.4573 89.9799 85.5757 90.2476 84.6916 90.2476ZM70.0915 83.2246L70.5464 83.4908C71.1668 83.8537 71.8736 84.0456 72.59 84.0456H73.1259C74.1204 84.0456 75.1053 84.2976 75.9744 84.7743L83.1606 88.7167C84.2235 89.3021 85.5505 89.2254 86.5409 88.5212L86.6301 88.4587L91.2421 85.1828C92.2886 84.4389 93.5227 84.0456 94.8104 84.0456C94.9651 84.0456 95.1104 83.9854 95.2198 83.876C95.2955 83.7994 95.389 83.6627 95.389 83.464V83.2246H70.0915Z" fill="#5E2323"/>
<path d="M81.3474 58.5073C81.3658 59.0008 81.2633 59.4051 81.1185 59.4106C80.9736 59.416 80.8413 59.0203 80.8229 58.5268C80.8045 58.0333 80.907 57.6288 81.0518 57.6234C81.1966 57.618 81.329 58.0138 81.3474 58.5073Z" fill="white"/>
<path d="M74.5895 57.456C74.1307 57.6388 73.7154 57.6777 73.6617 57.5432C73.6081 57.4085 73.9366 57.1512 74.3953 56.9684C74.8541 56.7857 75.2695 56.7467 75.3231 56.8814C75.3768 57.016 75.0483 57.2734 74.5895 57.456Z" fill="white"/>
<path d="M87.1379 57.2153C87.5474 57.4914 87.8135 57.8127 87.7325 57.9329C87.6514 58.053 87.2539 57.9265 86.8444 57.6504C86.4351 57.3742 86.1689 57.0529 86.2499 56.9328C86.331 56.8126 86.7286 56.9391 87.1379 57.2153Z" fill="white"/>
<path d="M84.7866 59.2102C85.006 59.6526 85.0785 60.0635 84.9487 60.1279C84.8188 60.1922 84.5357 59.8858 84.3164 59.4433C84.097 59.0009 84.0245 58.5899 84.1543 58.5255C84.2842 58.4613 84.5673 58.7677 84.7866 59.2102Z" fill="white"/>
<ellipse cx="78.0954" cy="57.634" rx="0.894187" ry="0.262424" transform="rotate(-64.478 78.0954 57.634)" fill="white"/>
<g opacity="0.3">
<path d="M96.8233 69.638H77.6103C94.0725 70.3963 94.5951 57.4326 88.3143 54.2847H88.32C93.6193 56.5424 97.6614 60.9523 99.1979 66.3342C99.6597 67.9477 98.4767 69.5526 96.8233 69.638Z" fill="#5E2323"/>
</g>
<g opacity="0.3">
<path d="M95.0369 92.7107C94.5152 92.6309 93.9765 92.7991 93.6259 93.1953C92.9474 93.9592 92.1949 94.1417 91.3653 93.7398C91.086 93.5175 90.8066 93.3179 90.5301 93.144C90.0968 92.8733 89.6179 92.7022 89.1248 92.6281C90.8608 92.1292 91.8072 91.0231 91.4737 88.9422L91.5136 88.928L98.8026 88.9251C99.1561 92.5454 97.1948 93.0328 95.0369 92.7107Z" fill="#5E2323"/>
</g>
<g opacity="0.3">
<circle cx="71.1897" cy="65.2323" r="0.641383" transform="rotate(-76.7174 71.1897 65.2323)" fill="#5E2323"/>
</g>
<g opacity="0.3">
<circle cx="87.35" cy="63.5196" r="0.641386" transform="rotate(-45 87.35 63.5196)" fill="#5E2323"/>
</g>
<g opacity="0.3">
<path d="M72.6735 63.185C72.6735 63.3613 72.5306 63.5042 72.3544 63.5042C72.1781 63.5042 72.0351 63.3613 72.0351 63.185C72.0351 63.0088 72.1781 62.8658 72.3544 62.8658C72.5306 62.8658 72.6735 63.0088 72.6735 63.185Z" fill="#5E2323"/>
</g>
<g opacity="0.3">
<path d="M86.4118 65.4587C86.4118 65.6351 86.2689 65.7779 86.0927 65.7779C85.9163 65.7779 85.7734 65.6351 85.7734 65.4587C85.7734 65.2825 85.9163 65.1395 86.0927 65.1395C86.2689 65.1395 86.4118 65.2825 86.4118 65.4587Z" fill="#5E2323"/>
</g>
<g opacity="0.3">
<circle cx="72.7069" cy="65.1976" r="0.429074" fill="#5E2323"/>
</g>
<g opacity="0.3">
<circle cx="84.0922" cy="65.229" r="0.429074" fill="#5E2323"/>
</g>
</svg>
