<svg width="18" height="18" viewBox="0 0 18 18" fill="none" xmlns="http://www.w3.org/2000/svg">
<path d="M11.9665 2.05272C9.22873 -0.684494 4.79044 -0.684202 2.05304 2.05337C-0.684348 4.79094 -0.684348 9.22923 2.05304 11.9668C4.79044 14.7044 9.22873 14.7047 11.9665 11.9675C13.2931 10.659 14.04 8.87343 14.04 7.01009C14.04 5.14674 13.2931 3.36115 11.9665 2.05272ZM10.7049 10.7067C8.66417 12.7472 5.35573 12.747 3.31518 10.7064C1.27463 8.66574 1.27463 5.3573 3.31518 3.31666C5.35574 1.27601 8.66417 1.27587 10.7049 3.31634C11.6933 4.2919 12.2496 5.62277 12.2496 7.01152C12.2496 8.40027 11.6933 9.73113 10.7049 10.7067ZM17.7387 16.4764L13.9959 12.7337C13.6475 12.3852 13.0824 12.3852 12.734 12.7337C12.3855 13.0822 12.3855 13.6472 12.734 13.9957L16.4767 17.7384C16.8252 18.0869 17.3902 18.0869 17.7387 17.7384C18.0871 17.3899 18.0871 16.8249 17.7387 16.4764Z" fill="#787878"/>
</svg>
