<svg width="11" height="10" viewBox="0 0 11 10" fill="none" xmlns="http://www.w3.org/2000/svg">
<path d="M5.66618 0.282167L6.90875 2.81332C6.95477 2.95138 7.09283 3.04342 7.27692 3.08944L10.0842 3.50364C10.4524 3.54966 10.6365 4.00986 10.3603 4.28599L8.3354 6.26489C8.24336 6.35694 8.19734 6.54102 8.19734 6.67908L8.65755 9.44034C8.70357 9.80851 8.3354 10.1307 7.96724 9.94657L5.4821 8.65798C5.34403 8.56594 5.20597 8.56594 5.06791 8.65798L2.53675 9.90055C2.2146 10.0846 1.80041 9.80851 1.84644 9.39432L2.30665 6.63306C2.35267 6.495 2.26062 6.31092 2.16858 6.21887L0.143657 4.23997C-0.132469 3.96385 0.00559409 3.50364 0.419783 3.45762L3.22707 3.04342C3.36513 3.04342 3.50319 2.90536 3.59523 2.7673L4.8378 0.236146C4.97587 -0.0860017 5.4821 -0.0860017 5.66618 0.282167Z" fill="#FC8A3E"/>
</svg>
