<svg width="32" height="16" viewBox="0 0 32 16" fill="none" xmlns="http://www.w3.org/2000/svg">
<path d="M10.5096 3.32128C10.6538 3.09239 10.7637 2.91844 10.8873 2.74906C10.9356 2.7034 10.996 2.67243 11.0613 2.6598C11.1061 2.65402 11.1515 2.65402 11.1963 2.6598H30.1025C30.8784 2.6598 31.4895 2.95277 31.8237 3.67606C31.9316 3.91096 31.9885 4.16604 31.9908 4.42452C32.003 7.47636 32.003 10.5282 31.9908 13.58C31.9988 14.0603 31.8083 14.5227 31.4644 14.858C31.1204 15.1933 30.6534 15.3719 30.1734 15.3516L2.75492 15.3516C1.87726 15.3978 1.10234 14.7838 0.9467 13.9188C0.933137 13.8656 0.925461 13.8111 0.923812 13.7563C0.923812 12.4608 0.923812 11.1653 0.942123 9.86519C1.21908 10.3893 1.65168 10.8334 1.61048 11.5109C1.56928 12.1884 1.59674 12.8224 1.61048 13.4793C1.61048 14.2392 2.05681 14.6833 2.82129 14.6833H30.1276C30.8875 14.6833 31.3339 14.2255 31.3339 13.4702C31.3339 10.4962 31.3339 7.52061 31.3339 4.54355C31.3339 3.76761 30.8761 3.31899 30.1116 3.31899H10.5096V3.32128Z" fill="#00C33B"/>
<path d="M4.06035 10.0481C4.12444 9.90389 4.16564 9.8192 4.19769 9.74138C5.53804 6.5298 7.22665 3.47495 9.23322 0.631631C9.62233 0.0639895 10.135 -0.0435879 10.737 0.0136341C10.9634 0.0373135 11.1853 0.0927927 11.3962 0.178433C11.6961 0.297455 11.7281 0.446233 11.5404 0.704876C10.3874 2.30976 9.33625 3.98546 8.39321 5.72209C7.17363 7.94814 6.15633 10.2792 5.35358 12.6872C5.29226 12.906 5.11696 13.0743 4.8958 13.1266C4.42333 13.2699 3.91455 13.2332 3.46753 13.0236C3.31616 12.9402 3.19396 12.8124 3.11734 12.6574C2.61378 11.7029 2.13312 10.7302 1.61125 9.778C1.21062 9.02251 0.718633 8.31912 0.146368 7.68367C-0.0825202 7.4319 -0.0436093 7.20759 0.267679 7.06568C0.745904 6.84936 1.28724 6.81757 1.7875 6.97641C1.95194 7.04176 2.09637 7.14909 2.20636 7.2877C2.85912 8.04686 3.42707 8.875 3.90013 9.7574C3.93447 9.84209 3.98024 9.91075 4.06035 10.0481Z" fill="#00C33B"/>
<path d="M28.9259 8.99553C28.9259 9.63641 28.9259 10.2773 28.9259 10.9159C28.9099 12.0329 28.1408 12.7951 27.017 12.834C26.5499 12.8776 26.0791 12.8094 25.6436 12.6348C25.0096 12.3419 24.6113 11.852 24.5953 11.1494C24.5656 9.75543 24.5564 8.36151 24.5953 6.96758C24.6159 6.05203 25.1401 5.45921 26.0419 5.24176C26.555 5.11566 27.0926 5.12989 27.5983 5.28296C28.3951 5.49631 28.942 6.2277 28.9213 7.05227C28.9213 7.70002 28.9213 8.34777 28.9213 8.99553H28.9259ZM26.4081 8.99553C26.4081 9.6593 26.4081 10.3231 26.4081 10.9869C26.4127 11.1163 26.4242 11.2454 26.4425 11.3737C26.4646 11.5177 26.5886 11.624 26.7343 11.624C26.88 11.624 27.0039 11.5177 27.0261 11.3737C27.0495 11.2313 27.0641 11.0876 27.0696 10.9434C27.0696 9.61581 27.0696 8.28826 27.0696 6.96071C27.0788 6.83195 27.0617 6.70267 27.0192 6.58076C26.9758 6.4892 26.8544 6.36789 26.7766 6.37476C26.6507 6.3945 26.5387 6.46584 26.4676 6.5716C26.4166 6.69938 26.397 6.83752 26.4104 6.97445C26.4104 7.65882 26.415 8.32946 26.415 9.0001L26.4081 8.99553Z" fill="#00C33B"/>
<path d="M12.1751 5.32388V8.10487L12.2323 8.12318C12.2676 8.04859 12.299 7.97219 12.3262 7.89429C12.5551 7.11378 12.7977 6.33327 13.0128 5.55048C13.0223 5.47723 13.0615 5.41112 13.1213 5.36778C13.1811 5.32445 13.2562 5.30773 13.3287 5.32159C13.8139 5.33761 14.2992 5.32159 14.8233 5.32159C14.7913 5.43374 14.773 5.50928 14.7478 5.58481C14.4365 6.52554 14.1184 7.46398 13.8185 8.407C13.7738 8.56566 13.7738 8.73358 13.8185 8.89224C14.1596 10.0779 14.5052 11.2589 14.8668 12.44C14.892 12.5178 14.9057 12.5979 14.9309 12.7032C14.3129 12.7032 13.7201 12.7032 13.1273 12.7032C13.0723 12.7032 12.9922 12.5957 12.9739 12.5247C12.745 11.6549 12.5413 10.7829 12.3262 9.9108C12.3033 9.81237 12.2712 9.71624 12.2438 9.62011H12.1797V12.6872C12.0698 12.6872 11.9874 12.7009 11.9073 12.7009C11.4884 12.7009 11.0696 12.7009 10.6484 12.7009C10.3074 12.7055 10.3074 12.7055 10.3074 12.3599V7.96067C10.3074 7.16872 10.3074 6.37447 10.3074 5.58252C10.3074 5.38568 10.3554 5.31472 10.5637 5.3193C11.0879 5.33303 11.612 5.32388 12.1751 5.32388Z" fill="#00C33B"/>
<path d="M18.8092 9.5761C18.4636 9.5761 18.1454 9.5761 17.8296 9.5761C17.651 9.5761 17.5824 9.62646 17.5847 9.80499C17.5847 10.217 17.5847 10.629 17.5847 11.041C17.5847 11.2081 17.651 11.2699 17.8136 11.2699C18.1477 11.2699 18.4842 11.2699 18.8207 11.2699C18.942 11.2699 19.0061 11.3111 19.0061 11.4393C19.0061 11.8512 19.0061 12.261 19.0061 12.6867C18.9328 12.6867 18.8756 12.7027 18.8161 12.7027C17.8639 12.7027 16.9094 12.7027 15.9573 12.7027C15.7742 12.7027 15.7284 12.6501 15.7284 12.4738C15.7284 10.1636 15.7284 7.85257 15.7284 5.5408C15.7284 5.37372 15.7765 5.31192 15.9573 5.31192C16.8728 5.31192 17.7884 5.31192 18.7039 5.31192C18.8664 5.31192 18.9145 5.36685 18.9099 5.52478C18.9008 5.86812 18.9008 6.21145 18.9099 6.55478C18.9099 6.70356 18.8619 6.7562 18.7131 6.75162C18.4224 6.75162 18.1317 6.75162 17.8433 6.75162C17.6671 6.75162 17.5915 6.80427 17.5961 6.98051C17.5961 7.32384 17.5961 7.66718 17.5961 8.01051C17.5961 8.16615 17.6602 8.2394 17.825 8.22566C18.0997 8.22566 18.3743 8.22566 18.649 8.22566C18.7108 8.22566 18.8207 8.29662 18.8207 8.33782C18.8138 8.74295 18.8092 9.15495 18.8092 9.5761Z" fill="#00C33B"/>
<path d="M22.5673 9.72747C22.5673 10.643 22.5673 11.5425 22.5673 12.4512C22.5673 12.6389 22.5169 12.703 22.3223 12.6961C21.8646 12.6824 21.4068 12.6961 20.949 12.6961C20.759 12.6961 20.7018 12.6435 20.7041 12.4535C20.7041 10.659 20.7041 8.86685 20.7041 7.07465C20.7041 6.74505 20.7041 6.74505 20.3814 6.74505C20.1685 6.74505 19.9534 6.74505 19.7405 6.74505C19.5986 6.74505 19.5551 6.69012 19.5574 6.55508C19.5574 6.21174 19.5574 5.86841 19.5574 5.52508C19.5574 5.35341 19.61 5.29619 19.7863 5.29619C20.4409 5.29619 21.0978 5.29619 21.7547 5.29619C22.3338 5.29619 22.9129 5.29619 23.492 5.29619C23.6613 5.29619 23.7208 5.34426 23.7208 5.52508C23.7208 5.85239 23.7208 6.1797 23.7208 6.5093C23.7208 6.68096 23.6774 6.75879 23.492 6.73819C23.2631 6.72216 23.0342 6.73819 22.8053 6.73819C22.6222 6.73819 22.5764 6.80228 22.5764 6.97852C22.5695 7.89636 22.5673 8.81191 22.5673 9.72747Z" fill="#00C33B"/>
<path d="M7.14228 2.68965C7.04156 2.87634 6.92838 3.05604 6.80353 3.22754C6.72386 3.29112 6.62383 3.32365 6.522 3.31909C5.29516 3.31909 4.06603 3.31909 2.8369 3.31909C2.02664 3.31909 1.59175 3.75398 1.59175 4.56424C1.59175 5.0678 1.59175 5.57135 1.59175 6.07262C1.59175 6.23284 1.54139 6.29006 1.37888 6.2809C0.87304 6.25344 0.921106 6.37704 0.921106 5.83686C0.921106 5.37908 0.921106 4.92131 0.921106 4.46353C0.921106 3.44269 1.60777 2.68736 2.63548 2.66676C4.10036 2.63472 5.56525 2.66676 7.03013 2.66676C7.06814 2.6709 7.10569 2.67857 7.14228 2.68965Z" fill="#00C33B"/>
</svg>
