<svg width="23" height="30" viewBox="0 0 23 30" fill="none" xmlns="http://www.w3.org/2000/svg">
<path d="M11.283 22.1822C5.32282 22.1906 0.410107 17.2982 0.401124 11.3452C0.392145 5.30515 5.25696 0.409205 11.2755 0.401122C17.2913 0.39304 22.1798 5.29078 22.1741 11.3207C22.1687 17.3057 17.2871 22.1741 11.283 22.1822ZM11.2919 21.6487C16.9908 21.649 21.6397 17.0063 21.643 11.3117C21.6466 5.59014 17.0123 0.939661 11.2997 0.932177C5.57667 0.924694 0.934575 5.57637 0.93218 11.321C0.929784 17.0024 5.59044 21.6487 11.2919 21.6487Z" fill="#2E2E2E" stroke="#2E2E2E" stroke-width="0.788889" stroke-linecap="round" stroke-linejoin="round"/>
<path d="M15.2726 22.1922H15.8036V22.4988C15.8036 24.5448 15.8045 26.5912 15.8033 28.6373C15.8027 29.4875 15.2456 29.824 14.4763 29.4393C13.5282 28.9651 12.5778 28.4954 11.6357 28.009C11.3965 27.8853 11.2022 27.877 10.9565 28.0045C10.0063 28.4981 9.04448 28.9702 8.08625 29.448C7.33666 29.8216 6.77657 29.4815 6.77597 28.652C6.77448 26.6059 6.77567 24.5598 6.77567 22.5134V22.1979H7.30673C7.30673 22.3209 7.30673 22.4395 7.30673 22.558C7.30673 24.5709 7.30613 26.5837 7.30703 28.5966C7.30703 29.0926 7.43934 29.175 7.88089 28.9555C8.8502 28.4742 9.81532 27.9847 10.7903 27.5159C10.9858 27.4219 11.0295 27.3082 11.028 27.11C11.0199 25.8602 11.0241 24.6104 11.0241 23.3606V22.9897H11.5552V23.3408C11.5552 24.5906 11.5597 25.8405 11.5507 27.0903C11.5489 27.3025 11.5998 27.4181 11.8069 27.5177C12.7918 27.9919 13.7647 28.4912 14.7433 28.9789C15.1211 29.1672 15.2714 29.0723 15.2717 28.6445C15.2735 26.6206 15.2726 24.5966 15.2726 22.5727V22.1922Z" fill="#2E2E2E" stroke="#2E2E2E" stroke-width="0.788889" stroke-linecap="round" stroke-linejoin="round"/>
<path d="M11.2974 5.88567C11.6865 5.89376 11.9486 6.08883 12.1168 6.43246C12.4607 7.13556 12.8209 7.83126 13.1504 8.5411C13.275 8.80994 13.4472 8.93762 13.7376 8.97368C14.4899 9.06632 15.2395 9.18323 15.9904 9.28665C16.4041 9.34359 16.7265 9.51911 16.8545 9.94326C16.9782 10.3519 16.8087 10.6646 16.5187 10.9418C15.9793 11.458 15.4561 11.9916 14.9069 12.4969C14.6789 12.7072 14.6088 12.9218 14.6661 13.2216C14.8116 13.9783 14.9298 14.74 15.0686 15.498C15.1377 15.874 15.0548 16.1947 14.7513 16.4322C14.4339 16.6809 14.0846 16.6809 13.7352 16.4989C13.0412 16.1371 12.3448 15.7783 11.6596 15.4003C11.4062 15.2608 11.1991 15.2443 10.9349 15.3933C10.2642 15.7712 9.57217 16.1118 8.89232 16.474C8.53217 16.6657 8.17776 16.697 7.84119 16.4447C7.50464 16.1924 7.44096 15.8477 7.51811 15.4448C7.66298 14.6878 7.78022 13.9257 7.91835 13.1677C7.96484 12.9123 7.90757 12.7223 7.71014 12.5384C7.14584 12.0128 6.6031 11.4637 6.04621 10.93C5.75446 10.6504 5.59983 10.3337 5.72918 9.92743C5.85856 9.52079 6.16918 9.34662 6.56773 9.29069C7.31867 9.18457 8.06827 9.06868 8.82056 8.97603C9.10692 8.941 9.29256 8.83251 9.41956 8.55996C9.75511 7.83901 10.1129 7.12849 10.4707 6.41831C10.6587 6.0457 10.9282 5.88231 11.2974 5.88567ZM8.08578 15.6901C8.08646 15.9885 8.30039 16.1014 8.61033 15.9431C9.31849 15.5809 10.0267 15.2177 10.7223 14.8323C11.1094 14.6177 11.4659 14.6157 11.8509 14.8269C12.5156 15.1911 13.1861 15.5465 13.8649 15.8838C14.0128 15.9572 14.2335 15.9973 14.3703 15.9373C14.4494 15.903 14.4683 15.6321 14.4451 15.4781C14.3319 14.7286 14.1998 13.9813 14.0647 13.2351C13.9848 12.7941 14.0947 12.4414 14.4343 12.1297C14.9932 11.617 15.5315 11.0803 16.0625 10.5379C16.17 10.4277 16.2923 10.2182 16.2535 10.1097C16.2128 9.99649 15.9931 9.90688 15.8391 9.88128C15.1033 9.75966 14.3649 9.65084 13.6244 9.56223C13.1453 9.50496 12.8317 9.27924 12.6299 8.83589C12.3159 8.14626 11.9729 7.46943 11.6235 6.79664C11.5585 6.67098 11.4066 6.51366 11.2927 6.51197C11.1809 6.51062 11.0245 6.66694 10.9599 6.79126C10.6098 7.4637 10.2662 8.14053 9.95219 8.83016C9.75073 9.27284 9.4418 9.50395 8.96105 9.56156C8.22054 9.65017 7.48206 9.75932 6.74594 9.8806C6.59098 9.90621 6.37267 9.98976 6.32685 10.1043C6.28541 10.2081 6.40568 10.4227 6.51247 10.5322C7.03433 11.0661 7.56056 11.5978 8.11476 12.0974C8.50455 12.4488 8.59348 12.8436 8.49545 13.3388C8.34081 14.1191 8.2202 14.9061 8.08578 15.6901Z" fill="#FF8F1E" stroke="#FF8F1E" stroke-width="0.788889" stroke-linecap="round" stroke-linejoin="round"/>
</svg>
