<svg width="25" height="25" viewBox="0 0 25 25" fill="none" xmlns="http://www.w3.org/2000/svg">
<path d="M0.890553 7.33381e-07C0.403553 0.00780522 0.0117682 0.404273 0.0117682 0.892053C0.0117682 0.896736 0.0117682 0.900638 0.0117682 0.905321V0.90454V12.5004C0.0117682 19.4027 5.59666 24.9876 12.4989 24.9876C19.4012 24.9876 24.9861 19.4027 24.9861 12.5004V0.90454C24.9861 0.900638 24.9861 0.896735 24.9861 0.892053C24.9861 0.39959 24.5873 0 24.0941 0C23.6008 0 23.202 0.39959 23.202 0.892053C23.202 0.896735 23.202 0.900638 23.202 0.90532V0.90454V12.5004C23.202 18.4459 18.4436 23.2043 12.4982 23.2043C6.55271 23.2043 1.79431 18.4459 1.79431 12.5004V0.90454C1.79431 0.900638 1.79431 0.896735 1.79431 0.892833C1.79431 0.40037 1.39472 0.000780485 0.90226 0.000780485C0.897578 0.000780485 0.892895 0.000780485 0.888212 0.000780485H0.888993L0.890553 7.33381e-07Z" fill="#2E2E2E"/>
<path d="M0.90454 0.0117682C0.900638 0.0117682 0.896735 0.0117682 0.892053 0.0117682C0.39959 0.0117682 0 0.410577 0 0.903821C0 1.39706 0.39959 1.79587 0.892053 1.79587C0.896735 1.79587 0.900638 1.79587 0.90532 1.79587H24.0956C24.0995 1.79587 24.1034 1.79587 24.1081 1.79587C24.6005 1.79587 25.0001 1.39628 25.0001 0.903821C25.0001 0.411358 24.6013 0.0117682 24.1081 0.0117682C24.1034 0.0117682 24.0995 0.0117682 24.0948 0.0117682H0.90454Z" fill="#2E2E2E"/>
<path d="M8.70612 9.71168C8.21365 9.71168 7.81406 10.1113 7.81406 10.6037C7.81406 10.8543 7.91786 11.0806 8.0841 11.2429L11.8693 15.0281C12.0308 15.1896 12.254 15.2895 12.4999 15.2895C12.7457 15.2895 12.9689 15.1896 13.1305 15.0281L16.9149 11.2437C17.0764 11.0821 17.1755 10.8589 17.1755 10.6131C17.1755 10.1206 16.776 9.72104 16.2835 9.72104C16.0369 9.72104 15.8137 9.82094 15.6521 9.9825L12.4991 13.1363L9.34608 9.98249C9.18375 9.81548 8.95742 9.71246 8.70689 9.71246H8.70611L8.70612 9.71168Z" fill="#FF8F1E"/>
</svg>
