<svg width="12" height="15" viewBox="0 0 12 15" fill="none" xmlns="http://www.w3.org/2000/svg">
<path d="M5.69102 10.9957C2.79021 10.9997 0.399199 8.61864 0.394826 5.72132C0.390455 2.78162 2.75816 0.398759 5.68738 0.394825C8.61528 0.390893 10.9945 2.77462 10.9917 5.70938C10.9891 8.62228 8.61324 10.9917 5.69102 10.9957ZM5.69539 10.736C8.469 10.7362 10.7317 8.47658 10.7333 5.70501C10.735 2.92032 8.47949 0.656933 5.69918 0.65329C2.91376 0.649649 0.654453 2.91362 0.653291 5.70952C0.652122 8.47469 2.92046 10.736 5.69539 10.736Z" fill="#FF8F1E" stroke="#FF8F1E" stroke-width="0.788889" stroke-linecap="round" stroke-linejoin="round"/>
<path d="M7.6304 11.0002H7.88887V11.1494C7.88887 12.1453 7.8893 13.1413 7.88872 14.1371C7.88843 14.5509 7.61729 14.7146 7.24285 14.5274C6.78143 14.2966 6.31885 14.068 5.86034 13.8313C5.74393 13.7711 5.64937 13.767 5.52975 13.8291C5.06732 14.0693 4.5992 14.2991 4.13283 14.5316C3.768 14.7135 3.49541 14.5479 3.49511 14.1442C3.49439 13.1484 3.49497 12.1526 3.49497 11.1566V11.003H3.75343C3.75343 11.0629 3.75343 11.1206 3.75343 11.1783C3.75343 12.1579 3.75314 13.1376 3.75358 14.1173C3.75358 14.3587 3.81798 14.3987 4.03287 14.292C4.50464 14.0577 4.97437 13.8195 5.4489 13.5913C5.54404 13.5456 5.56531 13.4902 5.56458 13.3937C5.56065 12.7855 5.56269 12.1772 5.56269 11.5689V11.3884H5.82115V11.5593C5.82115 12.1676 5.82334 12.7758 5.81896 13.3841C5.81809 13.4874 5.84286 13.5437 5.94368 13.5922C6.42302 13.823 6.89653 14.066 7.37281 14.3033C7.55668 14.395 7.62982 14.3488 7.62997 14.1406C7.63084 13.1555 7.6304 12.1705 7.6304 11.1854V11.0002Z" fill="#FF8F1E" stroke="#FF8F1E" stroke-width="0.788889" stroke-linecap="round" stroke-linejoin="round"/>
<path d="M5.69561 3.06477C5.88499 3.06871 6.01256 3.16364 6.09438 3.33089C6.26179 3.67309 6.43708 4.01168 6.59743 4.35717C6.6581 4.48801 6.74189 4.55015 6.88323 4.5677C7.24937 4.61279 7.6142 4.66969 7.97968 4.72003C8.18103 4.74774 8.33795 4.83316 8.40026 5.0396C8.46043 5.23849 8.37796 5.39065 8.23678 5.5256C7.97427 5.7768 7.71963 6.03652 7.45236 6.28248C7.34135 6.38479 7.30725 6.48924 7.33512 6.63517C7.40596 7.00344 7.46351 7.37417 7.53107 7.7431C7.56468 7.92609 7.52434 8.08219 7.37661 8.19778C7.22215 8.31879 7.05212 8.31879 6.88208 8.23025C6.54431 8.05415 6.20538 7.87952 5.87187 7.69555C5.74857 7.62767 5.64773 7.61963 5.51918 7.69211C5.19272 7.87608 4.85593 8.04185 4.52505 8.21812C4.34976 8.31141 4.17727 8.32666 4.01346 8.20385C3.84966 8.08104 3.81867 7.9133 3.85621 7.71719C3.92672 7.34876 3.98378 6.97786 4.05102 6.60893C4.07364 6.48465 4.04577 6.39217 3.94968 6.30264C3.67503 6.04685 3.41088 5.77959 3.13984 5.51986C2.99785 5.38377 2.92259 5.22964 2.98555 5.03189C3.04851 4.83398 3.19969 4.74921 3.39367 4.72199C3.75915 4.67034 4.12398 4.61394 4.49012 4.56884C4.62949 4.55179 4.71984 4.499 4.78165 4.36635C4.94497 4.01546 5.1191 3.66965 5.29323 3.324C5.38473 3.14265 5.5159 3.06313 5.69561 3.06477ZM4.1325 7.83656C4.13283 7.98184 4.23695 8.03676 4.3878 7.9597C4.73246 7.78344 5.07712 7.60668 5.41572 7.4191C5.60412 7.31465 5.77759 7.31367 5.96501 7.41648C6.28852 7.59372 6.61481 7.76671 6.94521 7.93084C7.01719 7.96659 7.12459 7.9861 7.19116 7.95691C7.22969 7.94019 7.23887 7.80836 7.22756 7.73342C7.17246 7.3686 7.10819 7.00492 7.04244 6.64173C7.00358 6.4271 7.05703 6.25542 7.22232 6.10375C7.49433 5.85419 7.75636 5.59299 8.01477 5.329C8.06708 5.27538 8.1266 5.1734 8.10774 5.1206C8.0879 5.0655 7.98099 5.02189 7.90606 5.00943C7.54795 4.95024 7.18853 4.89728 6.82813 4.85415C6.59497 4.82628 6.44232 4.71642 6.3441 4.50064C6.19128 4.165 6.02436 3.83558 5.85433 3.50814C5.82268 3.44698 5.74873 3.37041 5.69332 3.36959C5.63888 3.36893 5.5628 3.44501 5.53131 3.50552C5.36095 3.8328 5.1937 4.16221 5.04088 4.49785C4.94283 4.7133 4.79247 4.82578 4.55849 4.85382C4.19809 4.89695 3.83867 4.95007 3.4804 5.0091C3.40498 5.02156 3.29873 5.06223 3.27643 5.11797C3.25627 5.16848 3.3148 5.27293 3.36678 5.32622C3.62076 5.5861 3.87688 5.84484 4.14661 6.08801C4.33632 6.25903 4.3796 6.4512 4.33189 6.69223C4.25662 7.07198 4.19793 7.45501 4.1325 7.83656Z" fill="#FF8F1E" stroke="#FF8F1E" stroke-width="0.788889" stroke-linecap="round" stroke-linejoin="round"/>
</svg>
