<svg width="13" height="13" viewBox="0 0 13 13" fill="none" xmlns="http://www.w3.org/2000/svg">
<path d="M1.39916 4.02013V0.649937C1.39916 0.290746 1.71211 0 2.09874 0C2.48599 0 2.79832 0.290746 2.79832 0.649937V4.02013C3.61061 4.28923 4.1981 5.00352 4.1981 5.85002C4.1981 6.69651 3.61061 7.4108 2.79832 7.6799V12.35C2.79832 12.7097 2.48599 12.9999 2.09874 12.9999C1.71211 12.9999 1.39916 12.7097 1.39916 12.35V7.6799C0.586871 7.4108 5.89326e-06 6.69651 5.89326e-06 5.85002C5.89326e-06 5.00352 0.586871 4.28923 1.39916 4.02013ZM5.59726 9.22021V0.649937C5.59726 0.290746 5.91021 0 6.29683 0C6.68346 0 6.99641 0.290746 6.99641 0.649937V9.22021C7.8087 9.48931 8.39557 10.2036 8.39557 11.0501C8.39557 12.1253 7.45419 12.9999 6.29683 12.9999C5.13948 12.9999 4.1981 12.1253 4.1981 11.0501C4.1981 10.2036 4.78497 9.48931 5.59726 9.22021ZM9.79535 1.42038V0.649937C9.79535 0.290746 10.1077 0 10.4949 0C10.8816 0 11.1945 0.290746 11.1945 0.649937V1.42038C12.0068 1.68948 12.5937 2.40377 12.5937 3.25027C12.5937 4.09618 12.0068 4.81047 11.1945 5.07957V12.35C11.1945 12.7097 10.8816 12.9999 10.4949 12.9999C10.1077 12.9999 9.79535 12.7097 9.79535 12.35V5.07957C8.98306 4.81047 8.39557 4.09618 8.39557 3.25027C8.39557 2.40377 8.98306 1.68948 9.79535 1.42038Z" fill="#7B7B7B"/>
</svg>
