<svg width="11" height="12" viewBox="0 0 11 12" fill="none" xmlns="http://www.w3.org/2000/svg">
<ellipse cx="4.41414" cy="4.0253" rx="0.575995" ry="0.575991" fill="#24953B"/>
<ellipse cx="6.58842" cy="7.35303" rx="0.575995" ry="0.575991" fill="#24953B"/>
<path d="M10.94 7.08469L10.2872 5.75351L10.94 4.42233C11.0808 4.12793 10.9656 3.78234 10.684 3.62874L9.37842 2.93755L9.12242 1.47838C9.07122 1.15838 8.76402 0.940785 8.44402 0.991984L6.97203 1.19678L5.90964 0.172797C5.67924 -0.057599 5.30805 -0.057599 5.07765 0.172797L4.01526 1.19678L2.55607 0.979183C2.23607 0.927984 1.94168 1.14558 1.87768 1.46558L1.62168 2.92475L0.316089 3.62874C0.034492 3.78234 -0.0807067 4.12793 0.060092 4.42233L0.712887 5.75351L0.060092 7.08469C-0.0807067 7.37908 0.034492 7.72468 0.316089 7.87827L1.62168 8.56946L1.87768 10.0286C1.92888 10.3486 2.23607 10.5662 2.55607 10.515L4.02806 10.3102L5.09045 11.347C5.32085 11.5774 5.69204 11.5774 5.92244 11.347L6.98483 10.3102L8.44402 10.5278C8.76402 10.579 9.05842 10.3614 9.12242 10.0414L9.37842 8.58226L10.684 7.89107C10.9656 7.72468 11.0808 7.37908 10.94 7.08469ZM3.32406 4.02554C3.32406 3.42394 3.81046 2.93755 4.41205 2.93755C5.01365 2.93755 5.50004 3.42394 5.50004 4.02554C5.50004 4.62712 5.01365 5.11352 4.41205 5.11352C3.81046 5.11352 3.32406 4.62712 3.32406 4.02554ZM4.10486 7.95507C4.05366 8.01907 3.97686 8.05747 3.90006 8.05747C3.84886 8.05747 3.79766 8.04467 3.74646 8.00627C3.63126 7.91667 3.61846 7.76307 3.69526 7.64787L7.01043 3.29595C7.10003 3.18075 7.25363 3.16795 7.36883 3.24475C7.48403 3.33435 7.49683 3.48794 7.42003 3.60314L4.10486 7.95507ZM6.58803 8.44147C5.98644 8.44147 5.50004 7.95507 5.50004 7.35348C5.50004 6.75189 5.98644 6.2655 6.58803 6.2655C7.18963 6.2655 7.67603 6.75189 7.67603 7.35348C7.67603 7.95507 7.18963 8.44147 6.58803 8.44147Z" fill="#24953B"/>
</svg>
