<svg width="9" height="12" viewBox="0 0 9 12" fill="none" xmlns="http://www.w3.org/2000/svg">
<path d="M4.50002 11.7644C4.36584 11.7644 4.23572 11.7139 4.13362 11.6223C3.97635 11.4822 0.278768 8.15406 0.0143691 5.00518C0.0104501 4.95327 0.00718457 4.90136 0.0045723 4.84945C0.00149528 4.79026 0 4.72837 0 4.66025C0 2.09058 2.0187 0 4.50002 0C6.98134 0 9.00005 2.09058 9.00005 4.66025C9.00005 7.89901 5.03521 11.4718 4.86643 11.6223C4.76433 11.7139 4.6342 11.7644 4.50002 11.7644ZM4.50002 2.40423C3.2997 2.40423 2.32316 3.42547 2.32316 4.68074C2.32316 5.93601 3.2997 6.95725 4.50002 6.95725C5.70071 6.95725 6.67754 5.93601 6.67754 4.68074C6.67754 3.42547 5.70071 2.40423 4.50002 2.40423Z" fill="#303030"/>
</svg>
