<svg width="10" height="10" viewBox="0 0 10 10" fill="none" xmlns="http://www.w3.org/2000/svg">
<path d="M4.61544 0C1.87641 0 0 2.26103 0 5.00006C0 7.73909 1.87641 10.0001 4.61544 10.0001C7.35447 10.0001 9.6155 7.73909 9.6155 5.00006C9.6155 2.26103 7.35447 0 4.61544 0ZM6.15392 6.92316L4.23082 5.38468C4.16884 5.3387 4.23082 5.46065 4.23082 5.38468V1.9231C4.09887 1.9231 4.23082 1.79115 4.23082 1.9231H5.38468C5.51663 1.9231 5.7693 1.79115 5.7693 1.9231V5.00006L6.92316 5.7693C7.00113 5.66134 7.03112 5.84727 6.92316 5.7693L6.15392 6.92316C6.26188 7.00113 6.07595 7.02912 6.15392 6.92316Z" fill="#616161"/>
</svg>
