<svg enable-background="new 0 0 91.47 122.88" viewBox="0 0 91.47 122.88" xmlns="http://www.w3.org/2000/svg"><path d="m2.94 0h88.53v91.82h-91.47v-91.82zm88.52 108.73h-5.65v-1.97c0-1.24-.05-2.02-.16-2.33-.11-.32-.36-.47-.75-.47-.34 0-.57.13-.69.4-.13.27-.18.96-.18 2.06v10.41c0 .97.06 1.61.18 1.92s.37.46.73.46c.4 0 .67-.17.82-.52.14-.35.21-1.03.21-2.04v-2.57h-1.1v-3.29h6.58v11.63h-3.55l-.52-1.55c-.38.67-.87 1.17-1.45 1.51s-1.28.51-2.07.51c-.95 0-1.83-.23-2.66-.69-.82-.46-1.45-1.03-1.87-1.71-.43-.68-.7-1.39-.8-2.13-.11-.75-.16-1.87-.16-3.36v-6.45c0-2.07.11-3.58.33-4.51.22-.94.86-1.8 1.92-2.58 1.05-.78 2.42-1.17 4.1-1.17 1.65 0 3.02.34 4.11 1.02s1.8 1.49 2.13 2.42c.33.94.49 2.29.49 4.07v.93zm-24.32-8.02h9.41v4.33h-3.76v4.14h3.51v4.12h-3.51v4.77h4.14v4.33h-9.79zm-.97 0-2.86 21.7h-8.54l-3.27-21.7h5.95c.67 5.99 1.16 11.05 1.47 15.18.3-4.18.61-7.9.93-11.14l.38-4.05h5.94zm-15.02 10.95v3.73h-7.08v-3.73zm-8.71-10.95v21.7h-4.94l-2.94-9.87v9.87h-4.72v-21.7h4.72l3.15 9.77v-9.77zm-14.71 12.72c0 2.18-.05 3.72-.16 4.63-.1.91-.42 1.74-.96 2.49s-1.27 1.33-2.19 1.73-1.99.6-3.21.6c-1.16 0-2.2-.19-3.12-.57s-1.67-.95-2.23-1.71-.9-1.59-1.01-2.48c-.11-.9-.16-2.46-.16-4.69v-3.71c0-2.18.05-3.72.16-4.63.1-.91.42-1.74.96-2.49s1.27-1.33 2.19-1.73 1.99-.6 3.21-.6c1.16 0 2.2.19 3.12.57s1.67.95 2.23 1.71.9 1.59 1.01 2.48c.1.9.16 2.46.16 4.69zm-5.65-7.12c0-1.01-.05-1.65-.16-1.93s-.33-.42-.67-.42c-.29 0-.51.11-.66.34-.15.22-.23.9-.23 2.01v10.13c0 1.26.05 2.03.15 2.33s.33.44.7.44c.38 0 .62-.17.72-.51.11-.34.16-1.15.16-2.42v-9.97zm-9.48-5.6v21.7h-4.94l-2.94-9.87v9.87h-4.71v-21.7h4.72l3.15 9.77v-9.77zm33.13-80.75c14.33 0 25.95 11.62 25.95 25.95s-11.62 25.94-25.95 25.94-25.95-11.62-25.95-25.94c.01-14.33 11.62-25.95 25.95-25.95zm39.86-14.08h-79.71v80.06h79.71z" fill="#be360d"/></svg>