<svg width="25" height="25" viewBox="0 0 25 25" fill="none" xmlns="http://www.w3.org/2000/svg">
<mask id="mask0_1607_44" style="mask-type:luminance" maskUnits="userSpaceOnUse" x="0" y="0" width="25" height="25">
<path d="M24.5232 0.799072H0.523193V24.7991H24.5232V0.799072Z" fill="white"/>
</mask>
<g mask="url(#mask0_1607_44)">
<path fill-rule="evenodd" clip-rule="evenodd" d="M1.80891 3.3705H4.20205L4.85176 5.83907C4.85703 5.85863 4.86275 5.87806 4.86891 5.89736L6.52834 14.2031C6.53286 14.248 6.53973 14.2926 6.54891 14.3368L7.26891 17.9368V17.942C7.36771 18.426 7.6307 18.861 8.01338 19.1734C8.39606 19.4858 8.87491 19.6564 9.36891 19.6563H19.8089C20.1499 19.6563 20.4769 19.5208 20.718 19.2797C20.9592 19.0386 21.0946 18.7115 21.0946 18.3705C21.0946 18.0295 20.9592 17.7025 20.718 17.4614C20.4769 17.2203 20.1499 17.0848 19.8089 17.0848H9.72034L9.29177 14.942H21.2661H21.2832H21.2849C21.3449 14.942 21.5163 14.9471 21.6741 14.9214C21.9568 14.8736 22.2232 14.7563 22.4494 14.58C22.6756 14.4038 22.8545 14.1741 22.9701 13.9117C23.0626 13.6991 23.1089 13.43 23.1243 13.3408L23.1295 13.3168L24.4855 6.69621L24.4889 6.67907C24.5337 6.43248 24.524 6.17906 24.4604 5.93663C24.3968 5.6942 24.2808 5.46865 24.1207 5.27584C23.9605 5.08303 23.7601 4.92764 23.5335 4.82059C23.3069 4.71354 23.0595 4.65743 22.8089 4.65621H22.8055H7.19691L6.62605 2.4705C6.519 1.99584 6.2536 1.57174 5.87349 1.26797C5.49338 0.964196 5.0212 0.79883 4.53462 0.799073H1.80891C1.46791 0.799073 1.14089 0.934532 0.89977 1.17565C0.658652 1.41677 0.523193 1.74379 0.523193 2.08479C0.523193 2.42578 0.658652 2.7528 0.89977 2.99392C1.14089 3.23504 1.46791 3.3705 1.80891 3.3705ZM20.4603 22.742C20.4603 22.2196 20.2528 21.7186 19.8834 21.3492C19.514 20.9798 19.013 20.7723 18.4906 20.7723C17.9682 20.7723 17.4672 20.9798 17.0978 21.3492C16.7284 21.7186 16.5209 22.2196 16.5209 22.742C16.536 23.2541 16.7501 23.7402 17.1177 24.0971C17.4852 24.454 17.9774 24.6536 18.4898 24.6536C19.0021 24.6536 19.4943 24.454 19.8619 24.0971C20.2295 23.7402 20.4435 23.2541 20.4586 22.742H20.4603ZM9.91748 20.774C10.1809 20.7662 10.4432 20.8114 10.6889 20.9068C10.9346 21.0023 11.1586 21.146 11.3477 21.3296C11.5368 21.5132 11.6871 21.7329 11.7898 21.9756C11.8924 22.2184 11.9453 22.4793 11.9453 22.7428C11.9453 23.0064 11.8924 23.2673 11.7898 23.51C11.6871 23.7527 11.5368 23.9724 11.3477 24.156C11.1586 24.3396 10.9346 24.4834 10.6889 24.5788C10.4432 24.6743 10.1809 24.7195 9.91748 24.7117C9.40536 24.6966 8.91929 24.4825 8.56239 24.1149C8.20549 23.7473 8.00587 23.2552 8.00587 22.7428C8.00587 22.2305 8.20549 21.7383 8.56239 21.3707C8.91929 21.0031 9.40536 20.7891 9.91748 20.774Z" fill="white"/>
</g>
</svg>
