<svg width="23" height="24" viewBox="0 0 23 24" fill="none" xmlns="http://www.w3.org/2000/svg">
<path fill-rule="evenodd" clip-rule="evenodd" d="M2.77369 0.764865C3.46924 0.680825 4.40281 0.61499 5.62123 0.61499C6.83963 0.61499 7.77323 0.680825 8.46878 0.764865C9.83098 0.929455 10.7405 2.01617 10.812 3.32642C10.8459 3.94718 10.8712 4.77551 10.8712 5.86499C10.8712 6.95449 10.8459 7.78279 10.812 8.40354C10.7405 9.71384 9.83098 10.8005 8.46878 10.9651C7.77323 11.0491 6.83963 11.115 5.62123 11.115C4.40281 11.115 3.46924 11.0491 2.77369 10.9651C1.41149 10.8005 0.501961 9.71379 0.430466 8.40354C0.396591 7.78279 0.371231 6.95449 0.371231 5.86499C0.371231 4.77551 0.396591 3.94718 0.430466 3.32642C0.501961 2.01617 1.41149 0.929455 2.77369 0.764865ZM2.77369 12.7649C3.46924 12.6808 4.40281 12.615 5.62123 12.615C6.83963 12.615 7.77323 12.6808 8.46878 12.7649C9.17733 12.8505 9.76343 13.1856 10.1728 13.6718C9.66138 14.6225 9.37123 15.7099 9.37123 16.865C9.37123 18.393 9.87898 19.8025 10.7349 20.9338C10.4796 21.9974 9.64208 22.8233 8.46878 22.9651C7.77323 23.0491 6.83963 23.115 5.62123 23.115C4.40281 23.115 3.46924 23.0491 2.77369 22.9651C1.41149 22.8005 0.501961 21.7138 0.430466 20.4035C0.396591 19.7828 0.371231 18.9545 0.371231 17.865C0.371231 16.7755 0.396591 15.9472 0.430466 15.3264C0.501961 14.0162 1.41149 12.9294 2.77369 12.7649ZM19.5536 11.0516C18.5479 10.4565 17.3745 10.115 16.1212 10.115C15.2541 10.115 14.4251 10.2785 13.6635 10.5764C12.9342 10.1161 12.4801 9.31379 12.4305 8.40354C12.3966 7.78279 12.3712 6.95449 12.3712 5.86499C12.3712 4.77551 12.3966 3.94718 12.4305 3.32642C12.502 2.01617 13.4115 0.929455 14.7737 0.764865C15.4692 0.680825 16.4028 0.61499 17.6212 0.61499C18.8396 0.61499 19.7732 0.680825 20.4688 0.764865C21.831 0.929455 22.7405 2.01617 22.812 3.32642C22.8459 3.94718 22.8712 4.77551 22.8712 5.86499C22.8712 6.95449 22.8459 7.78279 22.812 8.40354C22.7405 9.71384 21.831 10.8005 20.4688 10.9651C20.2001 10.9976 19.896 11.0273 19.5536 11.0516ZM20.5636 19.1619C20.9199 18.4741 21.1212 17.693 21.1212 16.865C21.1212 14.1036 18.8826 11.865 16.1212 11.865C13.3598 11.865 11.1212 14.1036 11.1212 16.865C11.1212 19.6264 13.3598 21.865 16.1212 21.865C16.9661 21.865 17.7619 21.6554 18.4598 21.2855C18.9246 21.8461 19.3866 22.3987 19.8963 22.9443C20.4369 23.5231 21.2552 23.5949 21.8276 23.0474C21.9078 22.9707 21.9935 22.8871 22.0847 22.7958C22.176 22.7045 22.2597 22.6189 22.3364 22.5387C22.8838 21.9663 22.812 21.148 22.2332 20.6073C21.6841 20.0944 21.1279 19.6298 20.5636 19.1619ZM16.1212 14.615C14.8786 14.615 13.8712 15.6223 13.8712 16.865C13.8712 18.1076 14.8786 19.115 16.1212 19.115C17.3639 19.115 18.3712 18.1076 18.3712 16.865C18.3712 15.6223 17.3639 14.615 16.1212 14.615Z" fill="white"/>
</svg>
