<svg width="24" height="24" viewBox="0 0 24 24" fill="none" xmlns="http://www.w3.org/2000/svg">
<path fill-rule="evenodd" clip-rule="evenodd" d="M24.0021 2C24.0021 0.895433 23.1067 0 22.0021 0H13.4163C12.8859 0 12.3772 0.210714 12.0021 0.585786L1.41421 11.1737C0.633164 11.9547 0.633165 13.2211 1.41421 14.0021L9.99999 22.5879C10.781 23.3689 12.0474 23.3689 12.8284 22.5879L23.4163 12C23.7914 11.6249 24.0021 11.1162 24.0021 10.5858V2ZM17.0021 5V5C16.4498 5 16.0021 5.44772 16.0021 6V6.50018C16.0021 7.32871 16.6738 8.00037 17.5023 8.00037V8.00037C18.3308 8.00037 19.0025 7.32871 19.0025 6.50019V6.50019C19.0025 5.67166 18.3308 5 17.5023 5H17.0021Z" fill="white"/>
</svg>
