<!DOCTYPE svg PUBLIC "-//W3C//DTD SVG 1.1//EN" "http://www.w3.org/Graphics/SVG/1.1/DTD/svg11.dtd">
<!-- Uploaded to: SVG Repo, www.svgrepo.com, Transformed by: SVG Repo Mixer Tools -->
<svg fill="#ffffff" height="800px" width="800px" version="1.1" id="Capa_1" xmlns="http://www.w3.org/2000/svg" xmlns:xlink="http://www.w3.org/1999/xlink" viewBox="0 0 295.188 295.188" xml:space="preserve" stroke="#ffffff">
<g id="SVGRepo_bgCarrier" stroke-width="0"/>
<g id="SVGRepo_tracerCarrier" stroke-linecap="round" stroke-linejoin="round"/>
<g id="SVGRepo_iconCarrier"> <path d="M64.626,69.243 M61.376,173.743c-9.512,0-17.25,7.738-17.25,17.25s7.738,17.25,17.25,17.25s17.25-7.738,17.25-17.25 S70.887,173.743,61.376,173.743z M233.376,173.743c-9.512,0-17.25,7.738-17.25,17.25s7.738,17.25,17.25,17.25 s17.25-7.738,17.25-17.25S242.887,173.743,233.376,173.743z M295.188,190.886c0,33.938-27.609,61.548-61.547,61.548 c-33.938,0-61.548-27.61-61.548-61.548c0-29.525,20.901-54.251,48.682-60.184l-5.406-18.931 c-40.024,14.925-60.648,55.37-69.418,78.358c-4.33,11.354-14.571,19.432-26.354,21.231c-2.909,8.172-7.551,15.702-13.782,22.136 c-11.699,12.079-27.409,18.731-44.221,18.731c-0.668,0-1.349-0.011-2.022-0.032c-32.337-1.032-58.508-27.172-59.54-59.51 c-0.537-16.83,5.546-32.748,17.24-44.822C29.438,135.305,45.1,128.617,62.7,129.164c32.338,1.032,57.593,27.172,58.593,59.509 c0,0.009,0,0.018,0,0.027c2-1.477,4.189-3.426,5.057-5.699c8.104-21.244,25.78-55.139,57.364-76.789L85.299,94.743H56.126 c-8.547,0-15.5-6.953-15.5-15.5s6.953-15.5,15.5-15.5h50c8.547,0,15.5,6.453,15.5,15c0,1.64-0.261,2.97-0.735,4.455l86.468,10.356 c0.863-0.332,1.718-0.737,2.597-1.049c-3.661-17.195,4.717-34.934,20.637-42.893l11.561-5.797 c4.938-2.471,10.947-0.476,13.417,4.464s0.468,10.942-4.472,13.413l-11.562,5.779c-8.122,4.061-12.207,13.344-9.714,22.076 l11.504,40.29C271.648,133.633,295.188,159.553,295.188,190.886z M93.626,190.993c0-17.782-14.468-32.25-32.25-32.25 s-32.25,14.468-32.25,32.25s14.468,32.25,32.25,32.25S93.626,208.775,93.626,190.993z M265.626,190.993 c0-17.782-14.468-32.25-32.25-32.25s-32.25,14.468-32.25,32.25s14.468,32.25,32.25,32.25S265.626,208.775,265.626,190.993z"/> </g>
</svg>