<svg width="49" height="48" viewBox="0 0 49 48" fill="none" xmlns="http://www.w3.org/2000/svg">
<circle cx="24.5065" cy="23.9499" r="23.4694" fill="white" stroke="#C4C4C4" stroke-width="0.394444"/>
<path d="M19.4635 20.2982C19.2552 20.2982 19.0642 20.2034 18.934 20.0311C18.7865 19.833 18.7691 19.5745 18.8819 19.3591C19.0295 19.0662 19.2378 18.7819 19.5069 18.5235L22.3278 15.715C23.7687 14.2936 26.1122 14.2936 27.553 15.715L29.072 17.2485C29.7143 17.8774 30.1049 18.7217 30.1483 19.6176C30.157 19.8158 30.0789 20.0053 29.9313 20.1345C29.7838 20.2637 29.5841 20.324 29.3932 20.2896C29.2196 20.2637 29.0373 20.2551 28.8463 20.2551H20.1665C19.9582 20.2551 19.7586 20.2723 19.559 20.2982C19.5329 20.2982 19.4982 20.2982 19.4635 20.2982ZM20.913 18.9542H28.6901C28.5773 18.6613 28.395 18.3943 28.152 18.1531L26.6243 16.6196C25.6956 15.7064 24.1766 15.7064 23.2392 16.6196L20.913 18.9542Z" fill="#292D32"/>
<path d="M19.7173 30.6355H17.15C16.7968 30.6355 16.5039 30.3426 16.5039 29.9894C16.5039 29.6362 16.7968 29.3433 17.15 29.3433H19.7259C20.0791 29.3433 20.372 29.6362 20.372 29.9894C20.372 30.3426 20.0791 30.6355 19.7173 30.6355Z" fill="#FF8F1E"/>
<path d="M18.4469 31.9701C18.0937 31.9701 17.8008 31.6772 17.8008 31.324V28.7482C17.8008 28.395 18.0937 28.1021 18.4469 28.1021C18.8001 28.1021 19.093 28.395 19.093 28.7482V31.324C19.093 31.6859 18.8001 31.9701 18.4469 31.9701Z" fill="#FF8F1E"/>
<path d="M28.8315 33.2537H20.7224C20.4454 33.2537 20.2031 33.0814 20.1079 32.8316C20.0127 32.5731 20.0906 32.2888 20.2983 32.1165C20.506 31.9442 20.6964 31.7202 20.8349 31.479C21.1118 31.0397 21.2503 30.54 21.2503 30.0317C21.2503 28.4897 19.9868 27.2319 18.4376 27.2319C17.6328 27.2319 16.8625 27.5765 16.326 28.1881C16.1442 28.3863 15.8586 28.4638 15.6077 28.369C15.3567 28.2743 15.1836 28.0331 15.1836 27.766V23.9926C15.1836 21.3392 16.8279 19.4181 19.381 19.0994C19.6146 19.0649 19.8829 19.0391 20.1598 19.0391H28.8142C29.0219 19.0391 29.2902 19.0477 29.5671 19.0907C32.1202 19.3837 33.7904 21.3134 33.7904 23.9926V28.3001C33.8077 31.2637 31.8086 33.2537 28.8315 33.2537ZM22.0638 31.9615H28.8315C31.0643 31.9615 32.5096 30.5228 32.5096 28.3001V23.9926C32.5096 21.9768 31.3239 20.5897 29.4027 20.3657C29.195 20.3313 29.0132 20.3313 28.8315 20.3313H20.1772C19.9694 20.3313 19.7704 20.3485 19.5713 20.3744C17.6674 20.6156 16.4991 21.994 16.4991 23.9926V26.4221C17.0875 26.1033 17.7626 25.931 18.4463 25.931C20.7137 25.931 22.5571 27.766 22.5571 30.0231C22.5571 30.7037 22.384 31.3756 22.0638 31.9615Z" fill="#292D32"/>
<path d="M33.1645 28.4843H30.58C29.2706 28.4843 28.2109 27.4247 28.2109 26.1152C28.2109 24.8057 29.2706 23.7461 30.58 23.7461H33.1645C33.5177 23.7461 33.8106 24.039 33.8106 24.3922C33.8106 24.7454 33.5177 25.0383 33.1645 25.0383H30.58C29.9856 25.0383 29.5032 25.5208 29.5032 26.1152C29.5032 26.7096 29.9856 27.1921 30.58 27.1921H33.1645C33.5177 27.1921 33.8106 27.485 33.8106 27.8382C33.8106 28.1914 33.5177 28.4843 33.1645 28.4843Z" fill="#292D32"/>
<path d="M18.4319 34.1148C17.0019 34.1148 15.6579 33.3567 14.9343 32.1248C14.5466 31.5045 14.3398 30.7723 14.3398 30.0228C14.3398 27.7656 16.1748 25.9307 18.4319 25.9307C20.689 25.9307 22.524 27.7656 22.524 30.0228C22.524 30.7723 22.3173 31.5045 21.9296 32.1334C21.2059 33.3567 19.862 34.1148 18.4319 34.1148ZM18.4319 27.2229C16.8899 27.2229 15.6321 28.4807 15.6321 30.0228C15.6321 30.531 15.7699 31.0307 16.037 31.4614C16.5453 32.3229 17.4412 32.8226 18.4319 32.8226C19.4227 32.8226 20.3186 32.3143 20.8269 31.4701C21.094 31.0307 21.2318 30.5397 21.2318 30.0228C21.2318 28.4807 19.974 27.2229 18.4319 27.2229Z" fill="#FF8F1E"/>
</svg>
