<svg width="19" height="19" viewBox="0 0 19 19" fill="none" xmlns="http://www.w3.org/2000/svg">
<path d="M12.7764 17.4978H6.85969C3.44281 17.4978 2.80677 15.9077 2.64406 14.362L2.08937 8.43792C2.00802 7.66135 1.98583 6.515 2.755 5.65708C3.42062 4.9175 4.5226 4.5625 6.1201 4.5625H13.5159C15.1208 4.5625 16.2228 4.9249 16.881 5.65708C17.6502 6.515 17.628 7.66135 17.5467 8.44531L16.992 14.3546C16.8293 15.9077 16.1932 17.4978 12.7764 17.4978ZM6.1201 5.66448C4.87021 5.66448 4.01229 5.90854 3.57594 6.39667C3.21354 6.79604 3.09521 7.4099 3.19135 8.32698L3.74604 14.251C3.87177 15.4196 4.18979 16.3884 6.85969 16.3884H12.7764C15.4389 16.3884 15.7643 15.4196 15.89 14.2436L16.4447 8.33437C16.5408 7.4099 16.4225 6.79604 16.0601 6.39667C15.6237 5.90854 14.7658 5.66448 13.5159 5.66448H6.1201Z" fill="#292D32"/>
<path d="M12.776 5.66439C12.4728 5.66439 12.2214 5.41293 12.2214 5.1097V4.51803C12.2214 3.20158 12.2214 2.70605 10.4094 2.70605H9.22604C7.41406 2.70605 7.41406 3.20158 7.41406 4.51803V5.1097C7.41406 5.41293 7.1626 5.66439 6.85938 5.66439C6.55615 5.66439 6.30469 5.41293 6.30469 5.1097V4.51803C6.30469 3.21637 6.30469 1.59668 9.22604 1.59668H10.4094C13.3307 1.59668 13.3307 3.21637 13.3307 4.51803V5.1097C13.3307 5.41293 13.0793 5.66439 12.776 5.66439Z" fill="#292D32"/>
<path d="M9.8151 13.0604C7.78125 13.0604 7.78125 11.8031 7.78125 11.0487V10.2869C7.78125 9.24413 8.03271 8.99268 9.07552 8.99268H10.5547C11.5975 8.99268 11.849 9.24413 11.849 10.2869V11.0265C11.849 11.7957 11.849 13.0604 9.8151 13.0604ZM8.89062 10.1021C8.89062 10.1612 8.89062 10.2278 8.89062 10.2869V11.0487C8.89062 11.8105 8.89062 11.951 9.8151 11.951C10.7396 11.951 10.7396 11.8327 10.7396 11.0413V10.2869C10.7396 10.2278 10.7396 10.1612 10.7396 10.1021C10.6804 10.1021 10.6139 10.1021 10.5547 10.1021H9.07552C9.01635 10.1021 8.94979 10.1021 8.89062 10.1021Z" fill="#292D32"/>
<path d="M11.2936 11.596C11.02 11.596 10.7759 11.3889 10.7463 11.1078C10.7094 10.8046 10.9238 10.5236 11.2271 10.4866C13.1796 10.2425 15.0507 9.50294 16.626 8.35659C16.8701 8.17169 17.2177 8.23086 17.4026 8.48232C17.5801 8.72638 17.5283 9.07398 17.2769 9.25888C15.5462 10.5162 13.505 11.3223 11.3602 11.596C11.338 11.596 11.3158 11.596 11.2936 11.596Z" fill="#292D32"/>
<path d="M8.33863 11.6033C8.31644 11.6033 8.29425 11.6033 8.27207 11.6033C6.24561 11.3741 4.27092 10.6345 2.56248 9.46593C2.31102 9.29582 2.24446 8.94822 2.41457 8.69676C2.58467 8.4453 2.93227 8.37874 3.18373 8.54884C4.74425 9.61384 6.54144 10.2869 8.3904 10.5013C8.69363 10.5383 8.9155 10.812 8.87852 11.1152C8.85634 11.3962 8.61967 11.6033 8.33863 11.6033Z" fill="#292D32"/>
</svg>
