<svg width="18" height="18" viewBox="0 0 18 18" fill="none" xmlns="http://www.w3.org/2000/svg">
<path d="M9.07812 13.9062C8.7749 13.9062 8.52344 13.6548 8.52344 13.3516V11.1328C8.52344 10.8296 8.7749 10.5781 9.07812 10.5781C9.38135 10.5781 9.63281 10.8296 9.63281 11.1328V13.3516C9.63281 13.6548 9.38135 13.9062 9.07812 13.9062Z" fill="#292D32"/>
<path d="M13.2208 16.7239H4.93744C3.59139 16.7239 2.36369 15.6885 2.14181 14.3646L1.15817 8.47013C0.995457 7.55305 1.4466 6.37711 2.17879 5.79284L7.3041 1.68815C8.29515 0.889401 9.85567 0.896797 10.8541 1.69555L15.9794 5.79284C16.7042 6.37711 17.148 7.55305 17 8.47013L16.0164 14.3572C15.7945 15.6663 14.5372 16.7239 13.2208 16.7239ZM9.07171 2.20586C8.67973 2.20586 8.28775 2.32419 7.99931 2.55346L2.874 6.66555C2.45983 6.99836 2.164 7.76753 2.25275 8.29263L3.23639 14.1797C3.36952 14.9563 4.14608 15.6145 4.93744 15.6145H13.2208C14.0121 15.6145 14.7887 14.9563 14.9218 14.1723L15.9055 8.28523C15.9868 7.76753 15.691 6.98357 15.2842 6.65815L10.1589 2.56086C9.86306 2.32419 9.46369 2.20586 9.07171 2.20586Z" fill="#292D32"/>
</svg>
