<svg width="19" height="19" viewBox="0 0 19 19" fill="none" xmlns="http://www.w3.org/2000/svg">
<path d="M9.81531 11.0134C8.24 11.0134 6.95312 9.73389 6.95312 8.15118C6.95312 6.56847 8.24 5.29639 9.81531 5.29639C11.3906 5.29639 12.6775 6.57587 12.6775 8.15857C12.6775 9.74128 11.3906 11.0134 9.81531 11.0134ZM9.81531 6.40576C8.85385 6.40576 8.0625 7.18972 8.0625 8.15857C8.0625 9.12743 8.84646 9.91139 9.81531 9.91139C10.7842 9.91139 11.5681 9.12743 11.5681 8.15857C11.5681 7.18972 10.7768 6.40576 9.81531 6.40576Z" fill="#292D32"/>
<path d="M9.81762 17.366C8.72304 17.366 7.62106 16.9518 6.76314 16.1309C4.58137 14.0304 2.17033 10.6801 3.08002 6.69377C3.90095 3.07721 7.05897 1.45752 9.81762 1.45752C9.81762 1.45752 9.81762 1.45752 9.82502 1.45752C12.5837 1.45752 15.7417 3.07721 16.5626 6.70117C17.4649 10.6875 15.0539 14.0304 12.8721 16.1309C12.0142 16.9518 10.9122 17.366 9.81762 17.366ZM9.81762 2.56689C7.66543 2.56689 4.89939 3.71325 4.1672 6.93783C3.36845 10.4213 5.55762 13.424 7.5397 15.3247C8.81918 16.5598 10.8235 16.5598 12.1029 15.3247C14.0776 13.424 16.2668 10.4213 15.4828 6.93783C14.7432 3.71325 11.9698 2.56689 9.81762 2.56689Z" fill="#292D32"/>
</svg>
