<svg width="24" height="23" viewBox="0 0 24 23" fill="none" xmlns="http://www.w3.org/2000/svg">
<path d="M23.4649 5.15413C23.0178 4.58286 22.3223 4.23513 21.6021 4.23513H6.47587L6.00395 2.39714C5.73074 1.32912 4.7869 0.583984 3.69404 0.583984H1.16059C0.738353 0.583984 0.390625 0.931713 0.390625 1.35395C0.390625 1.7762 0.738353 2.12392 1.16059 2.12392H3.69404C4.06661 2.12392 4.3895 2.3723 4.48885 2.74487L7.51906 14.816C7.79227 15.884 8.7361 16.6292 9.82896 16.6292H19.7392C20.8321 16.6292 21.8008 15.884 22.0491 14.816L23.912 7.16599C24.0858 6.47053 23.9368 5.7254 23.4649 5.15413ZM22.3969 6.81826L20.534 14.4683C20.4347 14.8408 20.1118 15.0892 19.7392 15.0892H9.82896C9.4564 15.0892 9.13351 14.8408 9.03416 14.4683L6.87327 5.79991H21.602C21.8504 5.79991 22.0988 5.9241 22.2478 6.1228C22.3969 6.3215 22.4714 6.56988 22.3969 6.81826Z" fill="#B9B8B7"/>
<path d="M10.3527 17.6221C8.93691 17.6221 7.76953 18.7894 7.76953 20.2052C7.76953 21.6209 8.93691 22.7883 10.3527 22.7883C11.7684 22.7883 12.9358 21.6209 12.9358 20.2052C12.9358 18.7894 11.7684 17.6221 10.3527 17.6221ZM10.3527 21.2235C9.78139 21.2235 9.33431 20.7765 9.33431 20.2052C9.33431 19.6339 9.78139 19.1869 10.3527 19.1869C10.9239 19.1869 11.371 19.6339 11.371 20.2052C11.371 20.7516 10.8991 21.2235 10.3527 21.2235Z" fill="#B9B8B7"/>
<path d="M18.8956 17.6221C17.4799 17.6221 16.3125 18.7894 16.3125 20.2052C16.3125 21.6209 17.4799 22.7883 18.8956 22.7883C20.3114 22.7883 21.4787 21.6209 21.4787 20.2052C21.4539 18.7894 20.3114 17.6221 18.8956 17.6221ZM18.8956 21.2235C18.3244 21.2235 17.8773 20.7765 17.8773 20.2052C17.8773 19.6339 18.3244 19.1869 18.8956 19.1869C19.4669 19.1869 19.914 19.6339 19.914 20.2052C19.914 20.7516 19.4421 21.2235 18.8956 21.2235Z" fill="#B9B8B7"/>
</svg>
