<svg width="18" height="19" viewBox="0 0 18 19" fill="none" xmlns="http://www.w3.org/2000/svg">
<path d="M12.9305 17.1257C12.0947 17.1257 11.2146 16.926 10.3049 16.5414C9.41745 16.1642 8.52255 15.6465 7.64985 15.0178C6.78453 14.3818 5.9488 13.6718 5.15745 12.8952C4.37349 12.1039 3.66349 11.2682 3.03484 10.4102C2.3988 9.52273 1.88849 8.63523 1.52609 7.77732C1.14151 6.86023 0.949219 5.97274 0.949219 5.13701C0.949219 4.56013 1.05276 4.01284 1.25245 3.50253C1.45953 2.97742 1.79234 2.4893 2.24349 2.06773C2.81297 1.50565 3.4638 1.22461 4.15901 1.22461C4.44745 1.22461 4.74328 1.29117 4.99474 1.40951C5.28318 1.54263 5.52724 1.74232 5.70474 2.00857L7.42057 4.42701C7.57589 4.64148 7.69422 4.84857 7.77557 5.05565C7.87172 5.27753 7.92349 5.4994 7.92349 5.71388C7.92349 5.99492 7.84214 6.26857 7.68682 6.52742C7.57589 6.72711 7.40578 6.94159 7.1913 7.15607L6.68839 7.68117C6.69578 7.70336 6.70318 7.71815 6.71057 7.73294C6.79932 7.88826 6.97682 8.15451 7.31703 8.55388C7.67943 8.96805 8.01964 9.34523 8.35985 9.69284C8.7962 10.1218 9.1586 10.462 9.4988 10.743C9.92037 11.098 10.194 11.2755 10.3567 11.3569L10.3419 11.3939L10.8818 10.8614C11.1111 10.6321 11.333 10.462 11.5474 10.3511C11.9542 10.0996 12.4719 10.0552 12.9896 10.2697C13.1819 10.3511 13.389 10.462 13.6109 10.6173L16.0663 12.3627C16.34 12.5476 16.5396 12.7843 16.658 13.0653C16.7689 13.3464 16.8207 13.6052 16.8207 13.8641C16.8207 14.2191 16.7393 14.5741 16.584 14.9069C16.4287 15.2397 16.2364 15.5282 15.9923 15.7944C15.5708 16.2603 15.1122 16.5932 14.5797 16.8076C14.0694 17.0147 13.5147 17.1257 12.9305 17.1257ZM4.15901 2.33398C3.75224 2.33398 3.37505 2.51148 3.01266 2.86648C2.67245 3.18451 2.43578 3.53211 2.28786 3.9093C2.13255 4.29388 2.05859 4.70065 2.05859 5.13701C2.05859 5.82482 2.2213 6.5718 2.54672 7.34096C2.87953 8.12492 3.34547 8.93846 3.93714 9.75201C4.5288 10.5655 5.20182 11.3569 5.94141 12.1039C6.68099 12.8361 7.47974 13.5165 8.30068 14.1155C9.09943 14.6998 9.92037 15.1732 10.7339 15.5134C11.9986 16.0533 13.1819 16.179 14.1582 15.7722C14.5354 15.6169 14.8682 15.3802 15.1714 15.04C15.3415 14.8551 15.4746 14.6554 15.5856 14.4188C15.6743 14.2339 15.7187 14.0416 15.7187 13.8493C15.7187 13.731 15.6965 13.6126 15.6373 13.4795C15.6152 13.4351 15.5708 13.3538 15.4303 13.2576L12.9748 11.5122C12.8269 11.4087 12.6938 11.3347 12.5681 11.2829C12.4054 11.2164 12.3388 11.1498 12.0873 11.3051C11.9394 11.3791 11.8063 11.49 11.6584 11.6379L11.0963 12.1926C10.8079 12.4737 10.3641 12.5402 10.0239 12.4145L9.82422 12.3258C9.52099 12.163 9.16599 11.9116 8.77401 11.5788C8.41901 11.2755 8.03443 10.9205 7.56849 10.462C7.2061 10.0922 6.8437 9.70023 6.46651 9.26388C6.11891 8.85711 5.86745 8.50951 5.71214 8.22107L5.62339 7.99919C5.57901 7.82909 5.56422 7.73294 5.56422 7.6294C5.56422 7.36315 5.66037 7.12648 5.84526 6.94159L6.39995 6.36471C6.54787 6.2168 6.6588 6.07628 6.73276 5.95055C6.79193 5.8544 6.81412 5.77305 6.81412 5.69909C6.81412 5.63992 6.79193 5.55117 6.75495 5.46242C6.70318 5.34409 6.62182 5.21096 6.51828 5.07044L4.80245 2.64461C4.72849 2.54107 4.63974 2.46711 4.5288 2.41534C4.41047 2.36357 4.28474 2.33398 4.15901 2.33398ZM10.3419 11.4013L10.2236 11.9042L10.4233 11.3865C10.3863 11.3791 10.3567 11.3865 10.3419 11.4013Z" fill="#2E2E2E"/>
</svg>
