<svg width="19" height="19" viewBox="0 0 19 19" fill="none" xmlns="http://www.w3.org/2000/svg">
<path d="M13.808 17.2366H5.25474C3.39955 17.2366 1.89453 15.8074 1.89453 14.0457V9.28416C1.89453 7.52245 3.39955 6.09326 5.25474 6.09326H13.808C15.6632 6.09326 17.1682 7.52245 17.1682 9.28416V10.303C17.1682 10.5931 16.9149 10.8336 16.6094 10.8336H15.1044C14.8436 10.8336 14.6052 10.9256 14.4339 11.0954L14.4264 11.1025C14.2178 11.2935 14.1209 11.5553 14.1433 11.8241C14.188 12.2911 14.6574 12.6661 15.1938 12.6661H16.6094C16.9149 12.6661 17.1682 12.9066 17.1682 13.1967V14.0386C17.1682 15.8074 15.6632 17.2366 13.808 17.2366ZM5.25474 7.15453C4.01795 7.15453 3.01212 8.10969 3.01212 9.28416V14.0457C3.01212 15.2202 4.01795 16.1754 5.25474 16.1754H13.808C15.0448 16.1754 16.0506 15.2202 16.0506 14.0457V13.7344H15.1938C14.0688 13.7344 13.1151 12.942 13.0257 11.9232C12.9661 11.343 13.1896 10.77 13.6366 10.3525C14.0241 9.97754 14.5456 9.77235 15.1044 9.77235H16.0506V9.28416C16.0506 8.10969 15.0448 7.15453 13.808 7.15453H5.25474Z" fill="#2E2E2E"/>
<path d="M2.42517 9.68192C2.13509 9.68192 1.89453 9.44137 1.89453 9.15129V5.91798C1.89453 4.86378 2.5596 3.9086 3.54304 3.53361L9.16071 1.41107C9.74088 1.19174 10.3847 1.2696 10.8871 1.62336C11.3965 1.97711 11.6936 2.5502 11.6936 3.16573V5.85428C11.6936 6.14437 11.4531 6.38492 11.163 6.38492C10.8729 6.38492 10.6323 6.14437 10.6323 5.85428V3.16573C10.6323 2.89688 10.505 2.64924 10.2786 2.49359C10.0522 2.33793 9.78333 2.30255 9.52862 2.40161L3.91095 4.52415C3.33786 4.74348 2.94873 5.30244 2.94873 5.91798V9.15129C2.9558 9.44844 2.71525 9.68192 2.42517 9.68192Z" fill="#2E2E2E"/>
<path d="M15.2944 13.4753C14.2261 13.4753 13.3205 12.6828 13.2356 11.664C13.179 11.0768 13.3912 10.5037 13.8157 10.0863C14.1766 9.71836 14.6718 9.51318 15.2025 9.51318H16.6741C17.3745 9.53441 17.9122 10.0862 17.9122 10.7655V12.223C17.9122 12.9022 17.3745 13.454 16.6953 13.4753H15.2944ZM16.6599 10.5745H15.2095C14.9619 10.5745 14.7355 10.6664 14.5728 10.8362C14.3676 11.0343 14.2685 11.3032 14.2968 11.572C14.3393 12.039 14.785 12.414 15.2944 12.414H16.6812C16.7731 12.414 16.858 12.3291 16.858 12.223V10.7655C16.858 10.6593 16.7731 10.5815 16.6599 10.5745Z" fill="#2E2E2E"/>
<path d="M10.87 9.77661H5.91736C5.62727 9.77661 5.38672 9.53605 5.38672 9.24597C5.38672 8.95589 5.62727 8.71533 5.91736 8.71533H10.87C11.16 8.71533 11.4006 8.95589 11.4006 9.24597C11.4006 9.53605 11.16 9.77661 10.87 9.77661Z" fill="#2E2E2E"/>
</svg>
