<svg width="19" height="19" viewBox="0 0 19 19" fill="none" xmlns="http://www.w3.org/2000/svg">
<path d="M13.8147 17.7924H5.25036C3.22391 17.7924 1.58203 16.1431 1.58203 14.1167V8.63634C1.58203 7.63051 2.20328 6.36582 3.00203 5.74457L6.98839 2.63832C8.18651 1.70644 10.102 1.66207 11.3445 2.53478L15.9152 5.73717C16.7953 6.35103 17.4831 7.66748 17.4831 8.73988V14.124C17.4831 16.1431 15.8412 17.7924 13.8147 17.7924ZM7.6688 3.51103L3.68245 6.61728C3.15734 7.03144 2.69141 7.97071 2.69141 8.63634V14.1167C2.69141 15.5293 3.83776 16.683 5.25036 16.683H13.8147C15.2273 16.683 16.3737 15.5366 16.3737 14.124V8.73988C16.3737 8.02988 15.8634 7.04623 15.2791 6.64686L10.7085 3.44446C9.86537 2.8528 8.47495 2.88238 7.6688 3.51103Z" fill="#2E2E2E"/>
<path d="M9.53125 14.834C9.22802 14.834 8.97656 14.5825 8.97656 14.2793V12.0605C8.97656 11.7573 9.22802 11.5059 9.53125 11.5059C9.83448 11.5059 10.0859 11.7573 10.0859 12.0605V14.2793C10.0859 14.5825 9.83448 14.834 9.53125 14.834Z" fill="#2E2E2E"/>
</svg>
