<svg width="19" height="18" viewBox="0 0 19 18" fill="none" xmlns="http://www.w3.org/2000/svg">
<path d="M13.2209 7.37012H5.83984C5.53661 7.37012 5.28516 7.11866 5.28516 6.81543C5.28516 6.5122 5.53661 6.26074 5.83984 6.26074H13.2209C13.5241 6.26074 13.7756 6.5122 13.7756 6.81543C13.7756 7.11866 13.5241 7.37012 13.2209 7.37012Z" fill="#292D32"/>
<path d="M9.53125 7.37042C9.22802 7.37042 8.97656 7.11897 8.97656 6.81574V5.57324C8.97656 5.27001 9.22802 5.01855 9.53125 5.01855C9.83448 5.01855 10.0859 5.27001 10.0859 5.57324V6.81574C10.0859 7.11897 9.83448 7.37042 9.53125 7.37042Z" fill="#292D32"/>
<path d="M5.83203 13.1094C5.5288 13.1094 5.27734 12.8579 5.27734 12.5547C5.27734 12.2515 5.5288 12 5.83203 12C8.58328 12 10.8242 9.67036 10.8242 6.80078C10.8242 6.49755 11.0757 6.24609 11.3789 6.24609C11.6821 6.24609 11.9336 6.49755 11.9336 6.80078C11.9336 10.2842 9.19714 13.1094 5.83203 13.1094Z" fill="#292D32"/>
<path d="M13.229 13.1097C11.772 13.1097 10.4186 12.3849 9.42754 11.061C9.24264 10.817 9.29443 10.4694 9.53849 10.2845C9.78256 10.0996 10.1302 10.1513 10.315 10.3954C11.099 11.4308 12.1344 12.0003 13.2364 12.0003C13.5396 12.0003 13.7911 12.2517 13.7911 12.555C13.7911 12.8582 13.5322 13.1097 13.229 13.1097Z" fill="#292D32"/>
<path d="M11.7513 17.0143H7.3138C3.29786 17.0143 1.58203 15.2985 1.58203 11.2826V6.84505C1.58203 2.82911 3.29786 1.11328 7.3138 1.11328H11.7513C15.7672 1.11328 17.4831 2.82911 17.4831 6.84505V11.2826C17.4831 15.2985 15.7672 17.0143 11.7513 17.0143ZM7.3138 2.22266C3.90432 2.22266 2.69141 3.43557 2.69141 6.84505V11.2826C2.69141 14.692 3.90432 15.9049 7.3138 15.9049H11.7513C15.1608 15.9049 16.3737 14.692 16.3737 11.2826V6.84505C16.3737 3.43557 15.1608 2.22266 11.7513 2.22266H7.3138Z" fill="#292D32"/>
</svg>
