<svg width="19" height="19" viewBox="0 0 19 19" fill="none" xmlns="http://www.w3.org/2000/svg">
<path d="M17.2411 7.44876L14.3714 4.57916C14.231 4.44603 14.0461 4.37207 13.8538 4.37207C13.654 4.37207 13.4691 4.4534 13.3361 4.58663C13.1955 4.72713 13.1216 4.91198 13.1216 5.10429C13.1142 5.29655 13.1881 5.48886 13.3287 5.62936L16.1909 8.49895C16.2797 8.58028 16.3536 8.67644 16.4127 8.78737C16.4053 8.78737 16.3979 8.78001 16.3832 8.78001L4.78651 8.8022C4.58678 8.8022 4.40188 8.87616 4.26138 9.01666C4.12083 9.15716 4.04688 9.34211 4.04688 9.54179C4.04688 9.73405 4.12083 9.92636 4.26138 10.0669C4.40188 10.2 4.58678 10.2814 4.78651 10.2814L16.3832 10.2592C16.3979 10.2592 16.4201 10.2443 16.4349 10.2443C16.3758 10.3701 16.287 10.4885 16.1909 10.5847L13.3213 13.4542C13.2547 13.5207 13.1955 13.6021 13.1586 13.6982C13.1216 13.787 13.0994 13.8831 13.0994 13.9793C13.0994 14.0829 13.1142 14.179 13.1512 14.2677C13.1881 14.3565 13.2474 14.4378 13.3139 14.5117C13.3804 14.5784 13.4691 14.6375 13.5579 14.6745C13.6467 14.7114 13.7428 14.7263 13.8464 14.7263C13.9425 14.7263 14.0387 14.704 14.1274 14.6671C14.2162 14.6301 14.2975 14.571 14.3714 14.5044L17.2337 11.6347C17.7883 11.0801 18.1064 10.3258 18.1064 9.54179C18.1064 8.75776 17.7883 8.00354 17.2337 7.44876H17.2411Z" fill="#FF1313"/>
<path d="M5.5326 16.9378H4.05343C3.46172 16.9378 2.89966 16.7012 2.48548 16.287C2.07129 15.8729 1.83468 15.3107 1.83468 14.7191V4.36496C1.83468 3.77319 2.07129 3.21109 2.48548 2.797C2.89966 2.38282 3.46172 2.14621 4.05343 2.14621H5.5326C5.73228 2.14621 5.91717 2.06483 6.05768 1.9317C6.19081 1.7912 6.27218 1.6063 6.27218 1.40658C6.27218 1.2069 6.19081 1.022 6.05768 0.881548C5.91717 0.748366 5.73228 0.666992 5.5326 0.666992H4.05343C3.06978 0.666992 2.13052 1.05903 1.44265 1.75417C0.747506 2.44204 0.355469 3.3813 0.355469 4.36496V14.7191C0.355469 15.7027 0.747506 16.642 1.44265 17.3299C2.13052 18.025 3.06978 18.417 4.05343 18.417H5.5326C5.73228 18.417 5.91717 18.3356 6.05768 18.2025C6.19081 18.062 6.27218 17.8771 6.27218 17.6775C6.27218 17.4777 6.19081 17.2928 6.05768 17.1524C5.91717 17.0191 5.73228 16.9378 5.5326 16.9378Z" fill="#FF1313"/>
</svg>
