<svg width="33" height="22" viewBox="0 0 33 22" fill="none" xmlns="http://www.w3.org/2000/svg">
<path d="M30.6746 21.5423H2.29873C1.28969 21.5423 0.46875 20.7352 0.46875 19.743C0.46875 18.734 1.28969 17.9131 2.29873 17.9131H30.6746C31.7007 17.9131 32.5046 18.7169 32.5046 19.743C32.5045 20.7351 31.6836 21.5423 30.6746 21.5423ZM2.29873 18.5027C1.61484 18.5027 1.05837 19.0591 1.05837 19.743C1.05837 20.3987 1.62637 20.9527 2.29873 20.9527H30.6746C31.3701 20.9527 31.915 20.4214 31.915 19.743C31.915 19.0475 31.3701 18.5027 30.6746 18.5027H2.29873Z" fill="black"/>
<path d="M30.6746 18.5037H2.29871C2.13592 18.5037 2.00391 18.3717 2.00391 18.2089C2.00391 14.3576 3.5151 10.7253 6.25918 7.98105C9.00319 5.2369 12.6352 3.72559 16.4861 3.72559C20.3374 3.72559 23.9697 5.23684 26.7139 7.98105C29.4581 10.7252 30.9693 14.3575 30.9693 18.2089C30.9694 18.3718 30.8374 18.5037 30.6746 18.5037ZM2.5966 17.9141H30.3767C30.219 10.3889 24.0485 4.31521 16.4862 4.31521C8.92438 4.31521 2.75423 10.3889 2.5966 17.9141Z" fill="black"/>
<path d="M16.6395 4.31446C15.5115 4.31446 14.5938 3.39721 14.5938 2.26973C14.5938 1.12482 15.5115 0.193359 16.6395 0.193359C17.7838 0.193359 18.7149 1.12482 18.7149 2.26973C18.7149 3.39728 17.7838 4.31446 16.6395 4.31446ZM16.6395 0.782974C15.823 0.782974 15.1834 1.43608 15.1834 2.26973C15.1834 3.07207 15.8366 3.72484 16.6395 3.72484C17.4449 3.72484 18.1253 3.0585 18.1253 2.26973C18.1253 1.44996 17.4588 0.782974 16.6395 0.782974Z" fill="black"/>
<path d="M4.72449 18.5037C4.56169 18.5037 4.42969 18.3717 4.42969 18.2089C4.42969 14.7606 5.65091 11.393 7.8684 8.72631C10.08 6.0668 13.1229 4.29233 16.4367 3.72983C16.5972 3.70244 16.7494 3.8106 16.7767 3.97118C16.8039 4.13168 16.6959 4.28387 16.5353 4.31112C9.97013 5.42563 5.0193 11.4004 5.0193 18.2089C5.0193 18.3718 4.8873 18.5037 4.72449 18.5037Z" fill="black"/>
</svg>
