<svg width="81" height="79" viewBox="0 0 81 79" fill="none" xmlns="http://www.w3.org/2000/svg">
<g filter="url(#filter0_d_14_20148)">
<path d="M2.21484 11.4557C2.21484 5.57385 6.98301 0.805664 12.8648 0.805664H68.0871C73.9689 0.805664 78.7371 5.57383 78.7371 11.4557V65.1001C78.7371 70.9819 73.9689 75.7501 68.0871 75.7501H12.8648C6.98301 75.7501 2.21484 70.9819 2.21484 65.1001V11.4557Z" fill="#F2F1F1"/>
</g>
<path d="M40.3404 38.3685C41.631 38.3685 42.8923 37.9949 43.9644 37.2904C45.0376 36.586 45.8738 35.5828 46.3674 34.4195C46.8611 33.2453 46.9904 31.9538 46.7393 30.7156C46.487 29.4776 45.8661 28.3355 44.9539 27.4389C44.0416 26.5423 42.8782 25.9341 41.6136 25.6885C40.348 25.4322 39.0356 25.5605 37.8439 26.0513C36.6521 26.5318 35.6322 27.3537 34.9157 28.4102C34.1992 29.4562 33.8164 30.6945 33.8164 31.9645C33.8186 33.6615 34.5058 35.2946 35.729 36.49C36.9523 37.6961 38.6104 38.3685 40.3404 38.3685ZM40.3404 27.6951C41.2004 27.6951 42.0409 27.9406 42.7564 28.4102C43.4719 28.8799 44.0296 29.5523 44.3591 30.3314C44.6875 31.1106 44.7734 31.9645 44.6059 32.797C44.4385 33.6296 44.0242 34.3874 43.4153 34.9849C42.8075 35.5828 42.0322 35.9884 41.1885 36.1484C40.3447 36.3191 39.4705 36.2338 38.6757 35.9136C37.8808 35.5828 37.2023 35.0383 36.7239 34.334C36.2466 33.6296 35.9911 32.8076 35.9911 31.9645C35.9911 30.8331 36.4488 29.7444 37.2654 28.9438C38.0809 28.1435 39.1867 27.6951 40.3404 27.6951Z" fill="#696969"/>
<path d="M40.3406 40.5029C37.7463 40.5029 35.2585 41.5168 33.4241 43.3207C31.5898 45.1243 30.5579 47.5579 30.5547 50.109C30.5547 50.3971 30.6688 50.6639 30.8733 50.8666C31.0766 51.0694 31.3539 51.1762 31.642 51.1762C31.9301 51.1762 32.2074 51.0694 32.4107 50.8666C32.6152 50.6639 32.7293 50.3971 32.7293 50.109C32.7293 48.1236 33.5307 46.2238 34.9584 44.8256C36.386 43.4274 38.3214 42.6376 40.3406 42.6376C42.3598 42.6376 44.2952 43.4274 45.7229 44.8256C47.1505 46.2238 47.9519 48.1236 47.9519 50.109C47.9519 50.3971 48.0661 50.6639 48.2705 50.8666C48.4738 51.0694 48.7511 51.1762 49.0392 51.1762C49.3274 51.1762 49.6046 51.0694 49.808 50.8666C50.0124 50.6639 50.1265 50.3971 50.1265 50.109C50.1233 47.5579 49.0914 45.1243 47.2571 43.3207C45.4228 41.5168 42.935 40.5029 40.3406 40.5029Z" fill="#696969"/>
<defs>
<filter id="filter0_d_14_20148" x="0.242622" y="0.0167751" width="80.4679" height="78.8888" filterUnits="userSpaceOnUse" color-interpolation-filters="sRGB">
<feFlood flood-opacity="0" result="BackgroundImageFix"/>
<feColorMatrix in="SourceAlpha" type="matrix" values="0 0 0 0 0 0 0 0 0 0 0 0 0 0 0 0 0 0 127 0" result="hardAlpha"/>
<feOffset dy="1.18333"/>
<feGaussianBlur stdDeviation="0.986111"/>
<feComposite in2="hardAlpha" operator="out"/>
<feColorMatrix type="matrix" values="0 0 0 0 0.258824 0 0 0 0 0.584314 0 0 0 0 0.466667 0 0 0 0.101961 0"/>
<feBlend mode="normal" in2="BackgroundImageFix" result="effect1_dropShadow_14_20148"/>
<feBlend mode="normal" in="SourceGraphic" in2="effect1_dropShadow_14_20148" result="shape"/>
</filter>
</defs>
</svg>
