<svg width="23" height="23" viewBox="0 0 23 23" fill="none" xmlns="http://www.w3.org/2000/svg">
<path d="M14.825 3.2802C13.2291 1.68411 11.1077 0.805664 8.85093 0.805664C6.59419 0.805664 4.4727 1.68437 2.87715 3.2802C1.28105 4.87629 0.402344 6.99778 0.402344 9.25452C0.402344 11.5113 1.28132 13.6327 2.87688 15.2288C4.4727 16.8244 6.59392 17.7034 8.85093 17.7034C11.1077 17.7034 13.2292 16.8247 14.8252 15.2288C18.1193 11.9345 18.1191 6.57456 14.825 3.2802ZM13.3044 13.708C12.1146 14.8976 10.5331 15.5523 8.85092 15.5523C7.16879 15.5523 5.58749 14.8973 4.39795 13.708C3.20841 12.518 2.55341 10.9366 2.55341 9.25451C2.55341 7.57238 3.20868 5.99054 4.39795 4.801C5.58722 3.61146 7.16879 2.95673 8.85092 2.95673C10.5331 2.95673 12.1146 3.61173 13.3042 4.801C15.7593 7.25671 15.7593 11.2523 13.3044 13.708ZM21.7818 20.6643L17.271 16.1535C16.8507 15.7333 16.1697 15.7333 15.7502 16.1535C15.3299 16.5732 15.3299 17.2543 15.7502 17.6743L20.261 22.1851C20.471 22.3951 20.7463 22.5002 21.0214 22.5002C21.2965 22.5002 21.5721 22.3951 21.7818 22.1851C22.2018 21.7648 22.2018 21.0838 21.7818 20.6643Z" fill="#B9B8B7"/>
</svg>
