<svg width="19" height="19" viewBox="0 0 19 19" fill="none" xmlns="http://www.w3.org/2000/svg">
<path d="M9.68735 17.237C9.50985 17.237 9.33235 17.2148 9.16225 17.163C5.32381 16.1054 2.54297 12.5184 2.54297 8.62819V5.38141C2.54297 4.55308 3.14204 3.65822 3.9112 3.3402L8.03069 1.65393C9.10308 1.21757 10.279 1.21757 11.344 1.65393L15.4635 3.3402C16.2327 3.65822 16.8317 4.55308 16.8317 5.38141V8.62819C16.8317 12.511 14.0435 16.098 10.2124 17.163C10.0423 17.2148 9.86485 17.237 9.68735 17.237ZM9.68735 2.44529C9.26578 2.44529 8.85161 2.52665 8.45223 2.68936L4.33277 4.37559C3.97777 4.5235 3.65234 5.00423 3.65234 5.38881V8.63559C3.65234 12.0303 6.09297 15.1661 9.45808 16.098C9.60599 16.1424 9.7687 16.1424 9.91662 16.098C13.2817 15.1661 15.7223 12.0303 15.7223 8.63559V5.38881C15.7223 5.00423 15.3969 4.5235 15.0419 4.37559L10.9225 2.68936C10.5231 2.52665 10.1089 2.44529 9.68735 2.44529Z" fill="#2E2E2E"/>
<path d="M9.6862 10.2113C8.56203 10.2113 7.65234 9.30158 7.65234 8.17741C7.65234 7.05324 8.56203 6.14355 9.6862 6.14355C10.8104 6.14355 11.7201 7.05324 11.7201 8.17741C11.7201 9.30158 10.8104 10.2113 9.6862 10.2113ZM9.6862 7.25293C9.17589 7.25293 8.76172 7.6671 8.76172 8.17741C8.76172 8.68772 9.17589 9.10189 9.6862 9.10189C10.1965 9.10189 10.6107 8.68772 10.6107 8.17741C10.6107 7.6671 10.1965 7.25293 9.6862 7.25293Z" fill="#2E2E2E"/>
<path d="M9.6875 12.4297C9.38427 12.4297 9.13281 12.1782 9.13281 11.875V9.65625C9.13281 9.35302 9.38427 9.10156 9.6875 9.10156C9.99073 9.10156 10.2422 9.35302 10.2422 9.65625V11.875C10.2422 12.1782 9.99073 12.4297 9.6875 12.4297Z" fill="#2E2E2E"/>
</svg>
